<svg width="1263" height="936" viewBox="0 0 1263 936" fill="none" xmlns="http://www.w3.org/2000/svg">
<path opacity="0.15" d="M860.072 609.716C832.795 655.334 812.808 637.666 676.914 639.831C533.756 642.12 459.823 798.034 562.17 978.759C597.089 1040.41 634.672 1081.47 680.931 1147.63C753.73 1251.75 733.181 1320.43 721.898 1386.41C709.589 1458.34 655.594 1625.29 853.781 1791.48C968.168 1887.4 1104.9 1915.84 1182.98 1825.77C1225.61 1776.61 1243.27 1709.86 1266.6 1644.32C1347.83 1416.14 1355.93 1438.83 1545.89 1309.61C1540.41 1303.12 1552.58 1303.71 1573.77 1278.37C1672.29 1160.57 1571.59 1028.7 1463.46 877.909C1301.75 652.37 1386.29 547.072 1300.71 412.273C1273.83 369.92 1218.22 330.21 1151.14 324.769C960.87 309.335 908.609 528.522 860.072 609.716Z" fill="url(#paint0_linear_1_5781)"/>
<path opacity="0.3" d="M929.409 608.163C902.131 653.781 882.145 636.114 746.25 638.279C603.092 640.568 529.159 796.481 631.506 977.207C666.426 1038.85 704.009 1079.91 750.268 1146.08C823.066 1250.19 802.518 1318.88 791.235 1384.86C778.926 1456.78 724.931 1623.74 923.118 1789.93C1037.5 1885.85 1174.24 1914.28 1252.32 1824.22C1294.95 1775.05 1312.6 1708.31 1335.93 1642.77C1417.17 1414.59 1621.91 1302.16 1643.11 1276.82C1741.63 1159.02 1640.93 1027.15 1532.8 876.357C1371.08 650.818 1455.63 545.519 1370.05 410.721C1343.17 368.367 1287.55 328.658 1220.47 323.216C1030.21 307.783 977.946 526.969 929.409 608.163Z" stroke="#53AAE8" stroke-width="2"/>
<defs>
<linearGradient id="paint0_linear_1_5781" x1="1247.89" y1="1204.86" x2="1091.5" y2="1350.69" gradientUnits="userSpaceOnUse">
<stop stop-color="#53AAE8"/>
<stop offset="1" stop-color="#53AAE8"/>
</linearGradient>
</defs>
</svg>
