<svg width="83" height="113" viewBox="0 0 83 113" fill="none" xmlns="http://www.w3.org/2000/svg">
<path d="M41.7245 30.9634C64.1974 30.9634 82.4153 49.1813 82.4153 71.6541C82.4153 94.127 64.1974 112.345 41.7245 112.345C19.2516 112.345 1.03369 94.127 1.03369 71.6541C1.03369 49.1813 19.2516 30.9634 41.7245 30.9634Z" fill="#ACDCF5"/>
<mask id="mask0_1_5360" style="mask-type:alpha" maskUnits="userSpaceOnUse" x="0" y="0" width="83" height="113">
<path d="M41.7245 0.949829C83.2531 1.88614 82.4153 47.8653 82.4153 70.8064C82.4153 93.7475 64.1974 112.345 41.7245 112.345C19.2516 112.345 1.03368 93.7475 1.03368 70.8064C1.03368 47.8653 -8.31448 1.32443 41.7245 0.949829Z" fill="white"/>
</mask>
<g mask="url(#mask0_1_5360)">
<path d="M5.05951 115.046C2.74487 113.481 0.539062 111.751 -1.53058 109.859C-1.76202 109.654 -1.99347 109.45 -2.21136 109.232C-3.64099 107.925 -5.00262 106.536 -6.2962 105.093C-6.35052 105.025 -6.41876 104.957 -6.47314 104.889C-2.4837 93.9826 3.9566 77.5754 8.8584 74.4573C8.92639 74.4165 8.99457 74.362 9.06262 74.3076C9.14429 74.2667 9.21246 74.2259 9.29407 74.1714C11.3773 73.899 8.80389 92.7571 5.05951 115.046Z" fill="#E77B59"/>
<path d="M89.2333 103.881C85.3119 108.511 80.7234 112.568 75.6174 115.891C74.2558 116.776 72.8671 117.62 71.4373 118.396C62.3827 123.366 52.0074 126.184 40.9513 126.184C27.9615 126.184 15.8979 122.276 5.83569 115.591C5.57703 115.414 5.3183 115.237 5.05963 115.046C2.74493 113.481 0.539185 111.751 -1.53052 109.859C-1.7619 109.654 -1.99347 109.45 -2.2113 109.232C-0.713562 98.9932 1.24713 89.3803 3.73889 82.7358C5.25018 78.7055 6.9386 75.7917 8.85846 74.4573C8.92657 74.4165 8.99457 74.362 9.06268 74.3076C9.14435 74.2667 9.21252 74.2259 9.29419 74.1714C19.4788 67.7038 47.1601 69.8142 64.2072 72.5783C68.6052 73.2864 72.5402 75.8461 75.1816 79.6858C79.457 85.9083 85.9246 95.916 89.2333 103.881Z" fill="#E77B59"/>
<path d="M56.6789 16.8074C56.6789 16.8074 56.1166 13.2196 59.5409 14.6875C62.964 16.1553 61.4976 19.7417 59.5409 19.2529C57.5844 18.7641 56.6789 16.8074 56.6789 16.8074Z" fill="#7672CD"/>
<path d="M63.2908 39.4507C63.2908 39.4507 62.7543 49.1248 58.3986 49.5686C54.0442 50.0125 47.6379 44.509 47.6379 44.509L50.6402 33.623L63.2908 39.4507Z" fill="black"/>
<path d="M30.0557 36.699C30.0557 36.699 15.8433 32.1336 13.7233 26.1004C11.6046 20.0685 38.4608 29.1994 38.4608 29.1994L30.0557 36.699Z" fill="#5C5CBF"/>
<path d="M50.6402 57.4115L49.5374 72.7907C49.5374 72.7907 46.7625 77.1287 37.8793 77.77C31.262 78.2493 28.9514 76.7339 28.9514 76.7339L29.9427 69.0572L30.9175 61.5712L46.9775 58.1875L50.6402 57.4115Z" fill="#E69786"/>
<path d="M46.9776 58.1876C46.9353 58.6016 46.7747 59.0891 46.5242 59.6473C43.0616 67.1973 33.7646 68.7495 29.9427 69.0572L30.9176 61.5712L46.9776 58.1876Z" fill="black"/>
<path d="M27.8419 26.954C27.8419 26.954 19.709 45.9087 22.7548 56.506C25.7995 67.1047 35.4627 65.3686 41.2371 63.2785C47.0118 61.1871 49.675 57.6198 49.675 57.6198C49.675 57.6198 55.0928 59.4171 58.6765 54.3669C62.2589 49.314 59.9945 43.5559 56.8983 42.2529C53.8033 40.9498 50.1461 43.2032 50.1461 43.2032L52.9877 37.6929C52.9877 37.6929 40.698 9.85917 27.8419 26.954Z" fill="#E69786"/>
<path d="M50.6402 51.4777C50.4278 51.4777 50.2154 51.3782 50.0848 51.189C49.8669 50.8812 49.9405 50.4578 50.2482 50.2413L57.1269 45.3845C57.4305 45.1666 57.8609 45.2388 58.0759 45.5479C58.2923 45.8556 58.2189 46.2804 57.9125 46.4968L51.0325 51.3523C50.9139 51.4381 50.7751 51.4777 50.6402 51.4777Z" fill="black"/>
<path d="M56.8707 51.4477C56.8135 51.4477 56.7537 51.4396 56.6952 51.4259L52.2046 50.2264C51.8424 50.1296 51.6246 49.7553 51.7228 49.3931C51.8193 49.0309 52.1883 48.8157 52.556 48.9097L57.0464 50.1093C57.4087 50.2059 57.6265 50.5804 57.5284 50.9426C57.4481 51.2476 57.1731 51.4477 56.8707 51.4477Z" fill="black"/>
<path d="M40.4855 36.0644C40.2799 36.0644 40.077 35.9705 39.9422 35.7935C39.3513 35.0118 38.6881 34.568 37.9761 34.4714C36.9127 34.3339 36.0277 34.9982 36.0195 35.0037C35.724 35.2311 35.2951 35.1807 35.0651 34.8826C34.8349 34.5884 34.8853 34.1636 35.1807 33.9322C35.2338 33.8899 36.5137 32.9 38.1367 33.1193C39.2315 33.2595 40.2036 33.8831 41.0274 34.9724C41.2548 35.2706 41.1962 35.6981 40.8966 35.9255C40.7741 36.0182 40.6284 36.0644 40.4855 36.0644Z" fill="black"/>
<path d="M25.7749 34.7124C25.5775 34.7124 25.3814 34.6266 25.2452 34.4619C25.0097 34.1692 25.0546 33.7403 25.346 33.5033C26.2623 32.7612 27.1161 32.4617 27.8704 32.606C28.6914 32.768 29.0549 33.3917 29.0945 33.4611C29.2742 33.792 29.1544 34.2059 28.8249 34.387C28.4995 34.5627 28.0923 34.4537 27.9085 34.1337C27.8935 34.1092 27.7941 33.9716 27.5899 33.9404C27.3966 33.9036 26.9581 33.9486 26.2051 34.5613C26.0785 34.6634 25.926 34.7124 25.7749 34.7124Z" fill="black"/>
<path d="M26.7579 29.7071C26.7579 29.7071 27.8812 28.1917 31.6664 28.1998C35.4518 28.2067 37.6384 30.8931 37.6384 30.8931C37.6384 30.8931 37.9557 37.7555 43.0725 41.1867C48.1895 44.6179 50.1461 43.2032 50.1461 43.2032L53.8917 41.9056L56.679 36.4756L45.9824 24.74L33.1261 19.2528L26.7579 26.3345V29.7071Z" fill="black"/>
<path d="M32.267 54.8503C32.0232 54.8503 31.868 54.8366 31.8381 54.8326C31.4649 54.7931 31.1953 54.4595 31.2335 54.0878C31.2702 53.7134 31.6092 53.4369 31.9783 53.4792C32.0968 53.486 35.0433 53.7405 36.3149 51.0882C36.4797 50.7492 36.8854 50.6089 37.2245 50.7682C37.5635 50.933 37.7065 51.3387 37.5444 51.6777C36.1597 54.5602 33.3439 54.8503 32.267 54.8503Z" fill="black"/>
<path d="M26.2678 25.5257C26.2678 25.5257 31.6298 10.2854 50.6403 13.5464C69.6495 16.8074 63.291 40.9743 63.291 40.9743L54.6257 38.1612L26.2678 25.5257Z" fill="#7672CD"/>
<path d="M20.7383 24.4501C20.7383 24.4501 27.3937 24.6938 44.5402 32.6319C50.4509 35.3686 55.606 38.5657 55.606 38.5657C55.606 38.5657 35.8697 30.2749 28.1971 30.3689C25.2519 30.4056 23.3444 31.5085 23.3444 31.5085L20.7383 24.4501Z" fill="#5C5CBF"/>
<path d="M34.7587 78.2806C31.3792 78.2806 29.0073 77.7332 28.7936 77.6815C28.4273 77.5944 28.2026 77.2267 28.2898 76.8605C28.3755 76.4956 28.7418 76.2722 29.1095 76.3566C29.2225 76.3839 40.4501 78.96 49.1318 72.5306C49.4353 72.3073 49.8629 72.3713 50.0848 72.6709C50.3095 72.9745 50.2455 73.4006 49.9432 73.6239C44.8208 77.4174 38.9987 78.2806 34.7587 78.2806Z" fill="#46467B"/>
<path d="M34.5413 39.4143C34.8907 40.8294 35.8969 41.7978 36.7885 41.5775C37.6802 41.3572 38.1202 40.0317 37.7703 38.6166C37.421 37.2021 36.4148 36.2337 35.5231 36.454C34.6315 36.6742 34.1915 37.9998 34.5413 39.4143Z" fill="#11202D"/>
<path d="M24.858 39.0592C25.1607 40.3141 26.0368 41.1785 26.815 40.991C27.5931 40.8036 27.9791 39.635 27.6771 38.3801C27.3745 37.1258 26.4984 36.2608 25.7202 36.4483C24.9421 36.6363 24.556 37.8049 24.858 39.0592Z" fill="#11202D"/>
<path d="M31.7944 45.6163C30.2168 46.5416 27.8243 45.5372 28.5126 43.4749C28.7634 42.7248 27.582 42.4058 27.3337 43.15C26.9229 44.3795 27.3495 45.6944 28.3243 46.5283C29.4726 47.5109 31.1748 47.3974 32.4119 46.6724C33.0913 46.2734 32.4765 45.2161 31.7944 45.6163Z" fill="#11202D"/>
</g>
</svg>
