<svg width="240" height="178" viewBox="0 0 240 178" fill="none" xmlns="http://www.w3.org/2000/svg">
<circle cx="77.5868" cy="92.8358" r="20.4087" transform="rotate(-45 77.5868 92.8358)" stroke="#F5C042" stroke-width="2"/>
<g filter="url(#filter0_d_1_6310)">
<path d="M3.79028 10.9518C3.79028 5.42892 8.26744 0.951782 13.7903 0.951782H199.269C204.792 0.951782 209.269 5.42894 209.269 10.9518V150.81C209.269 156.333 204.792 160.81 199.269 160.81H13.7903C8.26744 160.81 3.79028 156.333 3.79028 150.81V10.9518Z" fill="url(#paint0_linear_1_6310)"/>
</g>
<g style="mix-blend-mode:soft-light" opacity="0.9">
<path d="M136.701 23.6242C136.701 27.8561 133.267 31.2872 129.035 31.2872C124.803 31.2872 121.368 27.8561 121.368 23.6242C121.368 19.392 124.803 15.9575 129.035 15.9575C133.267 15.9575 136.701 19.392 136.701 23.6242Z" fill="white"/>
</g>
<g style="mix-blend-mode:soft-light" opacity="0.9">
    <path d="M36.2783 23.6237C36.2783 29.2832 31.6889 33.8724 26.0294 33.8724C20.3676 33.8724 15.7787 29.2832 15.7787 23.6237C15.7787 17.9621 20.3676 13.3728 26.0294 13.3728C31.6889 13.3728 36.2783 17.9621 36.2783 23.6237Z" fill="white"/>
</g>
<g style="mix-blend-mode:soft-light" opacity="0.9">
<path d="M166.991 23.6242C166.991 27.8561 163.56 31.2872 159.324 31.2872C155.092 31.2872 151.661 27.8561 151.661 23.6242C151.661 19.392 155.092 15.9575 159.324 15.9575C163.56 15.9575 166.991 19.392 166.991 23.6242Z" fill="white"/>
</g>
<g style="mix-blend-mode:soft-light" opacity="0.9">
<path d="M197.28 23.6242C197.28 27.8561 193.849 31.2872 189.617 31.2872C185.382 31.2872 181.951 27.8561 181.951 23.6242C181.951 19.392 185.382 15.9575 189.617 15.9575C193.849 15.9575 197.28 19.392 197.28 23.6242Z" fill="white"/>
</g>
<defs>
<filter id="filter0_d_1_6310" x="0.290283" y="0.951782" width="212.479" height="168.358" filterUnits="userSpaceOnUse" color-interpolation-filters="sRGB">
<feFlood flood-opacity="0" result="BackgroundImageFix"/>
<feColorMatrix in="SourceAlpha" type="matrix" values="0 0 0 0 0 0 0 0 0 0 0 0 0 0 0 0 0 0 127 0" result="hardAlpha"/>
<feOffset dy="5"/>
<feGaussianBlur stdDeviation="1.75"/>
<feComposite in2="hardAlpha" operator="out"/>
<feColorMatrix type="matrix" values="0 0 0 0 0.32549 0 0 0 0 0.666667 0 0 0 0 0.909804 0 0 0 0.364706 0"/>
<feBlend mode="normal" in2="BackgroundImageFix" result="effect1_dropShadow_1_6310"/>
<feBlend mode="normal" in="SourceGraphic" in2="effect1_dropShadow_1_6310" result="shape"/>
</filter>
<linearGradient id="paint0_linear_1_6310" x1="278.81" y1="-73.7144" x2="-284.044" y2="-73.7144" gradientUnits="userSpaceOnUse">
<stop stop-color="#1C415B"/>
<stop offset="0.0573739" stop-color="#1C415B"/>
<stop offset="0.544328" stop-color="#53AAE8"/>
<stop offset="1" stop-color="#A6CCDF"/>
</linearGradient>
<linearGradient id="paint1_linear_1_6310" x1="-53.9558" y1="308.547" x2="-44.9114" y2="308.547" gradientUnits="userSpaceOnUse">
<stop stop-color="#D8EEF9"/>
<stop offset="1" stop-color="#F8E7D8"/>
</linearGradient>
<linearGradient id="paint2_linear_1_6310" x1="-61.2027" y1="309.908" x2="-48.8228" y2="309.908" gradientUnits="userSpaceOnUse">
<stop stop-color="#D8EEF9"/>
<stop offset="1" stop-color="#F8E7D8"/>
</linearGradient>
<linearGradient id="paint3_linear_1_6310" x1="-82.2706" y1="359.713" x2="-72.8135" y2="359.713" gradientUnits="userSpaceOnUse">
<stop stop-color="#D8EEF9"/>
<stop offset="1" stop-color="#F8E7D8"/>
</linearGradient>
<linearGradient id="paint4_linear_1_6310" x1="-86.315" y1="305.814" x2="-89.8471" y2="305.814" gradientUnits="userSpaceOnUse">
<stop stop-color="#D8EEF9"/>
<stop offset="1" stop-color="#F8E7D8"/>
</linearGradient>
<linearGradient id="paint5_linear_1_6310" x1="-92.3439" y1="310.051" x2="-78.7455" y2="310.051" gradientUnits="userSpaceOnUse">
<stop stop-color="#D8EEF9"/>
<stop offset="1" stop-color="#F8E7D8"/>
</linearGradient>
<linearGradient id="paint6_linear_1_6310" x1="-84.2531" y1="316.458" x2="-91.2505" y2="316.458" gradientUnits="userSpaceOnUse">
<stop stop-color="#D8EEF9"/>
<stop offset="1" stop-color="#D8C9BC"/>
</linearGradient>
<linearGradient id="paint7_linear_1_6310" x1="-84.4627" y1="313.277" x2="-87.9632" y2="313.277" gradientUnits="userSpaceOnUse">
<stop stop-color="#D8EEF9"/>
<stop offset="1" stop-color="#F8E7D8"/>
</linearGradient>
<linearGradient id="paint8_linear_1_6310" x1="-73.4351" y1="327.132" x2="-67.9545" y2="327.132" gradientUnits="userSpaceOnUse">
<stop stop-color="#D8EEF9"/>
<stop offset="1" stop-color="#D8C9BC"/>
</linearGradient>
<linearGradient id="paint9_linear_1_6310" x1="190.19" y1="135.603" x2="190.19" y2="135.603" gradientUnits="userSpaceOnUse">
<stop stop-color="#D8EEF9"/>
<stop offset="1" stop-color="#F8E7D8"/>
</linearGradient>
<linearGradient id="paint10_linear_1_6310" x1="-74.6393" y1="360.413" x2="-65.1029" y2="360.413" gradientUnits="userSpaceOnUse">
<stop stop-color="#D8EEF9"/>
<stop offset="1" stop-color="#F8E7D8"/>
</linearGradient>
<linearGradient id="paint11_linear_1_6310" x1="201.15" y1="113.543" x2="201.15" y2="113.543" gradientUnits="userSpaceOnUse">
<stop stop-color="#D8EEF9"/>
<stop offset="1" stop-color="#F8E7D8"/>
</linearGradient>
<linearGradient id="paint12_linear_1_6310" x1="-76.7349" y1="333.956" x2="-72.3618" y2="333.956" gradientUnits="userSpaceOnUse">
<stop stop-color="#D8EEF9"/>
<stop offset="1" stop-color="#D8C9BC"/>
</linearGradient>
<linearGradient id="paint13_linear_1_6310" x1="-63.2541" y1="2.58755e+09" x2="-63.2541" y2="2.58755e+09" gradientUnits="userSpaceOnUse">
<stop stop-color="#D8EEF9"/>
<stop offset="1" stop-color="#F8E7D8"/>
</linearGradient>
<linearGradient id="paint14_linear_1_6310" x1="-72.5013" y1="343.51" x2="-75.602" y2="343.51" gradientUnits="userSpaceOnUse">
<stop stop-color="#D8EEF9"/>
<stop offset="1" stop-color="#F8E7D8"/>
</linearGradient>
<linearGradient id="paint15_linear_1_6310" x1="-64.3412" y1="342.131" x2="-59.6921" y2="342.131" gradientUnits="userSpaceOnUse">
<stop stop-color="#142244"/>
<stop offset="1" stop-color="#183F6A"/>
</linearGradient>
<linearGradient id="paint16_linear_1_6310" x1="-55.3927" y1="342.001" x2="-52.7904" y2="342.001" gradientUnits="userSpaceOnUse">
<stop stop-color="#142244"/>
<stop offset="1" stop-color="#183F6A"/>
</linearGradient>
<linearGradient id="paint17_linear_1_6310" x1="-70.9379" y1="354.071" x2="-67.0408" y2="354.071" gradientUnits="userSpaceOnUse">
<stop stop-color="#D8EEF9"/>
<stop offset="1" stop-color="#F8E7D8"/>
</linearGradient>
</defs>
</svg>
