<svg width="81" height="110" viewBox="0 0 81 110" fill="none" xmlns="http://www.w3.org/2000/svg">
<path d="M39.9472 30.0942C18.0733 30.0942 0.341064 47.8265 0.341064 69.7003C0.341064 91.5741 18.0733 109.306 39.9472 109.306C61.8211 109.306 79.5534 91.5741 79.5534 69.7003C79.5534 47.8265 61.8211 30.0942 39.9472 30.0942Z" fill="#DBE7ED"/>
<mask id="mask0_1_6309" style="mask-type:alpha" maskUnits="userSpaceOnUse" x="0" y="0" width="81" height="110">
<path d="M39.9472 0.880859C-0.474388 1.79221 0.34107 46.5457 0.34107 68.8752C0.34107 91.2047 18.0733 109.306 39.9472 109.306C61.8211 109.306 79.5534 91.2047 79.5534 68.8752C79.5534 46.5457 88.6523 1.24548 39.9472 0.880859Z" fill="white"/>
</mask>
<g mask="url(#mask0_1_6309)">
<path d="M27.7673 99.9347C26.2863 101.627 24.8669 103.183 23.5085 104.603C16.2766 112.17 8.21686 118.901 -0.518188 124.669C-1.82843 123.71 -3.01959 122.597 -4.06622 121.356C-5.7049 119.466 -6.99438 117.3 -7.87439 114.958C-4.18463 111.053 -0.390015 107.227 3.50922 103.483C8.54413 98.6462 13.7277 93.9621 19.059 89.4303L27.7673 99.9347Z" fill="url(#paint0_linear_1_6309)"/>
<path d="M23.5968 85.7712L29.627 97.5546L23.5968 104.035C21.2783 103.199 19.3229 101.581 18.0687 99.4586C16.8598 97.5143 16.4354 95.1828 16.8819 92.9371C17.215 91.2834 18.0157 89.7601 19.1889 88.5481C20.3989 87.2635 21.9159 86.308 23.5968 85.7712Z" fill="#3B302F"/>
<path d="M39.2236 82.7692C40.8019 85.0371 41.1775 87.6405 40.35 90.5791C39.5229 93.5178 37.7363 95.9371 34.99 97.837C32.2564 99.7412 29.3631 100.558 26.3105 100.287C23.2577 100.016 20.957 98.7593 19.4081 96.5168C17.8338 94.2467 17.4626 91.636 18.2943 88.6847C19.1255 85.7332 20.9029 83.317 23.6258 81.4364C26.3763 79.5323 29.2682 78.7156 32.3022 78.9862C35.3358 79.2571 37.6428 80.518 39.2236 82.7692Z" fill="url(#paint1_linear_1_6309)"/>
<path d="M38.354 85.984C40.2393 86.4069 41.4725 87.3506 42.0545 88.8148C42.6362 90.2789 42.3846 91.8085 41.2993 93.4037C40.2265 95.0178 38.6314 96.2493 36.5137 97.0975C34.3957 97.9459 32.3923 98.1437 30.5028 97.6909C28.5987 97.2509 27.3612 96.3137 26.7898 94.8793C26.2186 93.4449 26.4748 91.9089 27.5578 90.2715C28.6305 88.655 30.2173 87.43 32.3181 86.5965C34.4189 85.7628 36.4308 85.5586 38.354 85.984Z" fill="#3B302F"/>
<path d="M63.0981 80.2715C64.4223 81.2164 65.6155 82.3328 66.6456 83.5911C71.8969 90.1096 72.3097 100.181 67.8835 113.806C65.4787 121.205 62.2445 128.308 58.2425 134.98C56.221 136.463 53.8698 137.435 51.3908 137.814C49.0611 138.176 46.6797 138.035 44.4091 137.398C43.0054 130.94 42.4939 124.319 42.8891 117.722C43.6061 105.944 47.2526 96.1898 53.828 88.4592C56.5198 85.3098 59.6399 82.5535 63.0981 80.2715Z" fill="#3B302F"/>
<path d="M18.7416 129.845C18.3367 131.339 18.135 132.88 18.1418 134.427C18.1024 136.828 18.7639 139.189 20.046 141.219C20.5755 142.002 21.1953 142.72 21.893 143.358C22.2429 142.435 22.7938 141.601 23.5053 140.918C24.7175 139.754 26.3762 139.158 28.4812 139.131C29.7176 139.143 30.9491 139.292 32.1528 139.575C34.06 140.075 35.8229 141.015 37.3005 142.32C39.5551 142.665 41.8409 142.765 44.1174 142.619C47.5028 142.419 50.8331 141.669 53.9771 140.397C54.3746 134.681 55.9646 129.111 58.6453 124.047C59.8696 121.761 61.3277 119.609 62.9963 117.624C59.2598 111.014 57.1148 104.714 56.5605 98.7224C55.9893 92.6166 57.2059 87.8055 60.21 84.2891C61.4591 82.8136 62.9927 81.6047 64.7197 80.7349L63.7677 78.6436C59.6432 77.4179 55.3746 76.7466 51.0733 76.6474C44.4218 76.4761 38.4429 77.8428 33.1369 80.7478C31.2153 81.759 29.4068 82.9718 27.7418 84.3654L22.7243 99.3761C20.9979 104.331 19.0201 109.195 16.7996 113.949C14.739 118.404 15.6096 121.544 19.4114 123.368L18.7416 129.845Z" fill="url(#paint2_linear_1_6309)"/>
<path d="M48.0651 77.4757C49.3128 77.6234 50.5333 77.9437 51.6924 78.4277L34.5714 93.4289C34.5659 91.5748 34.7476 89.7246 35.114 87.9071C35.6133 85.5029 36.4265 83.1748 37.5323 80.9823C38.6702 80.0432 39.9311 79.2638 41.2802 78.6658C43.3947 77.6691 45.7375 77.2581 48.0651 77.4757Z" fill="#3B302F"/>
<path d="M62.6092 79.3861L61.127 80.4175C60.5873 80.8264 60.0834 81.2797 59.6199 81.7725C59.3223 82.0674 59.0435 82.38 58.785 82.7088C58.6133 82.95 58.3439 83.3233 57.9758 83.8291C57.3974 84.6942 56.9241 85.6253 56.5668 86.6025C56.1647 87.6945 55.862 88.8202 55.6623 89.9666C55.4634 91.1913 55.3575 92.4294 55.3445 93.6701C55.3382 94.9553 55.4106 96.2398 55.5606 97.5164L55.821 99.4205C55.9954 100.477 56.1125 101.109 56.1728 101.325C56.3845 102.383 56.6741 103.595 57.0427 104.961C57.563 106.722 57.9107 107.841 58.0865 108.319C58.356 109.176 58.7215 110.16 59.1435 111.277C59.8522 113.136 60.456 114.588 60.9553 115.631C61.2305 116.266 61.4717 116.773 61.6789 117.154L60.8449 115.672C60.1187 114.235 59.4628 112.805 58.8766 111.382C57.9996 109.331 57.244 107.231 56.6141 105.092C56.1783 103.507 55.8703 102.281 55.6906 101.413C55.5323 100.573 55.4047 99.9409 55.3165 99.5092L55.0529 97.5481C54.9059 96.2546 54.8471 94.9525 54.8748 93.651C54.8964 92.384 55.0154 91.1204 55.2304 89.8714C55.4319 88.697 55.7629 87.5484 56.2173 86.4472C56.6396 85.4729 57.1493 84.5391 57.7411 83.6577C57.8738 83.4694 58.1607 83.1023 58.601 82.5564C58.8697 82.217 59.1647 81.8986 59.4831 81.6043C59.9819 81.1372 60.5119 80.7043 61.0699 80.3096L62.6092 79.3861Z" fill="#6894B2"/>
<path d="M52.6954 78.4817L60.7084 79.5543C59.6781 80.1517 58.7352 80.8886 57.9064 81.7438C55.579 84.1094 54.222 87.0872 53.8347 90.6774L41.4197 88.8177C42.6509 87.633 44.0817 86.2885 45.7106 84.7841C48.1986 82.4907 50.527 80.3898 52.6954 78.4817Z" fill="white"/>
<path d="M60.6449 80.0177C59.604 80.8602 58.663 81.8185 57.8391 82.874C55.8388 85.4928 54.5432 88.5804 54.0756 91.8423C53.7249 94.0314 53.6645 96.2572 53.8948 98.4622C53.4123 97.3453 53.0711 96.1728 52.8792 94.9713C52.1091 90.2988 53.7647 85.555 57.2744 82.3756C58.2694 81.4207 59.4069 80.6254 60.6449 80.0177Z" fill="white"/>
<path d="M64.6118 83.3181C65.3877 82.6762 66.2407 82.1336 67.1505 81.7028C65.6616 84.4804 64.8662 87.5768 64.831 90.7283C64.6536 90.9487 64.4389 91.1366 64.1963 91.2837C63.7811 91.5542 63.3084 91.7237 62.8157 91.7787C62.1134 91.8839 61.396 91.7403 60.7877 91.3726C60.7776 89.9691 61.0611 88.5789 61.6193 87.2914C62.2857 85.7471 63.3118 84.3848 64.6118 83.3181Z" fill="white"/>
<path d="M73.2563 101.918C73.6794 103.809 74.0879 105.878 74.4813 108.125C76.2399 118.442 76.855 128.921 76.3159 139.372C74.7693 139.851 73.1711 140.144 71.5554 140.245C69.0569 140.431 66.5447 140.18 64.1326 139.502C63.2462 134.57 62.4271 129.238 61.6765 123.504C60.8046 116.734 60.1311 109.784 59.655 102.654L73.2563 101.918Z" fill="url(#paint3_linear_1_6309)"/>
<path d="M59.7657 96.9738L72.8501 99.1285L74.4369 107.814C72.1896 109.29 69.4859 109.907 66.8203 109.554C64.2248 109.209 62.2031 108.105 60.7557 106.243C59.5328 104.638 58.9818 102.65 59.1028 100.281C59.1587 99.1514 59.3818 98.037 59.7657 96.9738Z" fill="#3B302F"/>
<path d="M68.9977 83.1785C71.7351 83.5277 73.9174 84.9937 75.5446 87.5769C77.1715 90.1603 77.7808 93.0999 77.3726 96.3961C76.9491 99.7029 75.6209 102.403 73.3865 104.495C71.1525 106.587 68.6721 107.459 65.9449 107.11C63.222 106.763 61.0405 105.297 59.4011 102.712C57.7611 100.126 57.1593 97.1799 57.5955 93.8733C58.0184 90.5791 59.3398 87.8859 61.5592 85.7935C63.7782 83.7013 66.2581 82.8294 68.9977 83.1785Z" fill="url(#paint4_linear_1_6309)"/>
<path d="M67.7534 88.8813C69.0483 87.4384 70.4736 86.8153 72.0283 87.0121C73.5837 87.2089 74.798 88.1693 75.6717 89.8936C76.5559 91.6328 76.8561 93.6257 76.5728 95.8725C76.2891 98.1193 75.4979 99.9726 74.1988 101.433C72.9045 102.875 71.4879 103.5 69.9499 103.305C68.4117 103.11 67.1888 102.146 66.281 100.411C65.3928 98.6674 65.0922 96.6743 65.38 94.4318C65.6673 92.189 66.4587 90.3391 67.7534 88.8813Z" fill="url(#paint5_linear_1_6309)"/>
<path d="M67.0394 91.912C67.6743 91.1777 68.3636 90.8605 69.1086 90.9599C69.8607 91.0582 70.448 91.5376 70.8699 92.4069C71.6874 94.3217 71.406 96.5285 70.1335 98.1765C69.499 98.9085 68.8094 99.2258 68.0647 99.1284C67.32 99.0312 66.7336 98.5488 66.3064 97.6815C65.4527 95.7721 65.7369 93.5458 67.0422 91.912H67.0394Z" fill="url(#paint6_linear_1_6309)"/>
<path d="M72.8185 117.719L72.8601 117.931C73.1875 120.299 73.3992 122.043 73.4943 123.165C73.7063 125.109 73.8522 126.859 73.9323 128.414L74.0846 131.051C74.1144 131.641 74.1333 132.518 74.1418 133.682V138.943L73.8243 133.694C73.8055 132.841 73.7642 131.965 73.6974 131.06L73.4788 128.449C73.3345 126.566 73.172 124.822 72.9899 123.219L72.4026 118.22L69.8323 118.512L68.2107 107.681L70.2352 118.011L72.8185 117.719Z" fill="#6894B2"/>
<path d="M45.9354 61.1765C46.0288 62.541 46.2053 64.0748 46.4658 65.778C47.2056 70.3485 48.5127 74.809 50.3564 79.0562C49.9791 79.5049 49.5323 79.8905 49.0331 80.1984C48.1108 80.7722 47.0407 81.0634 45.9545 81.0362C45.0009 77.9262 43.5343 73.2336 41.5561 66.9586L39.8966 61.8303L45.9354 61.1765Z" fill="url(#paint7_linear_1_6309)"/>
<path d="M30.6359 60.6784C28.8315 61.4052 27.2331 62.5634 25.9802 64.0518C30.0277 70.822 32.3921 74.8522 33.0735 76.1428C34.4559 78.768 35.5515 81.5343 36.3419 84.394C36.0767 85.1732 35.9246 85.9865 35.8913 86.8091C35.8623 87.8415 36.0303 88.8701 36.3867 89.8397C37.65 89.2951 38.8645 88.6431 40.017 87.8912C42.7712 86.0293 45.0909 83.5948 46.8179 80.7541L44.9901 75.6574C43.3776 71.024 41.811 66.2638 40.29 61.3766C38.8958 61.7573 37.3861 61.5669 35.7612 60.8054C34.1493 60.0334 32.2841 59.9872 30.6359 60.6784Z" fill="url(#paint8_linear_1_6309)"/>
<path d="M36.8911 60.6275C37.6547 60.0999 38.5389 59.7726 39.4617 59.6754C41.2261 59.4216 43.3019 59.7199 45.6882 60.5704L45.9865 64.6611C45.5854 65.1795 45.0834 65.6113 44.5105 65.9305C43.7537 66.3685 42.8939 66.5985 42.0194 66.5968C41.6711 67.8709 41.1304 69.0844 40.4171 70.1956C38.8283 72.6478 36.5333 74.3678 33.5336 75.3558L26.1998 64.2135L27.4434 64.0423C31.7787 64.9434 34.2117 64.8378 34.7427 63.7248C35.5172 62.1232 36.2331 61.0908 36.8911 60.6275Z" fill="#3B302F"/>
<path d="M40.3978 65.3148C40.7156 66.0383 41.1691 67.1343 41.7596 68.6026L43.0922 72.0141L41.975 73.1185L43.562 77.317L45.0729 77.2059L46.1929 80.2716L46.2911 80.4907L46.0692 80.5698C45.5698 80.7418 45.0963 80.9799 44.6599 81.2776L44.0444 81.76C43.8568 81.9454 43.6795 82.1415 43.5145 82.3471C42.8466 83.1797 42.3843 84.1584 42.166 85.2032V85.2509L42.1211 85.2794L39.8999 87.0374L41.9847 85.1111C42.1334 84.0253 42.561 82.9966 43.2255 82.1248C43.3912 81.8997 43.5734 81.6874 43.7715 81.4903L44.0888 81.1888L44.4283 80.9317C44.8193 80.6411 45.2458 80.4023 45.6979 80.2209L44.7457 77.7201L43.1907 77.8597L43.1428 77.6788L41.5182 73.1343L41.4515 73.001L41.5564 72.9153L42.6416 71.8998L40.3978 65.3148Z" fill="#6894B2"/>
<path d="M25.4953 61.6685C23.6102 57.3102 26.7951 56.2132 35.0504 58.3775L40.9183 62.6744C40.4945 63.8197 39.9497 64.9165 39.2935 65.9464C37.4088 68.8595 34.7217 71.165 31.5566 72.5853C29.4026 69.6784 27.3823 66.0394 25.4953 61.6685Z" fill="#3B302F"/>
<path d="M32.2196 19.9051C31.6037 18.5034 31.417 16.9507 31.6834 15.443C32.0894 13.3549 33.3718 11.6708 35.5296 10.3909C37.2996 9.32556 39.3057 8.71501 41.369 8.61372C42.5946 8.54138 43.8242 8.63532 45.0247 8.89294C46.6391 9.26739 47.6261 9.90216 47.9857 10.7971C48.4702 12.0791 47.7795 13.7389 45.9135 15.7763C44.1853 17.647 42.1449 19.2031 39.8838 20.3747C37.9365 21.3697 35.8379 22.0357 33.6734 22.3455C33.0855 21.5981 32.5968 20.7779 32.2196 19.9051Z" fill="#2D1A1A"/>
<path d="M52.9044 26.817C52.1327 27.3407 51.2834 27.7411 50.3879 28.0039C48.9586 28.3882 47.4506 28.3651 46.034 27.9373C44.5808 27.5151 43.2664 26.7132 42.2261 25.6142L42.1815 21.4887L55.5577 17.9819C56.2305 19.4394 56.387 21.0823 56.002 22.6407C55.5746 24.3459 54.5421 25.738 52.9044 26.817Z" fill="#876F6E"/>
<path d="M43.3337 23.7735L41.5815 20.9173L55.6813 11.3016C57.0358 12.7614 57.6786 14.1609 57.611 15.5002C57.5158 17.4403 56.1734 19.1962 53.5838 20.7682C50.8652 22.4142 47.4485 23.416 43.3337 23.7735Z" fill="#3B302F"/>
<path d="M49.2298 11.162C49.1408 10.4925 48.9649 9.83746 48.7062 9.21352C48.264 8.15567 47.6557 7.47868 46.8815 7.1825C45.794 6.75935 44.5373 7.1338 43.1111 8.30591C41.8349 9.33429 40.8156 10.6457 40.1345 12.1364C39.4291 13.7295 39.1951 15.4918 39.4616 17.2139C39.5829 18.228 39.8514 19.219 40.2584 20.1558L34.4253 20.4319C33.5405 18.6659 33.0158 16.7412 32.8829 14.7703C32.6992 10.2893 33.9029 6.8154 36.4944 4.34851C38.4951 2.46118 41.0588 1.28084 43.7935 0.987748C46.8401 0.606942 49.2625 1.27232 51.0606 2.98391C52.7175 4.577 53.55 6.85133 53.5584 9.80699L49.2298 11.162Z" fill="#3B302F"/>
<path d="M38.2654 20.0002C39.3419 17.8171 40.6907 15.7793 42.2798 13.9356C45.631 10.0237 49.8732 7.13902 55.0058 5.28149C56.3851 5.75319 57.3541 6.54559 57.9125 7.6584C58.366 8.58249 58.4913 9.63351 58.2679 10.6383C58.1616 11.1475 57.9829 11.6391 57.7382 12.0982C55.6053 13.1771 53.5512 14.4052 51.5913 15.7731C48.5178 17.9332 45.6984 20.4339 43.1876 23.2277L38.2654 20.0002Z" fill="#564745"/>
<path d="M45.7611 17.9502C46.3126 17.4213 46.8956 16.9264 47.5067 16.4682C48.0594 16.0535 48.6345 15.67 49.2299 15.3193L48.3192 13.7992L48.4875 13.6564C50.0012 12.3627 51.7382 11.3551 53.6122 10.6829L53.7714 10.6384L53.86 10.7653L54.6819 12.3236L57.9824 11.0541L54.5231 12.7234L54.46 12.5902L53.6122 11.1081C52.766 11.4522 51.9505 11.8684 51.175 12.3522C50.4106 12.8139 49.6802 13.3293 48.9888 13.8944L49.8867 15.4812L49.6678 15.605C49.0098 15.9733 48.374 16.3803 47.7638 16.8236C46.8961 17.4583 46.3005 17.9153 45.9771 18.1945C45.5011 18.5881 44.9423 19.1021 44.3079 19.7368C43.9628 20.0648 43.452 20.6191 42.7749 21.3998C43.1965 20.7709 43.6555 20.1679 44.149 19.5941C44.6556 19.0165 45.1935 18.4677 45.7611 17.9502Z" fill="#2D1A1A"/>
<path d="M30.5885 24.4909C30.8783 22.5868 31.6854 21.1005 33.0101 20.0321C34.5608 18.7627 36.4576 18.2623 38.7002 18.531C40.9427 18.7997 42.611 19.7316 43.7049 21.3269C44.6507 22.7656 44.8882 24.5173 44.4188 26.5822L30.5885 24.4909Z" fill="url(#paint9_linear_1_6309)"/>
<path d="M24.4761 25.3222C26.4354 24.2178 28.6298 23.5976 30.8773 23.5133L18.862 33.5955L17.8721 33.2147C18.3229 31.9795 18.9286 30.8066 19.6747 29.7238C20.9188 27.9098 22.5611 26.4041 24.4761 25.3222Z" fill="#3B302F"/>
<path d="M16.8915 34.9919C19.2971 30.8006 22.3837 27.5954 26.1519 25.3761C29.9198 23.1568 33.712 22.3211 37.5289 22.869C39.1405 23.1076 40.7156 23.549 42.216 24.1829C45.0553 25.393 47.2388 27.1236 48.7664 29.3748C49.7213 30.815 50.4431 32.3969 50.9055 34.062C51.2189 35.226 51.4576 36.409 51.6191 37.6036C51.8837 39.4631 51.9346 41.3465 51.7719 43.2176C48.2028 43.9429 44.5541 44.2022 40.9179 43.9887C32.3135 43.4809 24.3049 40.482 16.8915 34.9919Z" fill="#4D9FEE"/>
<path d="M51.1878 39.6125C52.0803 40.7184 52.8271 41.9342 53.4095 43.2303C54.4617 45.4815 54.9354 47.9599 54.7866 50.4406C54.5243 54.346 53.1385 57.5006 50.6292 59.904C48.0613 62.3201 45.3678 63.4604 42.5495 63.325C41.5455 63.2699 40.5573 63.0557 39.6203 62.6903C38.9778 61.3485 38.517 59.9269 38.2492 58.4632C37.7403 55.9588 37.839 53.3685 38.5379 50.9103C39.5962 47.2162 41.5542 44.3443 44.4125 42.2942C46.4132 40.851 48.7419 39.9294 51.1878 39.6125Z" fill="url(#paint10_linear_1_6309)"/>
<path d="M46.7792 43.9888C47.9538 42.3618 49.1792 41.6403 50.4546 41.8245C51.7305 42.0084 52.6928 43.0441 53.3429 44.9313C53.99 46.8355 54.1319 49.0388 53.7676 51.5417C53.404 54.0445 52.6434 56.1041 51.4858 57.7206C50.3306 59.3644 49.1142 60.0932 47.8363 59.9072C46.5588 59.721 45.595 58.6779 44.9454 56.778C44.3107 54.893 44.17 52.6969 44.5235 50.1898C44.8769 47.6828 45.6288 45.6157 46.7792 43.9888Z" fill="#98A8B4"/>
<path d="M46.5132 45.4835C47.4399 44.119 48.4218 43.5075 49.4584 43.6493C50.4951 43.7909 51.2608 44.6499 51.756 46.2261C52.2682 47.8001 52.3735 49.625 52.0731 51.7004C51.8494 53.5384 51.2141 55.3023 50.2136 56.8606C49.274 58.2252 48.2925 58.8356 47.2689 58.6916C46.2443 58.5478 45.4786 57.6888 44.9705 56.1147C44.4631 54.3342 44.3624 52.4622 44.6755 50.6372C44.9719 48.5619 45.5844 46.8439 46.5132 45.4835Z" fill="url(#paint11_linear_1_6309)"/>
<path d="M50.6322 33.2783C51.24 33.0514 51.8984 32.9944 52.5368 33.1132C53.024 33.2128 53.4883 33.4045 53.9044 33.6782C54.3259 33.9357 54.658 34.3169 54.8564 34.7698C55.1377 35.468 54.9855 36.3025 54.3996 37.2737C53.9427 37.9947 53.4108 38.6648 52.8126 39.273C51.2573 40.9655 49.189 42.108 46.608 42.7004L45.9738 40.3235C46.9008 40.0642 47.7886 39.6821 48.6138 39.1873C49.6307 38.5904 50.5499 37.8411 51.3398 36.9658C52.1207 36.1408 52.4246 35.6119 52.2505 35.3791C52.1367 35.2395 51.8034 35.2522 51.2451 35.4235L50.6322 33.2783Z" fill="#3B302F"/>
<path d="M43.14 42.3037C43.9312 41.8997 44.8079 41.4987 45.7704 41.101L46.4817 40.8185L47.1161 42.6559C45.6098 44.9349 44.5453 47.4765 43.9778 50.1486C43.2608 53.5377 43.3418 57.047 44.2156 60.3991C43.4463 60.9551 42.5511 61.3106 41.61 61.4337C40.8534 61.543 40.0828 61.5042 39.3409 61.3194C38.1709 58.3554 37.7351 55.1519 38.0717 51.9829C38.1928 50.4652 38.4679 48.9639 38.8935 47.5019C39.4411 45.7556 40.4735 44.2005 41.8704 43.0179C42.2681 42.7372 42.6934 42.4979 43.14 42.3037Z" fill="#3B302F"/>
<path d="M42.4097 45.4073C43.4406 44.6826 44.6145 44.187 45.8531 43.9539C45.1977 44.6989 44.4922 45.3987 43.7427 46.0484C43.3393 46.4324 42.8794 46.8322 42.3557 47.2448C40.5369 50.6575 39.3461 54.3691 38.8397 58.2029C38.1327 55.6834 38.1945 53.0103 39.0173 50.5262C39.2952 49.693 39.6412 48.8843 40.0519 48.1079C40.6403 47.0527 41.4435 46.1326 42.4097 45.4073Z" fill="#1D496A"/>
<path d="M19.3766 30.476C21.0475 29.3215 22.9642 28.5709 24.9743 28.2831C27.1422 27.967 29.3547 28.2162 31.3976 29.0067C32.5212 29.4135 33.5794 29.9812 34.5395 30.6918L34.2889 33.8652C34.8135 34.8559 35.7188 35.5902 36.7958 35.8995L39.9536 35.4679L42.0988 39.8505L46.2243 39.9013C46.6356 40.1525 46.9579 40.5266 47.1447 40.9708C47.4569 41.6933 47.4486 42.5141 47.1224 43.2303L42.2133 47.1909C41.3266 48.2857 40.6216 49.5159 40.1248 50.8341C39.3804 52.7963 39.0728 54.8974 39.2236 56.9907C39.3272 58.3359 39.5941 59.6636 40.0167 60.9449C40.1344 61.6039 40.1344 62.2787 40.0171 62.9378C39.8712 63.8069 39.5051 64.6242 38.9537 65.3116C38.057 66.5743 36.9887 67.7064 35.7803 68.6755C32.9259 71.0165 29.4552 72.4823 25.7871 72.8963C25.2376 72.9776 24.6765 72.8901 24.1782 72.6456C23.6837 72.4078 23.2779 72.0188 23.0195 71.5348C22.0347 69.7972 20.9217 68.135 19.6907 66.562C18.671 65.2777 17.9843 64.369 17.6311 63.8359C16.8407 62.678 16.1989 61.4252 15.7207 60.1071C15.427 59.2661 15.253 58.3879 15.2033 57.4984C15.1847 56.9473 15.2357 56.3959 15.3557 55.8577C15.5038 55.1024 15.5958 54.5661 15.6317 54.2488C15.7357 53.0755 15.6282 51.8931 15.3143 50.7579C15.1009 50.1027 14.9243 49.4364 14.7845 48.7617C14.327 46.3841 14.2342 43.9508 14.5084 41.5452C14.8075 38.5088 15.594 35.5406 16.8376 32.7545C17.5881 31.8947 18.4409 31.1295 19.3766 30.476Z" fill="url(#paint12_linear_1_6309)"/>
<path d="M49.0264 51.5386C48.9287 52.3718 48.6448 53.1724 48.1948 53.8807C47.7637 54.5154 47.316 54.785 46.8531 54.7216C46.3891 54.6582 46.0406 54.2678 45.8019 53.5474C45.3586 51.9073 45.6137 50.1566 46.507 48.711C46.9298 48.089 47.3775 47.8088 47.8493 47.8701C48.3209 47.9314 48.6709 48.3227 48.8997 49.0444C49.13 49.8554 49.173 50.7082 49.0264 51.5386Z" fill="url(#paint13_linear_1_6309)"/>
<path d="M19.8178 58.8375C20.0332 58.4345 20.2037 58.0088 20.3252 57.5682L21.2999 56.2639C22.2058 56.6471 23.0889 57.0837 23.9435 57.5714L25.0378 58.2061C25.1719 58.361 25.2789 58.5369 25.3555 58.7264C25.6123 59.3164 25.5925 59.9902 25.3014 60.5641C24.7152 60.6809 24.1564 60.9081 23.6547 61.2336C23.4312 61.3885 23.2188 61.5594 23.0199 61.7445C22.8596 61.8839 22.6744 61.9916 22.4741 62.0619C22.0802 62.1635 21.5664 62.0619 20.9253 61.7445C20.519 61.558 20.1448 61.3071 19.8178 61.0018C19.399 60.5894 19.2148 60.199 19.2593 59.8341C19.2806 59.7092 19.3284 59.5901 19.399 59.485C19.5894 59.1972 19.7289 58.9814 19.8178 58.8375Z" fill="#6894B2"/>
<path d="M20.157 58.3807C20.0451 58.7029 19.8891 59.0081 19.694 59.2883C19.4815 59.516 19.3676 59.8181 19.3766 60.1293C19.4441 60.4309 19.5873 60.7105 19.7924 60.9417C20.0175 61.168 20.2729 61.3623 20.5507 61.5193C20.8247 61.6886 21.119 61.8218 21.4268 61.9159C21.7225 62.0192 22.031 62.0801 22.3436 62.0969C22.7691 61.7657 23.2251 61.4756 23.7052 61.2304L25.2189 60.6275C25.5142 60.2006 25.5896 59.659 25.4221 59.1677C25.5336 59.4119 25.5788 59.6812 25.5521 59.9484C25.5321 60.219 25.4465 60.4804 25.3013 60.71L25.2824 60.7353H25.2605L23.8006 61.4018C23.3212 61.6874 22.8706 61.9826 22.4422 62.2904L22.4232 62.3189H22.3756C22.0253 62.3139 21.6785 62.2583 21.3444 62.1539C21.0254 62.0382 20.7157 61.8992 20.4176 61.7382C20.1256 61.5509 19.8589 61.3268 19.6241 61.0718C19.3738 60.8116 19.2132 60.4778 19.1669 60.1197C19.1314 59.9376 19.1642 59.7491 19.2591 59.5898C19.3313 59.4342 19.4217 59.2883 19.529 59.1549C19.7291 58.897 19.8958 58.6143 20.0241 58.314C20.2716 57.7008 20.3977 57.0456 20.3954 56.3845C20.4563 57.0592 20.3753 57.7392 20.157 58.3807Z" fill="#6894B2"/>
<path d="M25.5712 59.7897C25.4599 60.3603 25.2297 60.9009 24.8951 61.3764C24.475 61.9688 23.9088 62.4424 23.2511 62.7506C22.3536 62.8254 21.4574 62.5902 20.7123 62.0841C20.1006 61.6781 19.6276 61.0943 19.3575 60.4117C20.8237 60.7189 22.3397 60.705 23.8002 60.3705C24.4063 60.2295 24.9991 60.0352 25.5712 59.7897Z" fill="#334B94"/>
<path d="M24.4732 59.0058C24.4893 59.2248 24.1814 59.4469 23.5562 59.6722C22.9265 59.8817 22.2729 60.0097 21.6108 60.0531C20.3414 60.1292 19.6875 60.015 19.6177 59.7135C19.5757 59.5294 19.7723 59.3072 20.208 59.0471C20.631 58.784 21.0991 58.6011 21.5884 58.5076C22.2272 58.3589 22.8904 58.3482 23.534 58.4757C24.1624 58.6123 24.4763 58.7867 24.4732 59.0058Z" fill="white"/>
<path d="M28.6083 64.4167C28.106 65.4939 27.3108 66.4077 26.3138 67.054C25.4671 67.5786 24.7269 67.7025 24.092 67.4252C23.5083 67.146 23.1223 66.4944 22.9338 65.4704C23.8534 65.5188 24.7753 65.472 25.6854 65.3308C26.6944 65.1519 27.6768 64.8447 28.6083 64.4167Z" fill="#27405A"/>
<path d="M26.6948 49.6347C27.5974 49.36 28.5257 49.1781 29.4657 49.0918C30.4793 49.0034 31.5001 49.0385 32.5056 49.1966C32.7146 49.4533 32.8603 49.7555 32.931 50.0789C33.0064 50.4289 32.9998 50.7917 32.9118 51.1388C31.5463 52.277 29.9041 53.0336 28.1515 53.3318C27.6356 53.4083 27.1148 53.4474 26.5934 53.4492C26.4361 52.9753 26.3452 52.4817 26.3235 51.983C26.2656 51.1821 26.3923 50.3784 26.6948 49.6347Z" fill="url(#paint14_linear_1_6309)"/>
<path d="M17.663 51.0625C18.0765 51.016 18.4951 51.0473 18.8972 51.1545C19.3926 51.5353 19.7585 52.0594 19.9446 52.6556C20.1459 53.2108 20.2111 53.8059 20.1349 54.3915C19.5119 54.4803 18.8798 54.4803 18.2567 54.3915C17.6922 54.314 17.1411 54.159 16.6191 53.9313C16.4685 53.592 16.3508 53.2393 16.2666 52.8776C16.1453 52.4644 16.072 52.0385 16.0476 51.6084C16.5397 51.3109 17.0912 51.1246 17.663 51.0625Z" fill="url(#paint15_linear_1_6309)"/>
<path d="M17.7959 49.8027C18.3501 49.85 18.8576 50.1301 19.1925 50.5738C19.3584 50.8205 19.4469 51.1113 19.4463 51.4084L16.2282 51.0467C16.1694 50.7457 16.2472 50.434 16.4408 50.1962C16.7263 49.8599 17.178 49.7285 17.7959 49.8027Z" fill="#A9D1F3"/>
<path d="M17.7517 32.6943C17.6309 33.4635 17.6582 34.2485 17.8311 35.0078C17.9267 35.3717 18.0846 35.7164 18.2976 36.0264L18.4658 36.2359L18.6817 36.4422L19.1419 36.7087C19.4961 36.8477 19.8719 36.9239 20.2527 36.934C20.6348 36.9657 21.0189 36.9657 21.4014 36.934C21.7798 36.8974 22.1557 36.8391 22.528 36.7595L23.6355 36.4422L25.7299 35.4521L27.6117 34.0938C28.8 33.0794 29.8414 31.9045 30.7059 30.603L30.7442 30.5267L30.817 30.5427C31.7934 30.6511 32.718 31.0389 33.4796 31.6597C32.7013 31.1656 31.815 30.8673 30.8964 30.7902C30.5041 31.4607 30.0575 32.0976 29.5603 32.6943C29.0668 33.3193 28.5163 33.8972 27.9162 34.4207L25.9743 35.8582C25.6358 36.072 25.2862 36.268 24.927 36.4453L24.3717 36.6865L23.791 36.9055L22.6388 37.2228C22.2368 37.3133 21.8263 37.3612 21.4135 37.3657C21.0145 37.3942 20.6137 37.3943 20.2145 37.3657C19.7957 37.3157 19.3854 37.2089 18.9956 37.0483C18.8037 36.9523 18.6223 36.8352 18.456 36.6992L18.0692 36.1978C17.8353 35.8578 17.6854 35.4674 17.6312 35.0585C17.5083 34.2705 17.5495 33.4657 17.7517 32.6943Z" fill="#6894B2"/>
<path d="M23.4132 58.4791C23.6249 58.4982 23.7306 58.5457 23.7306 58.6219C23.7306 58.7457 23.5307 58.8758 23.0802 59.0154C22.9038 59.0553 22.7226 59.0639 22.5438 59.0409C22.3691 59.0186 22.2677 58.9774 22.2455 58.9171C22.2232 58.8568 22.4009 58.6918 22.7595 58.5649C22.9686 58.4896 23.1918 58.4605 23.4132 58.4791Z" fill="white"/>
<path d="M22.6392 65.4164C23.5427 65.4323 24.4457 65.3728 25.3392 65.2386C26.2437 65.1088 27.134 64.8963 27.9993 64.604L28.5765 64.3628L26.8248 65.1149C26.3466 65.256 25.8589 65.3622 25.3652 65.4323C24.8574 65.4988 24.3683 65.5432 23.9019 65.5593C23.4786 65.5763 23.0543 65.5636 22.6328 65.5211L21.7281 65.4323L21.3887 65.3592C21.7188 65.3846 22.1378 65.4068 22.6392 65.4164Z" fill="#6894B2"/>
<path d="M28.2496 64.7023C27.7184 65.2297 27.0636 65.6161 26.3455 65.8258C25.3176 66.1523 24.2083 66.1121 23.2068 65.7116C24.0696 65.7065 24.9302 65.6214 25.7774 65.4577C26.6241 65.2863 27.4515 65.0334 28.2496 64.7023Z" fill="white"/>
<path d="M31.8547 50.6976C31.8877 50.8862 31.8823 51.0792 31.8386 51.2656L31.3312 51.1672C31.3646 51.0365 31.3699 50.9003 31.3472 50.7674V50.7451L31.8578 50.6976M31.6642 50.139L31.2296 50.3835C31.1699 50.2598 31.0832 50.1512 30.9757 50.0661L31.3216 49.6916C31.4555 49.8245 31.5709 49.9751 31.6642 50.139ZM30.1666 52.0781L30.5601 52.0241L30.7156 52.497L30.4423 52.5573H30.163V52.0781M29.0935 52.1543L29.4429 51.7765L29.7604 51.9892L29.5668 52.462C29.3915 52.3764 29.2274 52.2699 29.0778 52.1447M30.8899 51.8275C31.0001 51.7509 31.0917 51.6498 31.1565 51.5322L31.5914 51.8019C31.4939 51.9704 31.3618 52.1163 31.2043 52.2305L30.8866 51.8275M30.6171 49.8439C30.4937 49.801 30.364 49.7796 30.2332 49.7804V49.2632C30.4312 49.255 30.6285 49.292 30.8107 49.3711L30.6171 49.8439ZM29.2271 50.3168C29.1453 50.4266 29.0902 50.5536 29.0653 50.688L28.5797 50.5675C28.6011 50.3775 28.6744 50.1975 28.7921 50.0471L29.2271 50.3168ZM29.4903 50.0216L29.1732 49.6186C29.3157 49.4868 29.4876 49.391 29.6746 49.3393L29.8362 49.8312C29.7068 49.8691 29.5869 49.9339 29.4843 50.0216M28.7256 51.6972C28.6287 51.5229 28.5629 51.3326 28.5322 51.1356L29.062 51.0657C29.0781 51.1994 29.1202 51.3289 29.1857 51.4465L28.7256 51.6972Z" fill="#7EE3F7"/>
<path d="M30.3221 47.2797C31.0864 47.3758 31.7853 47.7593 32.277 48.3523C32.4167 48.5835 32.5358 48.8268 32.6323 49.079C31.213 49.6003 29.6937 49.7913 28.1891 49.6376C27.2875 49.5684 26.3999 49.373 25.5522 49.0569C26.1947 48.2365 27.0856 47.6454 28.0913 47.3718C28.8192 47.1794 29.5806 47.148 30.3221 47.2797Z" fill="#A9D1F3"/>
<path d="M23.8291 48.5619C24.5555 48.7268 25.1492 48.8445 25.6125 48.9047C26.2012 48.9889 26.795 49.0345 27.3898 49.041C27.7674 49.041 28.6306 49.0126 29.9887 48.9681L32.772 48.8951V49.3648C30.0215 50.2385 27.4826 50.1911 25.1556 49.2221C24.6924 49.0464 24.2481 48.8254 23.8291 48.5619Z" fill="#132636"/>
<path d="M33.7238 51.9353C34.0391 51.8294 34.2167 51.8136 34.257 51.8877C34.3206 52.0062 34.0265 52.3236 33.3745 52.8397C32.7234 53.3559 32.3528 53.5622 32.2639 53.4586C32.207 53.4047 32.2451 53.2746 32.3753 53.0683C32.5092 52.8548 32.6714 52.6606 32.8576 52.4907C33.1056 52.2488 33.4007 52.06 33.7238 51.9353Z" fill="white"/>
<path d="M30.9471 50.8564C30.9775 51.0462 30.9281 51.2403 30.8106 51.3926C30.6968 51.5478 30.5231 51.6481 30.3314 51.6686C30.1417 51.6976 29.9484 51.6484 29.7954 51.5324C29.6422 51.4166 29.5425 51.2436 29.5191 51.053C29.4882 50.8627 29.5392 50.668 29.6586 50.5168C29.8349 50.284 30.1343 50.1805 30.4165 50.2549C30.699 50.3293 30.9086 50.5669 30.9471 50.8564Z" fill="#7EE3F7"/>
<path d="M17.9423 53.3381C18.006 53.436 18.0891 53.5202 18.1865 53.5856L17.9962 53.9029C17.8536 53.8085 17.7268 53.6917 17.6217 53.5569L17.9388 53.3253M17.7518 53.008L17.374 53.154L17.2629 52.6748L17.6312 52.6241L17.7518 53.008ZM18.6689 53.7062L18.8499 53.6554L18.9926 54.014L18.7199 54.0743C18.6353 54.096 18.5468 54.096 18.4626 54.0743L18.504 53.6934H18.6689M19.3038 53.1381L19.6749 53.2746C19.6103 53.4278 19.5176 53.5677 19.4021 53.687L19.1354 53.4427C19.2112 53.3486 19.268 53.2409 19.3038 53.1254M19.3892 52.3606V52.3384L19.7829 52.3098C19.8085 52.4653 19.8085 52.6238 19.7829 52.7795L19.4021 52.7383C19.423 52.6133 19.423 52.4857 19.4021 52.3606M19.1164 51.6497L19.4146 51.4211C19.5095 51.5578 19.5901 51.7034 19.6559 51.8559L19.3005 51.9988L19.1132 51.6815M19.0596 51.1008L18.8464 51.4371C18.7505 51.3743 18.6425 51.3333 18.5292 51.3166L18.5735 50.9325C18.7451 50.9644 18.9107 51.0211 19.0656 51.1008M17.7391 51.8909L17.6502 52.256L17.2662 52.2145L17.3931 51.7512L17.7391 51.8909ZM18.2089 51.3578C18.1034 51.4068 18.0085 51.4756 17.9294 51.5609L17.6375 51.3197C17.7582 51.187 17.9037 51.0791 18.0658 51.0023L18.2089 51.3578Z" fill="#7EE3F7"/>
<path d="M19.075 52.4684C19.1067 52.6505 19.0738 52.8376 18.983 52.9984C18.9107 53.139 18.7747 53.236 18.6183 53.2586C18.4671 53.2809 18.3155 53.2203 18.2215 53.1C17.9671 52.825 17.9125 52.42 18.0847 52.0876C18.1433 51.9469 18.2732 51.8486 18.4245 51.8305C18.5806 51.8093 18.7375 51.8663 18.8437 51.9829C18.9734 52.1138 19.0548 52.285 19.075 52.4684Z" fill="#7EE3F7"/>
<path d="M36.9703 30.8568C37.6893 29.9715 38.4609 29.1301 39.2808 28.3371C41.0959 26.6596 43.1555 25.2685 45.3896 24.2115C45.7983 23.9831 46.3068 24.0365 46.6592 24.3448C46.856 24.5231 46.9879 24.7621 47.0336 25.0239C47.0853 25.2907 47.0487 25.567 46.9287 25.8109C46.3737 26.2171 45.726 26.709 44.9932 27.2961C42.8472 29.0219 40.8264 30.8968 38.9445 32.9069L36.9703 30.8568Z" fill="#3B302F"/>
<path d="M35.5551 34.808C35.2186 34.4818 34.9311 34.1088 34.7014 33.7003C34.7076 33.033 34.7905 32.3684 34.949 31.7201C35.1432 30.9406 35.4653 30.1987 35.9011 29.524C36.7459 29.3944 37.6104 29.5496 38.3573 29.9652C39.044 30.3553 39.5972 30.9437 39.9443 31.6534C40.3281 32.3994 40.5062 33.234 40.4614 34.0716C39.7854 34.389 39.2171 34.646 38.7539 34.8206C38.205 35.0333 37.5226 35.2617 36.7103 35.4965C36.2851 35.3416 35.8934 35.108 35.5551 34.808Z" fill="url(#paint16_linear_1_6309)"/>
<path d="M55.8021 20.4826L55.9195 19.9749L55.8495 20.5017C55.7537 20.9574 55.6266 21.406 55.4684 21.844C55.4337 21.9424 55.3006 22.2281 55.069 22.6977C54.9674 22.8818 54.78 23.1737 54.5037 23.5704L54.1389 23.9957C53.9233 24.2305 53.7897 24.3638 53.7484 24.4019L53.3361 24.8113L51.9178 25.7633C51.6831 25.8903 51.3434 26.0457 50.8989 26.2298L49.9148 26.5757C49.6165 26.6674 49.312 26.7404 49.0045 26.7947C48.5477 26.887 48.0856 26.9495 47.6205 26.9819C47.4507 27.0083 47.2782 27.0158 47.1063 27.0041C47.2848 26.9968 47.4626 26.9724 47.6365 26.9312L49.8582 26.3948C50.1843 26.2994 50.5024 26.1784 50.8101 26.033C51.1481 25.888 51.4784 25.7259 51.8002 25.5475C51.8617 25.5221 52.1793 25.3222 52.7521 24.9477L53.5934 24.2242C53.6344 24.1861 53.7645 24.0496 53.9833 23.818C54.1111 23.6956 54.2267 23.5618 54.3294 23.4181L54.9198 22.5867L55.3257 21.7806C55.5153 21.3596 55.674 20.9259 55.8021 20.4826Z" fill="#2D1A1A"/>
<path d="M51.7244 22.1169C51.9698 22.2435 52.1973 22.4026 52.4001 22.5898C52.6083 22.787 52.7949 23.005 52.9589 23.2404L53.2061 23.6783L53.3617 24.148L53.4536 24.6526V25.1476C53.4308 25.4298 53.3658 25.7068 53.2603 25.9695C53.1721 26.2358 53.0394 26.4848 52.8665 26.7058L53.1173 25.9442C53.1847 25.6786 53.2189 25.4058 53.2189 25.1318L53.2002 24.6653L53.1141 24.2051L52.9622 23.7576C52.9102 23.6191 52.844 23.4862 52.7655 23.361C52.6371 23.1225 52.4821 22.8998 52.3019 22.6977L51.7244 22.1169Z" fill="#2D1A1A"/>
<path d="M47.9192 24.348L48.2365 25.9347C48.3151 26.2107 48.4149 26.4802 48.5352 26.7408C48.6259 26.9749 48.7316 27.2029 48.8525 27.423L49.2393 28.0292C49.0483 27.8739 48.8816 27.691 48.7444 27.4866L48.3032 26.8519C48.1687 26.59 48.0625 26.3144 47.986 26.0299L47.7982 25.1604V24.3892L47.8876 23.6498L47.9192 24.348Z" fill="#2D1A1A"/>
<path d="M52.1142 21.9171C53.3841 21.3077 54.12 21.1141 54.2916 21.3427C54.4627 21.5712 54.1803 21.9774 53.5581 22.685C52.5913 23.7395 51.3167 24.4623 49.9152 24.751C48.5377 25.0684 47.7821 25.0684 47.6586 24.7288C47.6013 24.5341 48.4137 23.947 50.0958 22.9675C50.7793 22.5783 51.452 22.2281 52.1142 21.9171Z" fill="#B3F1FD"/>
<path d="M55.8336 6.1066C56.1021 6.30254 56.2966 6.5832 56.386 6.90323C55.3734 7.11617 54.3864 7.43532 53.4407 7.85523C51.5624 8.68374 49.8505 9.84727 48.3887 11.289C48.1119 11.0922 47.7095 10.7749 47.1826 10.3369C47.7188 9.75468 48.3071 9.22347 48.941 8.75019C50.6466 7.42521 52.5841 6.42879 54.6532 5.81145C55.0709 5.74 55.4995 5.84713 55.8336 6.1066Z" fill="#B3F1FD"/>
<path d="M37.6716 4.47224L37.1449 5.08476C36.9496 5.28551 36.7754 5.50562 36.6245 5.74167L36.1548 6.43982C35.7317 7.26494 35.4821 7.79385 35.4059 8.02661C35.1829 8.56523 34.9912 9.1162 34.8314 9.67682C34.7585 10.064 34.6475 10.6288 34.498 11.3683C34.498 11.4 34.4095 11.9268 34.2665 12.955C34.2221 13.9071 34.2031 14.38 34.2031 14.3959C34.181 15.2591 34.184 15.9825 34.2031 16.576L34.2665 17.3916C34.1944 17.1207 34.1413 16.8449 34.1078 16.5665L33.9808 15.643L33.8955 12.9328C33.905 12.3848 33.9484 11.838 34.0253 11.2953C34.0761 10.8722 34.182 10.2946 34.3426 9.56258C34.6854 8.50471 34.8736 7.93137 34.9076 7.84251C34.9776 7.66057 35.2482 7.11475 35.72 6.20496C36.0583 5.71214 36.4247 5.23952 36.818 4.7896C36.9918 4.56262 37.184 4.35033 37.3925 4.15491L38.3255 3.41862L39.2775 2.86646C39.9276 2.52881 40.6189 2.27701 41.3339 2.11752L42.1624 1.98108L41.3721 2.20638C40.6889 2.44363 40.0302 2.74542 39.4044 3.10768L38.5445 3.69153L37.6716 4.47224Z" fill="#B3F1FD"/>
<path d="M48.9414 21.1553C49.7188 20.7523 50.4805 20.3302 51.2355 19.8859C52.0448 19.4004 52.7813 18.9339 53.438 18.4832L54.4504 17.8073C54.4675 17.8073 54.7592 17.5957 55.326 17.1726L57.1191 15.8492L55.4437 17.3439C54.996 17.7343 54.7232 17.9786 54.6248 18.0453L53.6414 18.7625C52.8861 19.3051 52.1431 19.7875 51.4196 20.216C50.8273 20.5629 50.0538 20.9808 49.0996 21.4695C48.3223 21.8409 47.6114 22.1486 46.9735 22.3931L44.863 23.126L48.9414 21.1553Z" fill="#1A0E0C"/>
<path d="M53.6539 15.9159C53.8821 16.0406 54.0954 16.1919 54.2881 16.3666C54.5258 16.5645 54.7318 16.7979 54.8979 17.0585L55.1198 17.4742C55.1818 17.6195 55.2255 17.7719 55.2498 17.928L55.3071 18.3405L55.2626 18.7245C55.2366 18.9102 55.1829 19.0908 55.1037 19.2609L55.0118 19.4608L55.053 19.245C55.1019 19.0737 55.1259 18.8963 55.1231 18.7182V18.3659L55.0439 17.9566L54.8979 17.5757L54.6818 17.2045C54.3619 16.7615 53.9837 16.3634 53.5583 16.0207L52.9237 15.5891C53.1819 15.6608 53.4283 15.771 53.6539 15.9159Z" fill="#1A0E0C"/>
<path d="M55.6655 16.5569L55.856 16.7442L55.6687 16.5792C55.4266 16.3944 55.119 16.3174 54.8183 16.3666C54.395 16.3952 54.0137 16.6334 53.8027 17.0013C53.6781 17.1916 53.6018 17.4095 53.5808 17.636C53.5655 17.8586 53.6193 18.0804 53.7358 18.2707C53.8552 18.4573 54.0417 18.5912 54.2568 18.6452C54.4718 18.7116 54.6998 18.7289 54.9232 18.696C55.1301 18.6476 55.3256 18.558 55.4976 18.4326C55.6651 18.3302 55.7996 18.1814 55.8844 18.0041C56.0565 17.7584 56.1093 17.4486 56.0272 17.16L55.9481 16.9156L56.0501 17.1568C56.1231 17.4559 56.0825 17.7716 55.9356 18.0422C55.8496 18.2276 55.7293 18.3946 55.5798 18.5341C55.3987 18.6921 55.1804 18.8013 54.9455 18.8515C54.702 18.9308 54.4396 18.9308 54.1961 18.8515C53.9266 18.7693 53.6901 18.6037 53.5202 18.3786C53.3664 18.1425 53.3106 17.8555 53.3648 17.5788C53.3848 17.3151 53.4974 17.0669 53.6824 16.8776C53.962 16.5293 54.3785 16.3187 54.8247 16.3C55.1271 16.277 55.4274 16.3688 55.6655 16.5569Z" fill="#1A0E0C"/>
<path d="M14.756 50.4025C15.5099 50.6203 16.2775 50.7877 17.0535 50.9039C17.8994 51.0367 18.7554 51.094 19.6111 51.0753L19.6781 51.5578C19.134 51.6672 18.5782 51.7036 18.0245 51.6656C16.8339 51.5775 15.6965 51.1378 14.756 50.4025Z" fill="#132636"/>
<path d="M30.9122 44.0078C30.2363 44.062 29.5675 44.1843 28.9163 44.3729C26.9302 44.946 25.1616 46.1012 23.8386 47.6891L23.5435 46.553C24.1353 46.0263 24.7795 45.5616 25.4668 45.1662C27.1373 44.2773 29.0243 43.8759 30.9122 44.0078Z" fill="#27405A"/>
<path d="M19.1292 48.1873L19.3036 49.1394C18.6179 48.6859 17.8392 48.3911 17.025 48.2762C16.2072 48.1544 15.3721 48.2274 14.5876 48.4888C15.3246 48.0018 16.1896 47.7456 17.0726 47.7526C17.7811 47.7529 18.4813 47.901 19.1292 48.1873Z" fill="#27405A"/>
<path d="M31.4421 32.2024L33.2444 32.6848L33.1273 34.589L35.7516 37.3309L38.8013 36.8009L41.2356 40.7836L37.4274 43.9223C36.9239 43.0248 36.3521 42.1676 35.7166 41.3581C33.8644 38.9683 31.5748 36.9523 28.9697 35.4172L31.4421 32.2024Z" fill="white"/>
<path d="M18.3418 32.1802C19.1212 31.5602 19.986 31.0557 20.9095 30.6823C23.5327 29.6075 26.3815 29.6075 29.4556 30.6823C29.2257 31.1793 28.9439 31.6506 28.6144 32.0882C28.0756 32.8393 27.42 33.4993 26.6722 34.043C25.9398 33.7893 25.1841 33.6087 24.4161 33.5035C22.3282 33.2697 20.2174 33.6456 18.3389 34.5857C18.2259 34.2201 18.1745 33.8383 18.1863 33.456C18.1705 33.0252 18.2233 32.5946 18.3418 32.1802Z" fill="white"/>
<path d="M44.2727 58.8377C44.3267 58.7895 44.4 58.7692 44.4709 58.7831C44.5418 58.7966 44.6026 58.8426 44.6347 58.9074C44.7456 59.0311 44.7299 59.1517 44.587 59.266C44.0672 59.6507 43.4899 59.9505 42.8767 60.1547C42.5174 60.2876 42.143 60.3772 41.7627 60.4211C41.3846 60.48 41.0011 60.4928 40.6204 60.4593C40.4453 60.4593 40.3725 60.3672 40.3977 60.2085C40.3904 60.137 40.418 60.0659 40.471 60.0172C40.5237 59.9685 40.5968 59.9477 40.6677 59.9611C41.3639 60.0074 42.0625 59.9124 42.7211 59.6818C43.2791 59.4833 43.8031 59.1984 44.2727 58.8377Z" fill="#1D496A"/>

</g>
<defs>
<linearGradient id="paint0_linear_1_6309" x1="-212.956" y1="240.547" x2="-203.911" y2="240.547" gradientUnits="userSpaceOnUse">
<stop stop-color="#D8EEF9"/>
<stop offset="1" stop-color="#F8E7D8"/>
</linearGradient>
<linearGradient id="paint1_linear_1_6309" x1="-220.203" y1="241.908" x2="-207.823" y2="241.908" gradientUnits="userSpaceOnUse">
<stop stop-color="#D8EEF9"/>
<stop offset="1" stop-color="#F8E7D8"/>
</linearGradient>
<linearGradient id="paint2_linear_1_6309" x1="-241.271" y1="291.713" x2="-231.813" y2="291.713" gradientUnits="userSpaceOnUse">
<stop stop-color="#D8EEF9"/>
<stop offset="1" stop-color="#F8E7D8"/>
</linearGradient>
<linearGradient id="paint3_linear_1_6309" x1="-245.315" y1="237.814" x2="-248.847" y2="237.814" gradientUnits="userSpaceOnUse">
<stop stop-color="#D8EEF9"/>
<stop offset="1" stop-color="#F8E7D8"/>
</linearGradient>
<linearGradient id="paint4_linear_1_6309" x1="-251.344" y1="242.051" x2="-237.746" y2="242.051" gradientUnits="userSpaceOnUse">
<stop stop-color="#D8EEF9"/>
<stop offset="1" stop-color="#F8E7D8"/>
</linearGradient>
<linearGradient id="paint5_linear_1_6309" x1="-243.253" y1="248.458" x2="-250.251" y2="248.458" gradientUnits="userSpaceOnUse">
<stop stop-color="#D8EEF9"/>
<stop offset="1" stop-color="#D8C9BC"/>
</linearGradient>
<linearGradient id="paint6_linear_1_6309" x1="-243.463" y1="245.277" x2="-246.963" y2="245.277" gradientUnits="userSpaceOnUse">
<stop stop-color="#D8EEF9"/>
<stop offset="1" stop-color="#F8E7D8"/>
</linearGradient>
<linearGradient id="paint7_linear_1_6309" x1="-232.435" y1="259.132" x2="-226.954" y2="259.132" gradientUnits="userSpaceOnUse">
<stop stop-color="#D8EEF9"/>
<stop offset="1" stop-color="#D8C9BC"/>
</linearGradient>
<linearGradient id="paint8_linear_1_6309" x1="31.1896" y1="67.6034" x2="31.1896" y2="67.6034" gradientUnits="userSpaceOnUse">
<stop stop-color="#D8EEF9"/>
<stop offset="1" stop-color="#F8E7D8"/>
</linearGradient>
<linearGradient id="paint9_linear_1_6309" x1="-233.639" y1="292.413" x2="-224.103" y2="292.413" gradientUnits="userSpaceOnUse">
<stop stop-color="#D8EEF9"/>
<stop offset="1" stop-color="#F8E7D8"/>
</linearGradient>
<linearGradient id="paint10_linear_1_6309" x1="42.1501" y1="45.5433" x2="42.1501" y2="45.5433" gradientUnits="userSpaceOnUse">
<stop stop-color="#D8EEF9"/>
<stop offset="1" stop-color="#F8E7D8"/>
</linearGradient>
<linearGradient id="paint11_linear_1_6309" x1="-235.735" y1="265.956" x2="-231.362" y2="265.956" gradientUnits="userSpaceOnUse">
<stop stop-color="#D8EEF9"/>
<stop offset="1" stop-color="#D8C9BC"/>
</linearGradient>
<linearGradient id="paint12_linear_1_6309" x1="-222.254" y1="2.58755e+09" x2="-222.254" y2="2.58755e+09" gradientUnits="userSpaceOnUse">
<stop stop-color="#D8EEF9"/>
<stop offset="1" stop-color="#F8E7D8"/>
</linearGradient>
<linearGradient id="paint13_linear_1_6309" x1="-231.501" y1="275.51" x2="-234.602" y2="275.51" gradientUnits="userSpaceOnUse">
<stop stop-color="#D8EEF9"/>
<stop offset="1" stop-color="#F8E7D8"/>
</linearGradient>
<linearGradient id="paint14_linear_1_6309" x1="-223.341" y1="274.131" x2="-218.692" y2="274.131" gradientUnits="userSpaceOnUse">
<stop stop-color="#142244"/>
<stop offset="1" stop-color="#183F6A"/>
</linearGradient>
<linearGradient id="paint15_linear_1_6309" x1="-214.393" y1="274.001" x2="-211.79" y2="274.001" gradientUnits="userSpaceOnUse">
<stop stop-color="#142244"/>
<stop offset="1" stop-color="#183F6A"/>
</linearGradient>
<linearGradient id="paint16_linear_1_6309" x1="-229.938" y1="286.071" x2="-226.041" y2="286.071" gradientUnits="userSpaceOnUse">
<stop stop-color="#D8EEF9"/>
<stop offset="1" stop-color="#F8E7D8"/>
</linearGradient>
</defs>
</svg>
