<svg width="240" height="178" viewBox="0 0 240 178" fill="none" xmlns="http://www.w3.org/2000/svg">
<circle cx="77.5868" cy="92.8358" r="20.4087" transform="rotate(-45 77.5868 92.8358)" stroke="#F5C042" stroke-width="2"/>
<g filter="url(#filter0_d_1_6310)">
<path d="M3.79028 10.9518C3.79028 5.42892 8.26744 0.951782 13.7903 0.951782H199.269C204.792 0.951782 209.269 5.42894 209.269 10.9518V150.81C209.269 156.333 204.792 160.81 199.269 160.81H13.7903C8.26744 160.81 3.79028 156.333 3.79028 150.81V10.9518Z" fill="url(#paint0_linear_1_6310)"/>
</g>
<g style="mix-blend-mode:soft-light" opacity="0.9">
<path d="M173.348 132.369C173.348 131.525 174.032 130.841 174.876 130.841H195.754C196.598 130.841 197.282 131.525 197.282 132.369V147.877C197.282 148.721 196.598 149.405 195.754 149.405H174.876C174.032 149.405 173.348 148.721 173.348 147.877V132.369Z" fill="white"/>
</g>
<g style="mix-blend-mode:soft-light" opacity="0.9">
<path d="M136.701 23.6242C136.701 27.8561 133.267 31.2872 129.035 31.2872C124.803 31.2872 121.368 27.8561 121.368 23.6242C121.368 19.392 124.803 15.9575 129.035 15.9575C133.267 15.9575 136.701 19.392 136.701 23.6242Z" fill="white"/>
</g>
<g style="mix-blend-mode:soft-light" opacity="0.9">
<path d="M166.991 23.6242C166.991 27.8561 163.56 31.2872 159.324 31.2872C155.092 31.2872 151.661 27.8561 151.661 23.6242C151.661 19.392 155.092 15.9575 159.324 15.9575C163.56 15.9575 166.991 19.392 166.991 23.6242Z" fill="white"/>
</g>
<g style="mix-blend-mode:soft-light" opacity="0.9">
<path d="M197.28 23.6242C197.28 27.8561 193.849 31.2872 189.617 31.2872C185.382 31.2872 181.951 27.8561 181.951 23.6242C181.951 19.392 185.382 15.9575 189.617 15.9575C193.849 15.9575 197.28 19.392 197.28 23.6242Z" fill="white"/>
</g>
<g style="mix-blend-mode:soft-light" opacity="0.9">
<path d="M36.2783 23.6237C36.2783 29.2832 31.6889 33.8724 26.0294 33.8724C20.3676 33.8724 15.7787 29.2832 15.7787 23.6237C15.7787 17.9621 20.3676 13.3728 26.0294 13.3728C31.6889 13.3728 36.2783 17.9621 36.2783 23.6237Z" fill="white"/>
</g>
<path d="M198.947 98.0942C177.073 98.0942 159.341 115.826 159.341 137.7C159.341 159.574 177.073 177.306 198.947 177.306C220.821 177.306 238.553 159.574 238.553 137.7C238.553 115.826 220.821 98.0942 198.947 98.0942Z" fill="#DBE7ED"/>
<mask id="mask0_1_6310" style="mask-type:alpha" maskUnits="userSpaceOnUse" x="159" y="68" width="81" height="110">
<path d="M198.947 68.8809C158.526 69.7922 159.341 114.546 159.341 136.875C159.341 159.205 177.073 177.306 198.947 177.306C220.821 177.306 238.553 159.205 238.553 136.875C238.553 114.546 247.652 69.2455 198.947 68.8809Z" fill="white"/>
</mask>
<g mask="url(#mask0_1_6310)">
<path d="M186.767 167.935C185.286 169.627 183.867 171.183 182.508 172.603C175.277 180.17 167.217 186.901 158.482 192.669C157.172 191.71 155.98 190.597 154.934 189.356C153.295 187.466 152.006 185.3 151.126 182.958C154.815 179.053 158.61 175.227 162.509 171.483C167.544 166.646 172.728 161.962 178.059 157.43L186.767 167.935Z" fill="url(#paint1_linear_1_6310)"/>
<path d="M182.597 153.771L188.627 165.555L182.597 172.035C180.278 171.199 178.323 169.581 177.069 167.459C175.86 165.514 175.435 163.183 175.882 160.937C176.215 159.283 177.016 157.76 178.189 156.548C179.399 155.263 180.916 154.308 182.597 153.771Z" fill="#3B302F"/>
<path d="M198.224 150.769C199.802 153.037 200.177 155.641 199.35 158.579C198.523 161.518 196.736 163.937 193.99 165.837C191.256 167.741 188.363 168.558 185.311 168.287C182.258 168.016 179.957 166.759 178.408 164.517C176.834 162.247 176.463 159.636 177.294 156.685C178.125 153.733 179.903 151.317 182.626 149.436C185.376 147.532 188.268 146.716 191.302 146.986C194.336 147.257 196.643 148.518 198.224 150.769Z" fill="url(#paint2_linear_1_6310)"/>
<path d="M197.354 153.984C199.239 154.407 200.473 155.351 201.055 156.815C201.636 158.279 201.385 159.808 200.299 161.404C199.227 163.018 197.631 164.249 195.514 165.098C193.396 165.946 191.392 166.144 189.503 165.691C187.599 165.251 186.361 164.314 185.79 162.879C185.219 161.445 185.475 159.909 186.558 158.271C187.63 156.655 189.217 155.43 191.318 154.596C193.419 153.763 195.431 153.559 197.354 153.984Z" fill="#3B302F"/>
<path d="M222.098 148.271C223.422 149.216 224.615 150.333 225.646 151.591C230.897 158.11 231.31 168.181 226.883 181.806C224.479 189.205 221.245 196.308 217.243 202.98C215.221 204.463 212.87 205.435 210.391 205.814C208.061 206.176 205.68 206.035 203.409 205.398C202.005 198.94 201.494 192.319 201.889 185.722C202.606 173.944 206.253 164.19 212.828 156.459C215.52 153.31 218.64 150.553 222.098 148.271Z" fill="#3B302F"/>
<path d="M177.742 197.845C177.337 199.339 177.135 200.88 177.142 202.427C177.102 204.828 177.764 207.189 179.046 209.219C179.576 210.002 180.195 210.72 180.893 211.358C181.243 210.435 181.794 209.601 182.505 208.918C183.717 207.754 185.376 207.158 187.481 207.131C188.718 207.143 189.949 207.292 191.153 207.575C193.06 208.075 194.823 209.015 196.301 210.32C198.555 210.665 200.841 210.765 203.117 210.619C206.503 210.419 209.833 209.669 212.977 208.397C213.375 202.681 214.965 197.111 217.645 192.047C218.87 189.761 220.328 187.609 221.996 185.624C218.26 179.014 216.115 172.714 215.56 166.722C214.989 160.617 216.206 155.806 219.21 152.289C220.459 150.814 221.993 149.605 223.72 148.735L222.768 146.644C218.643 145.418 214.375 144.747 210.073 144.647C203.422 144.476 197.443 145.843 192.137 148.748C190.215 149.759 188.407 150.972 186.742 152.365L181.724 167.376C179.998 172.331 178.02 177.195 175.8 181.949C173.739 186.404 174.61 189.544 178.411 191.368L177.742 197.845Z" fill="url(#paint3_linear_1_6310)"/>
<path d="M207.065 145.476C208.313 145.623 209.533 145.944 210.692 146.428L193.571 161.429C193.566 159.575 193.748 157.725 194.114 155.907C194.613 153.503 195.426 151.175 196.532 148.982C197.67 148.043 198.931 147.264 200.28 146.666C202.395 145.669 204.737 145.258 207.065 145.476Z" fill="#3B302F"/>
<path d="M221.609 147.386L220.127 148.418C219.587 148.826 219.083 149.28 218.62 149.773C218.322 150.067 218.044 150.38 217.785 150.709C217.613 150.95 217.344 151.323 216.976 151.829C216.397 152.694 215.924 153.625 215.567 154.603C215.165 155.694 214.862 156.82 214.662 157.967C214.463 159.191 214.357 160.429 214.345 161.67C214.338 162.955 214.411 164.24 214.561 165.516L214.821 167.421C214.995 168.477 215.112 169.109 215.173 169.325C215.384 170.383 215.674 171.595 216.043 172.961C216.563 174.722 216.911 175.841 217.086 176.319C217.356 177.176 217.721 178.16 218.143 179.277C218.852 181.136 219.456 182.588 219.955 183.631C220.231 184.266 220.472 184.773 220.679 185.154L219.845 183.672C219.119 182.235 218.463 180.805 217.877 179.382C217 177.331 216.244 175.231 215.614 173.092C215.178 171.507 214.87 170.281 214.691 169.413C214.532 168.573 214.405 167.941 214.316 167.509L214.053 165.548C213.906 164.255 213.847 162.953 213.875 161.651C213.896 160.384 214.015 159.12 214.23 157.871C214.432 156.697 214.763 155.548 215.217 154.447C215.64 153.473 216.149 152.539 216.741 151.658C216.874 151.469 217.161 151.102 217.601 150.556C217.87 150.217 218.165 149.899 218.483 149.604C218.982 149.137 219.512 148.704 220.07 148.31L221.609 147.386Z" fill="#6894B2"/>
<path d="M211.695 146.482L219.708 147.554C218.678 148.152 217.735 148.889 216.906 149.744C214.579 152.109 213.222 155.087 212.835 158.677L200.42 156.818C201.651 155.633 203.082 154.288 204.711 152.784C207.199 150.491 209.527 148.39 211.695 146.482Z" fill="white"/>
<path d="M219.645 148.018C218.604 148.86 217.663 149.818 216.839 150.874C214.839 153.493 213.543 156.58 213.076 159.842C212.725 162.031 212.664 164.257 212.895 166.462C212.412 165.345 212.071 164.173 211.879 162.971C211.109 158.299 212.765 153.555 216.274 150.376C217.269 149.421 218.407 148.625 219.645 148.018Z" fill="white"/>
<path d="M223.612 151.318C224.388 150.676 225.241 150.134 226.151 149.703C224.662 152.48 223.866 155.577 223.831 158.728C223.654 158.949 223.439 159.137 223.196 159.284C222.781 159.554 222.308 159.724 221.816 159.779C221.113 159.884 220.396 159.74 219.788 159.373C219.778 157.969 220.061 156.579 220.619 155.291C221.286 153.747 222.312 152.385 223.612 151.318Z" fill="white"/>
<path d="M232.256 169.918C232.679 171.809 233.088 173.878 233.481 176.125C235.24 186.442 235.855 196.921 235.316 207.372C233.769 207.851 232.171 208.144 230.555 208.245C228.057 208.431 225.545 208.18 223.133 207.502C222.246 202.57 221.427 197.238 220.677 191.504C219.805 184.734 219.131 177.784 218.655 170.654L232.256 169.918Z" fill="url(#paint4_linear_1_6310)"/>
<path d="M218.766 164.974L231.85 167.128L233.437 175.814C231.19 177.29 228.486 177.907 225.82 177.554C223.225 177.209 221.203 176.105 219.756 174.243C218.533 172.638 217.982 170.65 218.103 168.281C218.159 167.151 218.382 166.037 218.766 164.974Z" fill="#3B302F"/>
<path d="M227.998 151.179C230.735 151.528 232.917 152.994 234.545 155.577C236.172 158.16 236.781 161.1 236.373 164.396C235.949 167.703 234.621 170.403 232.386 172.495C230.152 174.587 227.672 175.459 224.945 175.11C222.222 174.763 220.041 173.297 218.401 170.712C216.761 168.126 216.159 165.18 216.595 161.873C217.018 158.579 218.34 155.886 220.559 153.793C222.778 151.701 225.258 150.829 227.998 151.179Z" fill="url(#paint5_linear_1_6310)"/>
<path d="M226.753 156.881C228.048 155.438 229.474 154.815 231.028 155.012C232.584 155.209 233.798 156.169 234.672 157.894C235.556 159.633 235.856 161.626 235.573 163.872C235.289 166.119 234.498 167.973 233.199 169.433C231.905 170.875 230.488 171.5 228.95 171.305C227.412 171.11 226.189 170.146 225.281 168.411C224.393 166.667 224.092 164.674 224.38 162.432C224.667 160.189 225.459 158.339 226.753 156.881Z" fill="url(#paint6_linear_1_6310)"/>
<path d="M226.039 159.912C226.674 159.178 227.364 158.861 228.109 158.96C228.861 159.058 229.448 159.538 229.87 160.407C230.687 162.322 230.406 164.529 229.134 166.176C228.499 166.909 227.809 167.226 227.065 167.128C226.32 167.031 225.734 166.549 225.306 165.681C224.453 163.772 224.737 161.546 226.042 159.912H226.039Z" fill="url(#paint7_linear_1_6310)"/>
<path d="M231.818 185.719L231.86 185.931C232.188 188.299 232.399 190.043 232.494 191.165C232.706 193.109 232.852 194.859 232.932 196.414L233.085 199.051C233.114 199.641 233.133 200.518 233.142 201.682V206.943L232.824 201.694C232.806 200.841 232.764 199.965 232.697 199.06L232.479 196.449C232.334 194.566 232.172 192.822 231.99 191.219L231.403 186.22L228.832 186.512L227.211 175.681L229.235 186.011L231.818 185.719Z" fill="#6894B2"/>
<path d="M204.935 129.177C205.029 130.541 205.205 132.075 205.466 133.778C206.206 138.349 207.513 142.809 209.356 147.056C208.979 147.505 208.532 147.891 208.033 148.198C207.111 148.772 206.041 149.063 204.955 149.036C204.001 145.926 202.534 141.234 200.556 134.959L198.897 129.83L204.935 129.177Z" fill="url(#paint8_linear_1_6310)"/>
<path d="M189.636 128.678C187.832 129.405 186.233 130.563 184.98 132.052C189.028 138.822 191.392 142.852 192.073 144.143C193.456 146.768 194.552 149.534 195.342 152.394C195.077 153.173 194.925 153.986 194.891 154.809C194.862 155.842 195.03 156.87 195.387 157.84C196.65 157.295 197.865 156.643 199.017 155.891C201.771 154.029 204.091 151.595 205.818 148.754L203.99 143.657C202.378 139.024 200.811 134.264 199.29 129.377C197.896 129.757 196.386 129.567 194.761 128.805C193.149 128.033 191.284 127.987 189.636 128.678Z" fill="url(#paint9_linear_1_6310)"/>
<path d="M195.891 128.627C196.655 128.1 197.539 127.773 198.462 127.675C200.226 127.422 202.302 127.72 204.688 128.57L204.986 132.661C204.585 133.179 204.083 133.611 203.51 133.93C202.754 134.369 201.894 134.598 201.019 134.597C200.671 135.871 200.13 137.084 199.417 138.196C197.828 140.648 195.533 142.368 192.534 143.356L185.2 132.214L186.443 132.042C190.779 132.943 193.212 132.838 193.743 131.725C194.517 130.123 195.233 129.091 195.891 128.627Z" fill="#3B302F"/>
<path d="M199.398 133.315C199.716 134.038 200.169 135.134 200.76 136.603L202.092 140.014L200.975 141.118L202.562 145.317L204.073 145.206L205.193 148.272L205.291 148.491L205.069 148.57C204.57 148.742 204.096 148.98 203.66 149.278L203.044 149.76C202.857 149.945 202.68 150.141 202.514 150.347C201.847 151.18 201.384 152.158 201.166 153.203V153.251L201.121 153.279L198.9 155.037L200.985 153.111C201.133 152.025 201.561 150.997 202.226 150.125C202.391 149.9 202.573 149.687 202.772 149.49L203.089 149.189L203.428 148.932C203.819 148.641 204.246 148.402 204.698 148.221L203.746 145.72L202.191 145.86L202.143 145.679L200.518 141.134L200.452 141.001L200.556 140.915L201.642 139.9L199.398 133.315Z" fill="#6894B2"/>
<path d="M184.495 129.669C182.61 125.31 185.795 124.213 194.05 126.378L199.918 130.674C199.495 131.82 198.95 132.917 198.293 133.946C196.409 136.859 193.722 139.165 190.557 140.585C188.403 137.678 186.382 134.039 184.495 129.669Z" fill="#3B302F"/>
<path d="M191.22 87.9051C190.604 86.5034 190.417 84.9507 190.683 83.443C191.089 81.3549 192.372 79.6708 194.53 78.3909C196.3 77.3256 198.306 76.715 200.369 76.6137C201.595 76.5414 202.824 76.6353 204.025 76.8929C205.639 77.2674 206.626 77.9022 206.986 78.7971C207.47 80.0791 206.779 81.7389 204.914 83.7763C203.185 85.647 201.145 87.2031 198.884 88.3747C196.936 89.3697 194.838 90.0357 192.673 90.3455C192.085 89.5981 191.597 88.7779 191.22 87.9051Z" fill="#2D1A1A"/>
<path d="M211.904 94.817C211.133 95.3407 210.283 95.7411 209.388 96.0039C207.959 96.3882 206.451 96.3651 205.034 95.9373C203.581 95.5151 202.266 94.7132 201.226 93.6142L201.182 89.4887L214.558 85.9819C215.231 87.4394 215.387 89.0823 215.002 90.6407C214.575 92.3459 213.542 93.738 211.904 94.817Z" fill="#876F6E"/>
<path d="M202.334 91.7735L200.582 88.9173L214.681 79.3016C216.036 80.7614 216.679 82.1609 216.611 83.5002C216.516 85.4403 215.173 87.1962 212.584 88.7682C209.865 90.4142 206.448 91.416 202.334 91.7735Z" fill="#3B302F"/>
<path d="M208.23 79.162C208.141 78.4925 207.965 77.8375 207.706 77.2135C207.264 76.1557 206.656 75.4787 205.882 75.1825C204.794 74.7594 203.537 75.1338 202.111 76.3059C200.835 77.3343 199.816 78.6457 199.134 80.1364C198.429 81.7295 198.195 83.4918 198.462 85.2139C198.583 86.228 198.851 87.219 199.258 88.1558L193.425 88.4319C192.54 86.6659 192.016 84.7412 191.883 82.7703C191.699 78.2893 192.903 74.8154 195.494 72.3485C197.495 70.4612 200.059 69.2808 202.794 68.9877C205.84 68.6069 208.263 69.2723 210.061 70.9839C211.717 72.577 212.55 74.8513 212.558 77.807L208.23 79.162Z" fill="#3B302F"/>
<path d="M197.265 88.0002C198.342 85.8171 199.691 83.7793 201.28 81.9356C204.631 78.0237 208.873 75.139 214.006 73.2815C215.385 73.7532 216.354 74.5456 216.912 75.6584C217.366 76.5825 217.491 77.6335 217.268 78.6383C217.162 79.1475 216.983 79.6391 216.738 80.0982C214.605 81.1771 212.551 82.4052 210.591 83.7731C207.518 85.9332 204.698 88.4339 202.188 91.2277L197.265 88.0002Z" fill="#564745"/>
<path d="M204.761 85.9502C205.313 85.4213 205.896 84.9264 206.507 84.4682C207.059 84.0535 207.635 83.67 208.23 83.3193L207.319 81.7992L207.488 81.6564C209.001 80.3627 210.738 79.3551 212.612 78.6829L212.771 78.6384L212.86 78.7653L213.682 80.3236L216.982 79.0541L213.523 80.7234L213.46 80.5902L212.612 79.1081C211.766 79.4522 210.951 79.8684 210.175 80.3522C209.411 80.8139 208.68 81.3293 207.989 81.8944L208.887 83.4812L208.668 83.605C208.01 83.9733 207.374 84.3803 206.764 84.8236C205.896 85.4583 205.3 85.9153 204.977 86.1945C204.501 86.5881 203.942 87.1021 203.308 87.7368C202.963 88.0648 202.452 88.6191 201.775 89.3998C202.197 88.7709 202.656 88.1679 203.149 87.5941C203.656 87.0165 204.193 86.4677 204.761 85.9502Z" fill="#2D1A1A"/>
<path d="M189.589 92.4909C189.878 90.5868 190.685 89.1005 192.01 88.0321C193.561 86.7627 195.458 86.2623 197.7 86.531C199.943 86.7997 201.611 87.7316 202.705 89.3269C203.651 90.7656 203.888 92.5173 203.419 94.5822L189.589 92.4909Z" fill="url(#paint10_linear_1_6310)"/>
<path d="M183.476 93.3222C185.435 92.2178 187.63 91.5976 189.877 91.5133L177.862 101.596L176.872 101.215C177.323 99.9795 177.929 98.8066 178.675 97.7238C179.919 95.9098 181.561 94.4041 183.476 93.3222Z" fill="#3B302F"/>
<path d="M175.891 102.992C178.297 98.8006 181.384 95.5954 185.152 93.3761C188.92 91.1568 192.712 90.3211 196.529 90.869C198.141 91.1076 199.716 91.549 201.216 92.1829C204.055 93.393 206.239 95.1236 207.766 97.3748C208.721 98.815 209.443 100.397 209.905 102.062C210.219 103.226 210.458 104.409 210.619 105.604C210.884 107.463 210.935 109.347 210.772 111.218C207.203 111.943 203.554 112.202 199.918 111.989C191.313 111.481 183.305 108.482 175.891 102.992Z" fill="#4D9FEE"/>
<path d="M210.188 107.613C211.08 108.718 211.827 109.934 212.41 111.23C213.462 113.481 213.935 115.96 213.787 118.441C213.524 122.346 212.139 125.501 209.629 127.904C207.061 130.32 204.368 131.46 201.55 131.325C200.545 131.27 199.557 131.056 198.62 130.69C197.978 129.348 197.517 127.927 197.249 126.463C196.74 123.959 196.839 121.369 197.538 118.91C198.596 115.216 200.554 112.344 203.412 110.294C205.413 108.851 207.742 107.929 210.188 107.613Z" fill="url(#paint11_linear_1_6310)"/>
<path d="M205.779 111.989C206.954 110.362 208.179 109.64 209.455 109.824C210.73 110.008 211.693 111.044 212.343 112.931C212.99 114.835 213.132 117.039 212.768 119.542C212.404 122.044 211.643 124.104 210.486 125.721C209.331 127.364 208.114 128.093 206.836 127.907C205.559 127.721 204.595 126.678 203.945 124.778C203.311 122.893 203.17 120.697 203.523 118.19C203.877 115.683 204.629 113.616 205.779 111.989Z" fill="#98A8B4"/>
<path d="M205.513 113.484C206.44 112.119 207.422 111.507 208.458 111.649C209.495 111.791 210.261 112.65 210.756 114.226C211.268 115.8 211.373 117.625 211.073 119.7C210.849 121.538 210.214 123.302 209.214 124.861C208.274 126.225 207.293 126.836 206.269 126.692C205.244 126.548 204.479 125.689 203.971 124.115C203.463 122.334 203.362 120.462 203.676 118.637C203.972 116.562 204.584 114.844 205.513 113.484Z" fill="url(#paint12_linear_1_6310)"/>
<path d="M209.632 101.278C210.24 101.051 210.898 100.994 211.537 101.113C212.024 101.213 212.488 101.405 212.904 101.678C213.326 101.936 213.658 102.317 213.856 102.77C214.138 103.468 213.986 104.303 213.4 105.274C212.943 105.995 212.411 106.665 211.813 107.273C210.257 108.966 208.189 110.108 205.608 110.7L204.974 108.323C205.901 108.064 206.789 107.682 207.614 107.187C208.631 106.59 209.55 105.841 210.34 104.966C211.121 104.141 211.425 103.612 211.251 103.379C211.137 103.24 210.803 103.252 210.245 103.424L209.632 101.278Z" fill="#3B302F"/>
<path d="M202.14 110.304C202.931 109.9 203.808 109.499 204.77 109.101L205.482 108.818L206.116 110.656C204.61 112.935 203.545 115.477 202.978 118.149C202.261 121.538 202.342 125.047 203.216 128.399C202.446 128.955 201.551 129.311 200.61 129.434C199.853 129.543 199.083 129.504 198.341 129.319C197.171 126.355 196.735 123.152 197.072 119.983C197.193 118.465 197.468 116.964 197.893 115.502C198.441 113.756 199.474 112.201 200.87 111.018C201.268 110.737 201.693 110.498 202.14 110.304Z" fill="#3B302F"/>
<path d="M201.41 113.407C202.441 112.683 203.614 112.187 204.853 111.954C204.198 112.699 203.492 113.399 202.743 114.048C202.339 114.432 201.879 114.832 201.356 115.245C199.537 118.658 198.346 122.369 197.84 126.203C197.133 123.683 197.194 121.01 198.017 118.526C198.295 117.693 198.641 116.884 199.052 116.108C199.64 115.053 200.444 114.133 201.41 113.407Z" fill="#1D496A"/>
<path d="M178.377 98.476C180.048 97.3215 181.964 96.5709 183.974 96.2831C186.142 95.967 188.355 96.2162 190.398 97.0067C191.521 97.4135 192.579 97.9812 193.54 98.6918L193.289 101.865C193.814 102.856 194.719 103.59 195.796 103.9L198.954 103.468L201.099 107.851L205.224 107.901C205.636 108.152 205.958 108.527 206.145 108.971C206.457 109.693 206.449 110.514 206.122 111.23L201.213 115.191C200.327 116.286 199.622 117.516 199.125 118.834C198.38 120.796 198.073 122.897 198.224 124.991C198.327 126.336 198.594 127.664 199.017 128.945C199.134 129.604 199.134 130.279 199.017 130.938C198.871 131.807 198.505 132.624 197.954 133.312C197.057 134.574 195.989 135.706 194.78 136.676C191.926 139.016 188.455 140.482 184.787 140.896C184.238 140.978 183.676 140.89 183.178 140.646C182.684 140.408 182.278 140.019 182.02 139.535C181.035 137.797 179.922 136.135 178.691 134.562C177.671 133.278 176.984 132.369 176.631 131.836C175.841 130.678 175.199 129.425 174.721 128.107C174.427 127.266 174.253 126.388 174.203 125.498C174.185 124.947 174.236 124.396 174.356 123.858C174.504 123.102 174.596 122.566 174.632 122.249C174.736 121.075 174.628 119.893 174.314 118.758C174.101 118.103 173.924 117.436 173.785 116.762C173.327 114.384 173.234 111.951 173.508 109.545C173.807 106.509 174.594 103.541 175.838 100.755C176.588 99.8947 177.441 99.1295 178.377 98.476Z" fill="url(#paint13_linear_1_6310)"/>
<path d="M208.026 119.539C207.929 120.372 207.645 121.172 207.195 121.881C206.764 122.515 206.316 122.785 205.853 122.722C205.389 122.658 205.041 122.268 204.802 121.547C204.359 119.907 204.614 118.157 205.507 116.711C205.93 116.089 206.377 115.809 206.849 115.87C207.321 115.931 207.671 116.323 207.9 117.044C208.13 117.855 208.173 118.708 208.026 119.539Z" fill="url(#paint14_linear_1_6310)"/>
<path d="M178.818 126.838C179.033 126.435 179.204 126.009 179.325 125.568L180.3 124.264C181.206 124.647 182.089 125.084 182.943 125.571L184.038 126.206C184.172 126.361 184.279 126.537 184.355 126.726C184.612 127.316 184.593 127.99 184.301 128.564C183.715 128.681 183.156 128.908 182.655 129.234C182.431 129.388 182.219 129.559 182.02 129.745C181.86 129.884 181.674 129.992 181.474 130.062C181.08 130.163 180.566 130.062 179.925 129.745C179.519 129.558 179.145 129.307 178.818 129.002C178.399 128.589 178.215 128.199 178.259 127.834C178.281 127.709 178.328 127.59 178.399 127.485C178.589 127.197 178.729 126.981 178.818 126.838Z" fill="#6894B2"/>
<path d="M179.157 126.381C179.045 126.703 178.889 127.008 178.694 127.288C178.482 127.516 178.368 127.818 178.377 128.129C178.444 128.431 178.587 128.711 178.792 128.942C179.018 129.168 179.273 129.362 179.551 129.519C179.825 129.689 180.119 129.822 180.427 129.916C180.722 130.019 181.031 130.08 181.344 130.097C181.769 129.766 182.225 129.476 182.705 129.23L184.219 128.628C184.514 128.201 184.59 127.659 184.422 127.168C184.534 127.412 184.579 127.681 184.552 127.948C184.532 128.219 184.447 128.48 184.301 128.71L184.282 128.735H184.261L182.801 129.402C182.321 129.687 181.871 129.983 181.442 130.29L181.423 130.319H181.376C181.025 130.314 180.678 130.258 180.344 130.154C180.025 130.038 179.716 129.899 179.418 129.738C179.126 129.551 178.859 129.327 178.624 129.072C178.374 128.812 178.213 128.478 178.167 128.12C178.131 127.938 178.164 127.749 178.259 127.59C178.331 127.434 178.422 127.288 178.529 127.155C178.729 126.897 178.896 126.614 179.024 126.314C179.272 125.701 179.398 125.046 179.395 124.385C179.456 125.059 179.375 125.739 179.157 126.381Z" fill="#6894B2"/>
<path d="M184.571 127.79C184.46 128.36 184.23 128.901 183.895 129.376C183.475 129.969 182.909 130.442 182.251 130.751C181.354 130.825 180.457 130.59 179.712 130.084C179.101 129.678 178.628 129.094 178.358 128.412C179.824 128.719 181.34 128.705 182.8 128.37C183.406 128.229 183.999 128.035 184.571 127.79Z" fill="#334B94"/>
<path d="M183.473 127.006C183.489 127.225 183.181 127.447 182.556 127.672C181.926 127.882 181.273 128.01 180.611 128.053C179.341 128.129 178.688 128.015 178.618 127.713C178.576 127.529 178.772 127.307 179.208 127.047C179.631 126.784 180.099 126.601 180.588 126.508C181.227 126.359 181.89 126.348 182.534 126.476C183.162 126.612 183.476 126.787 183.473 127.006Z" fill="white"/>
<path d="M187.608 132.417C187.106 133.494 186.311 134.408 185.314 135.054C184.467 135.579 183.727 135.702 183.092 135.425C182.508 135.146 182.122 134.494 181.934 133.47C182.853 133.519 183.775 133.472 184.685 133.331C185.694 133.152 186.677 132.845 187.608 132.417Z" fill="#27405A"/>
<path d="M185.695 117.635C186.597 117.36 187.526 117.178 188.466 117.092C189.479 117.003 190.5 117.039 191.506 117.197C191.715 117.453 191.86 117.755 191.931 118.079C192.006 118.429 192 118.792 191.912 119.139C190.546 120.277 188.904 121.034 187.151 121.332C186.636 121.408 186.115 121.447 185.593 121.449C185.436 120.975 185.345 120.482 185.323 119.983C185.266 119.182 185.392 118.378 185.695 117.635Z" fill="url(#paint15_linear_1_6310)"/>
<path d="M176.663 119.063C177.077 119.016 177.495 119.047 177.897 119.155C178.393 119.535 178.758 120.059 178.945 120.656C179.146 121.211 179.211 121.806 179.135 122.392C178.512 122.48 177.88 122.48 177.257 122.392C176.692 122.314 176.141 122.159 175.619 121.931C175.469 121.592 175.351 121.239 175.267 120.878C175.145 120.464 175.072 120.038 175.048 119.608C175.54 119.311 176.091 119.125 176.663 119.063Z" fill="url(#paint16_linear_1_6310)"/>
<path d="M176.796 117.803C177.35 117.85 177.858 118.13 178.192 118.574C178.358 118.821 178.447 119.111 178.446 119.408L175.228 119.047C175.169 118.746 175.247 118.434 175.441 118.196C175.726 117.86 176.178 117.729 176.796 117.803Z" fill="#A9D1F3"/>
<path d="M176.752 100.694C176.631 101.463 176.658 102.249 176.831 103.008C176.927 103.372 177.085 103.716 177.298 104.026L177.466 104.236L177.682 104.442L178.142 104.709C178.496 104.848 178.872 104.924 179.253 104.934C179.635 104.966 180.019 104.966 180.401 104.934C180.78 104.897 181.156 104.839 181.528 104.76L182.636 104.442L184.73 103.452L186.612 102.094C187.8 101.079 188.841 99.9045 189.706 98.603L189.744 98.5267L189.817 98.5427C190.793 98.6511 191.718 99.0389 192.48 99.6597C191.701 99.1656 190.815 98.8673 189.896 98.7902C189.504 99.4607 189.058 100.098 188.56 100.694C188.067 101.319 187.516 101.897 186.916 102.421L184.974 103.858C184.636 104.072 184.286 104.268 183.927 104.445L183.372 104.686L182.791 104.906L181.639 105.223C181.237 105.313 180.826 105.361 180.414 105.366C180.015 105.394 179.614 105.394 179.214 105.366C178.796 105.316 178.385 105.209 177.996 105.048C177.804 104.952 177.622 104.835 177.456 104.699L177.069 104.198C176.835 103.858 176.685 103.467 176.631 103.059C176.508 102.27 176.549 101.466 176.752 100.694Z" fill="#6894B2"/>
<path d="M182.413 126.479C182.625 126.498 182.731 126.546 182.731 126.622C182.731 126.746 182.531 126.876 182.08 127.015C181.904 127.055 181.723 127.064 181.544 127.041C181.369 127.019 181.268 126.977 181.246 126.917C181.223 126.857 181.401 126.692 181.759 126.565C181.969 126.49 182.192 126.46 182.413 126.479Z" fill="white"/>
<path d="M181.639 133.416C182.543 133.432 183.446 133.373 184.339 133.239C185.244 133.109 186.134 132.896 186.999 132.604L187.576 132.363L185.825 133.115C185.347 133.256 184.859 133.362 184.365 133.432C183.857 133.499 183.368 133.543 182.902 133.559C182.479 133.576 182.054 133.564 181.633 133.521L180.728 133.432L180.389 133.359C180.719 133.385 181.138 133.407 181.639 133.416Z" fill="#6894B2"/>
<path d="M187.25 132.702C186.718 133.23 186.064 133.616 185.346 133.826C184.318 134.152 183.208 134.112 182.207 133.712C183.07 133.706 183.93 133.621 184.777 133.458C185.624 133.286 186.452 133.033 187.25 132.702Z" fill="white"/>
<path d="M190.855 118.698C190.888 118.886 190.882 119.079 190.839 119.266L190.331 119.167C190.365 119.037 190.37 118.9 190.347 118.767V118.745L190.858 118.698M190.664 118.139L190.23 118.383C190.17 118.26 190.083 118.151 189.976 118.066L190.322 117.692C190.456 117.825 190.571 117.975 190.664 118.139ZM189.167 120.078L189.56 120.024L189.716 120.497L189.442 120.557H189.163V120.078M188.094 120.154L188.443 119.777L188.76 119.989L188.567 120.462C188.392 120.376 188.227 120.27 188.078 120.145M189.89 119.827C190 119.751 190.092 119.65 190.156 119.532L190.591 119.802C190.494 119.97 190.362 120.116 190.204 120.23L189.887 119.827M189.617 117.844C189.494 117.801 189.364 117.78 189.233 117.78V117.263C189.431 117.255 189.629 117.292 189.811 117.371L189.617 117.844ZM188.227 118.317C188.145 118.427 188.09 118.554 188.065 118.688L187.58 118.568C187.601 118.378 187.674 118.198 187.792 118.047L188.227 118.317ZM188.49 118.022L188.173 117.619C188.316 117.487 188.488 117.391 188.675 117.339L188.836 117.831C188.707 117.869 188.587 117.934 188.484 118.022M187.726 119.697C187.629 119.523 187.563 119.333 187.532 119.136L188.062 119.066C188.078 119.199 188.12 119.329 188.186 119.447L187.726 119.697Z" fill="#7EE3F7"/>
<path d="M189.322 115.28C190.086 115.376 190.785 115.759 191.277 116.352C191.417 116.583 191.536 116.827 191.632 117.079C190.213 117.6 188.694 117.791 187.189 117.638C186.287 117.568 185.4 117.373 184.552 117.057C185.195 116.236 186.086 115.645 187.091 115.372C187.819 115.179 188.581 115.148 189.322 115.28Z" fill="#A9D1F3"/>
<path d="M182.829 116.562C183.555 116.727 184.149 116.844 184.613 116.905C185.201 116.989 185.795 117.035 186.39 117.041C186.767 117.041 187.631 117.013 188.989 116.968L191.772 116.895V117.365C189.022 118.239 186.483 118.191 184.156 117.222C183.692 117.046 183.248 116.825 182.829 116.562Z" fill="#132636"/>
<path d="M192.724 119.935C193.039 119.829 193.217 119.814 193.257 119.888C193.321 120.006 193.026 120.324 192.375 120.84C191.723 121.356 191.353 121.562 191.264 121.459C191.207 121.405 191.245 121.275 191.375 121.068C191.509 120.855 191.671 120.661 191.858 120.491C192.106 120.249 192.401 120.06 192.724 119.935Z" fill="white"/>
<path d="M189.947 118.856C189.978 119.046 189.928 119.24 189.811 119.393C189.697 119.548 189.523 119.648 189.331 119.669C189.142 119.698 188.948 119.648 188.795 119.532C188.642 119.417 188.542 119.244 188.519 119.053C188.488 118.863 188.539 118.668 188.659 118.517C188.835 118.284 189.134 118.18 189.417 118.255C189.699 118.329 189.909 118.567 189.947 118.856Z" fill="#7EE3F7"/>
<path d="M176.942 121.338C177.006 121.436 177.089 121.52 177.186 121.586L176.996 121.903C176.854 121.809 176.727 121.692 176.622 121.557L176.939 121.325M176.752 121.008L176.374 121.154L176.263 120.675L176.631 120.624L176.752 121.008ZM177.669 121.706L177.85 121.655L177.993 122.014L177.72 122.074C177.635 122.096 177.547 122.096 177.463 122.074L177.504 121.693H177.669M178.304 121.138L178.675 121.275C178.61 121.428 178.518 121.568 178.402 121.687L178.135 121.443C178.211 121.349 178.268 121.241 178.304 121.125M178.389 120.361V120.338L178.783 120.31C178.808 120.465 178.808 120.624 178.783 120.779L178.402 120.738C178.423 120.613 178.423 120.486 178.402 120.361M178.116 119.65L178.415 119.421C178.509 119.558 178.59 119.703 178.656 119.856L178.3 119.999L178.113 119.681M178.06 119.101L177.846 119.437C177.75 119.374 177.643 119.333 177.529 119.317L177.574 118.932C177.745 118.964 177.911 119.021 178.066 119.101M176.739 119.891L176.65 120.256L176.266 120.215L176.393 119.751L176.739 119.891ZM177.209 119.358C177.103 119.407 177.009 119.476 176.929 119.561L176.638 119.32C176.758 119.187 176.904 119.079 177.066 119.002L177.209 119.358Z" fill="#7EE3F7"/>
<path d="M178.075 120.468C178.107 120.651 178.074 120.838 177.983 120.998C177.911 121.139 177.775 121.236 177.618 121.259C177.467 121.281 177.315 121.22 177.222 121.1C176.967 120.825 176.913 120.42 177.085 120.088C177.143 119.947 177.273 119.849 177.424 119.831C177.581 119.809 177.738 119.866 177.844 119.983C177.973 120.114 178.055 120.285 178.075 120.468Z" fill="#7EE3F7"/>
<path d="M195.97 98.8568C196.689 97.9715 197.461 97.1301 198.281 96.3371C200.096 94.6596 202.156 93.2685 204.39 92.2115C204.798 91.9831 205.307 92.0365 205.659 92.3448C205.856 92.5231 205.988 92.7621 206.034 93.0239C206.085 93.2907 206.049 93.567 205.929 93.8109C205.374 94.2171 204.726 94.709 203.993 95.2961C201.847 97.0219 199.826 98.8968 197.944 100.907L195.97 98.8568Z" fill="#3B302F"/>
<path d="M194.555 102.808C194.219 102.482 193.931 102.109 193.701 101.7C193.708 101.033 193.791 100.368 193.949 99.7201C194.143 98.9406 194.465 98.1987 194.901 97.524C195.746 97.3944 196.61 97.5496 197.357 97.9652C198.044 98.3553 198.597 98.9437 198.944 99.6534C199.328 100.399 199.506 101.234 199.461 102.072C198.785 102.389 198.217 102.646 197.754 102.821C197.205 103.033 196.523 103.262 195.71 103.497C195.285 103.342 194.893 103.108 194.555 102.808Z" fill="url(#paint17_linear_1_6310)"/>
<path d="M214.802 88.4826L214.919 87.9749L214.849 88.5017C214.754 88.9574 214.627 89.406 214.468 89.844C214.434 89.9424 214.301 90.2281 214.069 90.6977C213.967 90.8818 213.78 91.1737 213.504 91.5704L213.139 91.9957C212.923 92.2305 212.79 92.3638 212.748 92.4019L212.336 92.8113L210.918 93.7633C210.683 93.8903 210.343 94.0457 209.899 94.2298L208.915 94.5757C208.616 94.6674 208.312 94.7404 208.005 94.7947C207.548 94.887 207.086 94.9495 206.62 94.9819C206.451 95.0083 206.278 95.0158 206.106 95.0041C206.285 94.9968 206.463 94.9724 206.636 94.9312L208.858 94.3948C209.184 94.2994 209.502 94.1784 209.81 94.033C210.148 93.888 210.478 93.7259 210.8 93.5475C210.862 93.5221 211.179 93.3222 211.752 92.9477L212.593 92.2242C212.634 92.1861 212.765 92.0496 212.983 91.818C213.111 91.6956 213.227 91.5618 213.329 91.4181L213.92 90.5867L214.326 89.7806C214.515 89.3596 214.674 88.9259 214.802 88.4826Z" fill="#2D1A1A"/>
<path d="M210.724 90.1169C210.97 90.2435 211.197 90.4026 211.4 90.5898C211.608 90.787 211.795 91.005 211.959 91.2404L212.206 91.6783L212.362 92.148L212.454 92.6526V93.1476C212.431 93.4298 212.366 93.7068 212.26 93.9695C212.172 94.2358 212.039 94.4848 211.866 94.7058L212.117 93.9442C212.185 93.6786 212.219 93.4058 212.219 93.1318L212.2 92.6653L212.114 92.2051L211.962 91.7576C211.91 91.6191 211.844 91.4862 211.766 91.361C211.637 91.1225 211.482 90.8998 211.302 90.6977L210.724 90.1169Z" fill="#2D1A1A"/>
<path d="M206.919 92.348L207.236 93.9347C207.315 94.2107 207.415 94.4802 207.535 94.7408C207.626 94.9749 207.732 95.2029 207.853 95.423L208.239 96.0292C208.048 95.8739 207.882 95.691 207.744 95.4866L207.303 94.8519C207.169 94.59 207.062 94.3144 206.986 94.0299L206.798 93.1604V92.3892L206.888 91.6498L206.919 92.348Z" fill="#2D1A1A"/>
<path d="M211.114 89.9171C212.384 89.3077 213.12 89.1141 213.292 89.3427C213.463 89.5712 213.18 89.9774 212.558 90.685C211.591 91.7395 210.317 92.4623 208.915 92.751C207.538 93.0684 206.782 93.0684 206.659 92.7288C206.601 92.5341 207.414 91.947 209.096 90.9675C209.779 90.5783 210.452 90.2281 211.114 89.9171Z" fill="#B3F1FD"/>
<path d="M214.834 74.1066C215.102 74.3025 215.297 74.5832 215.386 74.9032C214.373 75.1162 213.386 75.4353 212.441 75.8552C210.562 76.6837 208.85 77.8473 207.389 79.289C207.112 79.0922 206.709 78.7749 206.183 78.3369C206.719 77.7547 207.307 77.2235 207.941 76.7502C209.647 75.4252 211.584 74.4288 213.653 73.8115C214.071 73.74 214.499 73.8471 214.834 74.1066Z" fill="#B3F1FD"/>
<path d="M196.672 72.4722L196.145 73.0848C195.95 73.2855 195.775 73.5056 195.624 73.7417L195.155 74.4398C194.732 75.2649 194.482 75.7939 194.406 76.0266C194.183 76.5652 193.991 77.1162 193.831 77.6768C193.758 78.064 193.647 78.6288 193.498 79.3683C193.498 79.4 193.409 79.9268 193.267 80.955C193.222 81.9071 193.203 82.38 193.203 82.3959C193.181 83.2591 193.184 83.9825 193.203 84.576L193.267 85.3916C193.194 85.1207 193.141 84.8449 193.108 84.5665L192.981 83.643L192.896 80.9328C192.905 80.3848 192.948 79.838 193.025 79.2953C193.076 78.8722 193.182 78.2946 193.343 77.5626C193.685 76.5047 193.874 75.9314 193.908 75.8425C193.978 75.6606 194.248 75.1147 194.72 74.205C195.058 73.7121 195.425 73.2395 195.818 72.7896C195.992 72.5626 196.184 72.3503 196.393 72.1549L197.326 71.4186L198.277 70.8665C198.928 70.5288 199.619 70.277 200.334 70.1175L201.162 69.9811L200.372 70.2064C199.689 70.4436 199.03 70.7454 198.404 71.1077L197.544 71.6915L196.672 72.4722Z" fill="#B3F1FD"/>
<path d="M207.941 89.1553C208.719 88.7523 209.48 88.3302 210.235 87.8859C211.045 87.4004 211.781 86.9339 212.438 86.4832L213.45 85.8073C213.467 85.8073 213.759 85.5957 214.326 85.1726L216.119 83.8492L214.444 85.3439C213.996 85.7343 213.723 85.9786 213.625 86.0453L212.641 86.7625C211.886 87.3051 211.143 87.7875 210.42 88.216C209.827 88.5629 209.054 88.9808 208.1 89.4695C207.322 89.8409 206.611 90.1486 205.974 90.3931L203.863 91.126L207.941 89.1553Z" fill="#1A0E0C"/>
<path d="M212.654 83.9159C212.882 84.0406 213.095 84.1919 213.288 84.3666C213.526 84.5645 213.732 84.7979 213.898 85.0585L214.12 85.4742C214.182 85.6195 214.226 85.7719 214.25 85.928L214.307 86.3405L214.263 86.7245C214.237 86.9102 214.183 87.0908 214.104 87.2609L214.012 87.4608L214.053 87.245C214.102 87.0737 214.126 86.8963 214.123 86.7182V86.3659L214.044 85.9566L213.898 85.5757L213.682 85.2045C213.362 84.7615 212.984 84.3634 212.558 84.0207L211.924 83.5891C212.182 83.6608 212.428 83.771 212.654 83.9159Z" fill="#1A0E0C"/>
<path d="M214.666 84.5569L214.856 84.7442L214.669 84.5792C214.427 84.3944 214.119 84.3174 213.818 84.3666C213.395 84.3952 213.014 84.6334 212.803 85.0013C212.678 85.1916 212.602 85.4095 212.581 85.636C212.566 85.8586 212.619 86.0804 212.736 86.2707C212.855 86.4573 213.042 86.5912 213.257 86.6452C213.472 86.7116 213.7 86.7289 213.923 86.696C214.13 86.6476 214.326 86.558 214.498 86.4326C214.665 86.3302 214.8 86.1814 214.884 86.0041C215.057 85.7584 215.109 85.4486 215.027 85.16L214.948 84.9156L215.05 85.1568C215.123 85.4559 215.083 85.7716 214.936 86.0422C214.85 86.2276 214.729 86.3946 214.58 86.5341C214.399 86.6921 214.18 86.8013 213.946 86.8515C213.702 86.9308 213.44 86.9308 213.196 86.8515C212.927 86.7693 212.69 86.6037 212.52 86.3786C212.366 86.1425 212.311 85.8555 212.365 85.5788C212.385 85.3151 212.497 85.0669 212.682 84.8776C212.962 84.5293 213.378 84.3187 213.825 84.3C214.127 84.277 214.427 84.3688 214.666 84.5569Z" fill="#1A0E0C"/>
<path d="M173.756 118.402C174.51 118.62 175.277 118.788 176.054 118.904C176.899 119.037 177.755 119.094 178.611 119.075L178.678 119.558C178.134 119.667 177.578 119.704 177.025 119.666C175.834 119.578 174.697 119.138 173.756 118.402Z" fill="#132636"/>
<path d="M189.912 112.008C189.236 112.062 188.568 112.184 187.916 112.373C185.93 112.946 184.162 114.101 182.839 115.689L182.543 114.553C183.135 114.026 183.78 113.562 184.467 113.166C186.137 112.277 188.024 111.876 189.912 112.008Z" fill="#27405A"/>
<path d="M178.129 116.187L178.304 117.139C177.618 116.686 176.839 116.391 176.025 116.276C175.207 116.154 174.372 116.227 173.588 116.489C174.325 116.002 175.19 115.746 176.073 115.753C176.781 115.753 177.481 115.901 178.129 116.187Z" fill="#27405A"/>
<path d="M190.442 100.202L192.244 100.685L192.127 102.589L194.752 105.331L197.801 104.801L200.236 108.784L196.427 111.922C195.924 111.025 195.352 110.168 194.717 109.358C192.864 106.968 190.575 104.952 187.97 103.417L190.442 100.202Z" fill="white"/>
<path d="M177.342 100.18C178.121 99.5602 178.986 99.0557 179.909 98.6823C182.533 97.6075 185.382 97.6075 188.456 98.6823C188.226 99.1793 187.944 99.6506 187.614 100.088C187.076 100.839 186.42 101.499 185.672 102.043C184.94 101.789 184.184 101.609 183.416 101.504C181.328 101.27 179.217 101.646 177.339 102.586C177.226 102.22 177.174 101.838 177.186 101.456C177.171 101.025 177.223 100.595 177.342 100.18Z" fill="white"/>
<path d="M203.273 126.838C203.327 126.79 203.4 126.769 203.471 126.783C203.542 126.797 203.603 126.843 203.635 126.907C203.746 127.031 203.73 127.152 203.587 127.266C203.067 127.651 202.49 127.95 201.877 128.155C201.517 128.288 201.143 128.377 200.763 128.421C200.385 128.48 200.001 128.493 199.62 128.459C199.445 128.459 199.373 128.367 199.398 128.209C199.39 128.137 199.418 128.066 199.471 128.017C199.524 127.969 199.597 127.948 199.668 127.961C200.364 128.007 201.062 127.912 201.721 127.682C202.279 127.483 202.803 127.198 203.273 126.838Z" fill="#1D496A"/>
<!--<path d="M217.278 78.6322C217.486 77.6299 217.358 76.5867 216.912 75.665C216.309 74.5094 215.26 73.6498 214.009 73.2849C213.32 73.5323 212.648 73.7989 211.994 74.0782C211.612 72.9072 210.954 71.8456 210.074 70.984C208.265 69.2703 205.842 68.6039 202.806 68.9847C200.071 69.2787 197.508 70.4602 195.507 72.3486C193.343 74.4178 192.142 77.1893 191.905 80.6632C191.301 81.487 190.889 82.4359 190.699 83.4401C190.431 84.9521 190.618 86.5099 191.239 87.9147C191.321 88.1115 191.41 88.3082 191.509 88.5018C190.723 89.2999 190.151 90.2818 189.843 91.358L189.097 91.5802C187.129 91.7761 185.222 92.3757 183.495 93.3414C181.584 94.4278 179.941 95.9299 178.688 97.7368C178.469 98.0541 178.262 98.3873 178.069 98.7205C177.257 99.3155 176.513 99.9965 175.847 100.752C174.603 103.543 173.816 106.517 173.515 109.558C173.257 111.841 173.321 114.148 173.705 116.413C173.67 116.441 173.632 116.467 173.594 116.492L173.721 116.445C173.74 116.559 173.762 116.67 173.785 116.778C173.931 117.444 174.079 118.031 174.229 118.539C174.07 118.501 173.912 118.457 173.753 118.412C173.931 118.548 174.117 118.675 174.308 118.793C174.628 119.922 174.736 121.1 174.625 122.268C174.594 122.585 174.505 123.119 174.356 123.871C174.244 124.413 174.191 124.967 174.197 125.521C174.253 126.409 174.435 127.286 174.737 128.123C175.205 129.447 175.851 130.702 176.657 131.852C177.006 132.381 177.693 133.291 178.719 134.581C179.947 136.15 181.061 137.804 182.052 139.532C182.309 140.011 182.708 140.399 183.194 140.643C183.697 140.885 184.26 140.973 184.813 140.896C186.43 140.695 188.017 140.301 189.541 139.722C190.861 141.984 191.708 143.46 192.08 144.149C192.645 145.207 193.163 146.297 193.635 147.418C192.88 147.195 192.103 147.052 191.318 146.99C188.28 146.712 185.387 147.527 182.639 149.433C179.891 151.339 178.113 153.757 177.307 156.685C177.173 157.154 177.067 157.631 176.99 158.113C176.898 158.272 176.809 158.43 176.72 158.589C171.854 162.75 167.12 167.045 162.519 171.473C158.626 175.218 154.834 179.042 151.142 182.945C151.221 183.158 151.307 183.371 151.396 183.58L150.555 183.85C150.44 183.628 150.32 183.406 150.189 183.184C141.962 180.301 133.556 177.958 125.024 176.17C119.699 175.051 114.267 174.157 108.727 173.488L100.302 165.237C98.2996 164.526 96.3577 163.656 94.4944 162.635C93.661 162.18 92.1798 161.292 90.0515 159.969C88.8774 159.239 88.2269 158.959 88.0999 159.128C87.8999 159.328 88.2206 159.985 89.052 161.096C90.0358 162.405 91.707 163.675 94.0663 164.904C95.567 165.693 97.1332 166.351 98.7468 166.872C95.2647 165.824 93.3233 165.719 92.9235 166.554C92.5618 167.287 92.4718 168.125 92.6699 168.919L93.3838 169.49C93.2884 170.452 93.3733 171.071 93.6375 171.346C93.7234 171.419 93.8535 171.521 94.0341 171.648C93.3996 172.536 93.3205 173.102 93.7964 173.346C94.9784 174.118 96.2819 174.687 97.652 175.028C100.614 175.791 103.602 176.701 106.617 177.757C110.38 181.464 114.548 184.738 119.042 187.515C125.453 191.499 132.559 194.234 139.987 195.576C143.102 196.15 146.261 196.448 149.428 196.465C149.791 195.964 150.119 195.439 150.412 194.894C150.88 194.952 151.352 194.979 151.824 194.973C153.374 194.979 154.902 194.597 156.267 193.862C156.959 193.476 157.6 193.001 158.171 192.45L158.488 192.672C165.44 188.075 171.966 182.866 177.989 177.106C177.295 178.769 176.587 180.382 175.863 181.946C174.45 184.954 174.376 187.361 175.641 189.166C175.611 189.185 175.579 189.201 175.546 189.213L175.832 189.419C176.533 190.259 177.418 190.926 178.418 191.371L177.736 197.845C177.334 199.335 177.136 200.872 177.149 202.415C177.101 204.822 177.763 207.189 179.053 209.222C179.584 210.003 180.201 210.722 180.893 211.364C180.969 211.171 181.049 210.987 181.131 210.809L181.528 212.872C182.529 218.066 183.587 223.18 184.702 228.216L184.622 228.168L172.325 235.372C171.104 237.113 169.746 238.752 168.263 240.275C167.605 240.962 166.367 242.158 164.55 243.861C163.525 244.813 163.068 245.359 163.185 245.527C163.336 245.781 164.06 245.643 165.359 245.115C166.882 244.512 168.543 243.237 170.341 241.291C171.506 240.054 172.557 238.716 173.483 237.292C171.556 240.37 170.937 242.216 171.627 242.83C172.253 243.352 173.033 243.653 173.848 243.686L174.578 243.147C175.475 243.496 176.099 243.575 176.45 243.385C176.582 243.297 176.71 243.201 176.831 243.099C177.521 243.946 178.05 244.168 178.418 243.766C179.483 242.831 180.38 241.72 181.068 240.481C181.309 240.058 181.552 239.635 181.798 239.212C181.706 241.563 181.786 243.917 182.036 246.257C182.077 246.635 182.125 247.012 182.179 247.384C183.304 247.725 182.353 249.339 191.47 249.14C195.598 247.941 200.28 248.173 216.962 242.359C219.934 241.98 221.211 241.905 221.181 241.798H221.578L224.148 230.262C222.447 228.967 220.513 228.008 218.452 227.438C220.418 226.594 222.336 225.641 224.196 224.582C226.937 223.004 229.553 221.216 232.018 219.235C231.952 218.205 231.761 217.187 231.447 216.204L231.399 216.045C232.095 215.483 232.714 214.832 233.24 214.109C234.178 212.864 234.784 211.401 235.001 209.857C235.111 209.067 235.111 208.266 235.001 207.477L235.319 207.382C235.854 196.931 235.237 186.454 233.478 176.138C233.478 176.04 233.44 175.938 233.415 175.837L232.748 172.14C234.75 170.107 235.95 167.531 236.35 164.412C236.773 161.12 236.165 158.185 234.525 155.606C232.886 153.027 230.702 151.556 227.972 151.195C227.118 151.083 226.252 151.099 225.402 151.242C225.626 150.728 225.875 150.22 226.147 149.719C225.644 149.957 225.156 150.227 224.688 150.528C224.185 150.013 223.656 149.526 223.101 149.068L223.704 148.751L222.752 146.64C218.625 145.427 214.358 144.76 210.058 144.657C209.49 144.641 208.925 144.638 208.36 144.641C207.031 141.131 206.064 137.494 205.472 133.788C205.307 132.73 205.175 131.741 205.075 130.821C206.784 130.188 208.341 129.205 209.645 127.933C212.152 125.529 213.538 122.372 213.803 118.46C213.948 115.976 213.474 113.495 212.422 111.24C211.989 110.276 211.463 109.357 210.851 108.495C210.851 108.403 210.851 108.308 210.835 108.209C211.184 107.926 211.513 107.618 211.819 107.289C212.418 106.682 212.951 106.011 213.406 105.29C214 104.314 214.154 103.479 213.866 102.783C213.671 102.327 213.338 101.944 212.914 101.688C212.497 101.421 212.034 101.233 211.549 101.132C210.914 101.004 210.255 101.053 209.645 101.275C209.2 99.898 208.564 98.5896 207.757 97.3876C207.496 97.0031 207.216 96.6324 206.916 96.2769C207.744 96.3238 208.575 96.2381 209.375 96.023C210.279 95.7611 211.136 95.3596 211.914 94.833C213.554 93.7433 214.59 92.3523 215.024 90.6598C215.326 89.4466 215.293 88.1744 214.929 86.9785C216.002 85.8995 216.568 84.7412 216.627 83.5035C216.648 82.4755 216.336 81.4682 215.738 80.6315L216.754 80.1079C217.002 79.6493 217.184 79.1578 217.294 78.648M202.14 76.3155C203.557 75.1413 204.811 74.7658 205.9 75.1889C206.55 75.449 207.085 75.9331 207.408 76.5535C206.897 76.8931 206.393 77.2422 205.9 77.6008C205.323 77.266 204.696 77.025 204.044 76.8868C203.303 76.7251 202.549 76.6295 201.791 76.6012L202.14 76.3155ZM210.248 103.417C210.797 103.236 211.13 103.217 211.248 103.354C211.416 103.579 211.165 104.062 210.502 104.798C210.423 104.303 210.34 103.846 210.248 103.417ZM215.548 204.065C216.142 203.744 216.715 203.383 217.262 202.986C218.692 200.593 220.019 198.16 221.245 195.687C221.835 199.859 222.469 203.8 223.149 207.508C224.169 207.791 225.208 207.998 226.259 208.127L225.338 209.048C224.946 208.851 224.543 208.677 224.132 208.524C221.107 209.633 218.092 210.828 215.088 212.11L215.548 204.065Z" fill="#4DAAE8"/>-->
</g>
<defs>
<filter id="filter0_d_1_6310" x="0.290283" y="0.951782" width="212.479" height="168.358" filterUnits="userSpaceOnUse" color-interpolation-filters="sRGB">
<feFlood flood-opacity="0" result="BackgroundImageFix"/>
<feColorMatrix in="SourceAlpha" type="matrix" values="0 0 0 0 0 0 0 0 0 0 0 0 0 0 0 0 0 0 127 0" result="hardAlpha"/>
<feOffset dy="5"/>
<feGaussianBlur stdDeviation="1.75"/>
<feComposite in2="hardAlpha" operator="out"/>
<feColorMatrix type="matrix" values="0 0 0 0 0.32549 0 0 0 0 0.666667 0 0 0 0 0.909804 0 0 0 0.364706 0"/>
<feBlend mode="normal" in2="BackgroundImageFix" result="effect1_dropShadow_1_6310"/>
<feBlend mode="normal" in="SourceGraphic" in2="effect1_dropShadow_1_6310" result="shape"/>
</filter>
<linearGradient id="paint0_linear_1_6310" x1="278.81" y1="-73.7144" x2="-284.044" y2="-73.7144" gradientUnits="userSpaceOnUse">
<stop stop-color="#1C415B"/>
<stop offset="0.0573739" stop-color="#1C415B"/>
<stop offset="0.544328" stop-color="#53AAE8"/>
<stop offset="1" stop-color="#A6CCDF"/>
</linearGradient>
<linearGradient id="paint1_linear_1_6310" x1="-53.9558" y1="308.547" x2="-44.9114" y2="308.547" gradientUnits="userSpaceOnUse">
<stop stop-color="#D8EEF9"/>
<stop offset="1" stop-color="#F8E7D8"/>
</linearGradient>
<linearGradient id="paint2_linear_1_6310" x1="-61.2027" y1="309.908" x2="-48.8228" y2="309.908" gradientUnits="userSpaceOnUse">
<stop stop-color="#D8EEF9"/>
<stop offset="1" stop-color="#F8E7D8"/>
</linearGradient>
<linearGradient id="paint3_linear_1_6310" x1="-82.2706" y1="359.713" x2="-72.8135" y2="359.713" gradientUnits="userSpaceOnUse">
<stop stop-color="#D8EEF9"/>
<stop offset="1" stop-color="#F8E7D8"/>
</linearGradient>
<linearGradient id="paint4_linear_1_6310" x1="-86.315" y1="305.814" x2="-89.8471" y2="305.814" gradientUnits="userSpaceOnUse">
<stop stop-color="#D8EEF9"/>
<stop offset="1" stop-color="#F8E7D8"/>
</linearGradient>
<linearGradient id="paint5_linear_1_6310" x1="-92.3439" y1="310.051" x2="-78.7455" y2="310.051" gradientUnits="userSpaceOnUse">
<stop stop-color="#D8EEF9"/>
<stop offset="1" stop-color="#F8E7D8"/>
</linearGradient>
<linearGradient id="paint6_linear_1_6310" x1="-84.2531" y1="316.458" x2="-91.2505" y2="316.458" gradientUnits="userSpaceOnUse">
<stop stop-color="#D8EEF9"/>
<stop offset="1" stop-color="#D8C9BC"/>
</linearGradient>
<linearGradient id="paint7_linear_1_6310" x1="-84.4627" y1="313.277" x2="-87.9632" y2="313.277" gradientUnits="userSpaceOnUse">
<stop stop-color="#D8EEF9"/>
<stop offset="1" stop-color="#F8E7D8"/>
</linearGradient>
<linearGradient id="paint8_linear_1_6310" x1="-73.4351" y1="327.132" x2="-67.9545" y2="327.132" gradientUnits="userSpaceOnUse">
<stop stop-color="#D8EEF9"/>
<stop offset="1" stop-color="#D8C9BC"/>
</linearGradient>
<linearGradient id="paint9_linear_1_6310" x1="190.19" y1="135.603" x2="190.19" y2="135.603" gradientUnits="userSpaceOnUse">
<stop stop-color="#D8EEF9"/>
<stop offset="1" stop-color="#F8E7D8"/>
</linearGradient>
<linearGradient id="paint10_linear_1_6310" x1="-74.6393" y1="360.413" x2="-65.1029" y2="360.413" gradientUnits="userSpaceOnUse">
<stop stop-color="#D8EEF9"/>
<stop offset="1" stop-color="#F8E7D8"/>
</linearGradient>
<linearGradient id="paint11_linear_1_6310" x1="201.15" y1="113.543" x2="201.15" y2="113.543" gradientUnits="userSpaceOnUse">
<stop stop-color="#D8EEF9"/>
<stop offset="1" stop-color="#F8E7D8"/>
</linearGradient>
<linearGradient id="paint12_linear_1_6310" x1="-76.7349" y1="333.956" x2="-72.3618" y2="333.956" gradientUnits="userSpaceOnUse">
<stop stop-color="#D8EEF9"/>
<stop offset="1" stop-color="#D8C9BC"/>
</linearGradient>
<linearGradient id="paint13_linear_1_6310" x1="-63.2541" y1="2.58755e+09" x2="-63.2541" y2="2.58755e+09" gradientUnits="userSpaceOnUse">
<stop stop-color="#D8EEF9"/>
<stop offset="1" stop-color="#F8E7D8"/>
</linearGradient>
<linearGradient id="paint14_linear_1_6310" x1="-72.5013" y1="343.51" x2="-75.602" y2="343.51" gradientUnits="userSpaceOnUse">
<stop stop-color="#D8EEF9"/>
<stop offset="1" stop-color="#F8E7D8"/>
</linearGradient>
<linearGradient id="paint15_linear_1_6310" x1="-64.3412" y1="342.131" x2="-59.6921" y2="342.131" gradientUnits="userSpaceOnUse">
<stop stop-color="#142244"/>
<stop offset="1" stop-color="#183F6A"/>
</linearGradient>
<linearGradient id="paint16_linear_1_6310" x1="-55.3927" y1="342.001" x2="-52.7904" y2="342.001" gradientUnits="userSpaceOnUse">
<stop stop-color="#142244"/>
<stop offset="1" stop-color="#183F6A"/>
</linearGradient>
<linearGradient id="paint17_linear_1_6310" x1="-70.9379" y1="354.071" x2="-67.0408" y2="354.071" gradientUnits="userSpaceOnUse">
<stop stop-color="#D8EEF9"/>
<stop offset="1" stop-color="#F8E7D8"/>
</linearGradient>
</defs>
</svg>
