<svg width="804" height="274" viewBox="0 0 804 274" fill="none" xmlns="http://www.w3.org/2000/svg">
<g opacity="0.96" filter="url(#filter0_d_1_5912)">
<path d="M402 101.141C194.906 101.141 24.5626 79.6024 4 52L62.6589 210.234C62.6589 240.481 214.587 265 402 265C589.413 265 741.341 240.481 741.341 210.234L800 52C779.44 79.6024 609.097 101.141 402 101.141Z" fill="url(#paint0_linear_1_5912)"/>
</g>
<!-- <path opacity="0.98" d="M401.999 1.48291C622.765 1.48291 801.73 25.1134 801.73 54.263C801.73 83.4127 622.765 107.043 401.999 107.043C181.234 107.043 2.26849 83.4127 2.26849 54.263C2.26849 25.1134 181.234 1.48291 401.999 1.48291Z" fill="#54ABE8" stroke="#4FA4E0" stroke-linecap="round"/>
<path d="M401.999 15.3032C592.877 15.3032 747.614 32.7461 747.614 54.2629C747.614 75.7797 592.877 93.2226 401.999 93.2226C211.121 93.2226 56.3842 75.7797 56.3842 54.2629C56.3842 32.7461 211.121 15.3032 401.999 15.3032Z" fill="#283237"/> -->
<defs>
<filter id="filter0_d_1_5912" x="0.5" y="52" width="803" height="221.5" filterUnits="userSpaceOnUse" color-interpolation-filters="sRGB">
<feFlood flood-opacity="0" result="BackgroundImageFix"/>
<feColorMatrix in="SourceAlpha" type="matrix" values="0 0 0 0 0 0 0 0 0 0 0 0 0 0 0 0 0 0 127 0" result="hardAlpha"/>
<feOffset dy="5"/>
<feGaussianBlur stdDeviation="1.75"/>
<feComposite in2="hardAlpha" operator="out"/>
<feColorMatrix type="matrix" values="0 0 0 0 0.321569 0 0 0 0 0.34902 0 0 0 0 0.760784 0 0 0 0.360784 0"/>
<feBlend mode="normal" in2="BackgroundImageFix" result="effect1_dropShadow_1_5912"/>
<feBlend mode="normal" in="SourceGraphic" in2="effect1_dropShadow_1_5912" result="shape"/>
</filter>
<linearGradient id="paint0_linear_1_5912" x1="203" y1="105.25" x2="203" y2="105.25" gradientUnits="userSpaceOnUse">
<stop stop-color="#54ABE8"/>
<stop offset="1" stop-color="#5259C2"/>
</linearGradient>
</defs>
</svg>
