<svg width="115" height="118" viewBox="0 0 115 118" fill="none" xmlns="http://www.w3.org/2000/svg">
<path d="M43.0015 31.532C65.9434 31.532 84.5414 50.13 84.5414 73.0717C84.5414 96.0135 65.9434 114.611 43.0015 114.611C20.0596 114.611 1.46155 96.0135 1.46155 73.0717C1.46155 50.13 20.0596 31.532 43.0015 31.532Z" fill="#DBE7ED"/>
<mask id="mask0_1_5651" style="mask-type:alpha" maskUnits="userSpaceOnUse" x="0" y="0" width="85" height="115">
<path d="M43.0015 0.892334C85.3967 1.84818 84.5414 48.7866 84.5414 72.2064C84.5414 95.6261 65.9434 114.611 43.0015 114.611C20.0596 114.611 1.46156 95.6261 1.46156 72.2064C1.46156 48.7866 -8.08167 1.27475 43.0015 0.892334Z" fill="white"/>
</mask>
<g mask="url(#mask0_1_5651)">
<path d="M17.2001 34.838C27.5112 30.8059 33.2432 38.7551 33.2432 38.7551L33.8472 48.8932C33.8472 48.8932 29.5846 51.6584 28.0871 57.6487C26.5895 63.6397 33.6174 78.1555 35.3449 91.6343C37.0732 105.113 23.1353 109.261 23.1353 109.261C23.1353 109.261 2.16609 85.1827 3.03371 62.8334C3.46303 51.7778 6.88966 38.8702 17.2001 34.838Z" fill="#424447"/>
<path d="M14.7076 45.839C16.8239 37.8136 26.9879 35.2314 32.7439 40.9223C33.3786 41.5501 32.4006 42.5275 31.7661 41.9002C27.2683 37.4516 20.7478 38.6968 17.2578 43.6292C14.1551 48.0151 15.4459 55.2022 15.8377 60.2288C16.4567 68.186 17.9385 77.4656 11.0665 83.2454C10.3888 83.8158 9.40553 82.8422 10.0886 82.2682C20.4284 73.5717 11.7354 57.1058 14.7076 45.839Z" fill="#11202D"/>
<path d="M19.2359 67.1685C19.4151 62.9051 19.0896 58.7207 19.9451 54.5073C21.1859 48.3961 26.9561 42.8865 33.3958 45.4598C34.2131 45.7861 33.8571 47.124 33.0283 46.7932C28.7881 45.0985 25.0583 47.2985 22.7799 50.9455C20.5141 54.573 20.626 59.2986 20.6365 63.4074C20.6544 70.5386 19.5458 76.3333 15.6384 82.3959C15.1577 83.1424 13.9602 82.4496 14.4447 81.6978C17.3786 77.1462 19.0076 72.6042 19.2359 67.1685Z" fill="#11202D"/>
<path d="M74.2825 89.0975C74.2825 89.0975 76.8676 97.7867 79.9156 108.528C80.0538 109.019 80.1922 109.524 80.3375 110.028C80.6766 111.224 81.0214 112.447 81.367 113.678C81.4985 114.155 81.6298 114.625 81.7612 115.102C82.7034 118.496 83.6476 121.945 84.5444 125.291C80.0538 128.61 75.1841 131.439 70.0181 133.724L67.6604 125.677L74.2825 89.0975Z" fill="#385669"/>
<path d="M3.07855 131.253C-0.724487 108.021 -8.40253 79.4202 -8.40253 79.4202C-8.40253 79.4202 1.57135 78.1136 11.7677 76.0263C13.8342 75.5978 15.9147 75.1416 17.9191 74.658C19.7369 74.2219 21.4927 73.759 23.1313 73.282C26.2482 72.3697 28.9238 71.388 30.7417 70.3653C32.1586 69.5703 33.0502 68.7409 33.2443 67.9047C34.6536 61.6838 35.3448 47.1672 35.3448 47.1672L53.5457 57.3008C52.9163 58.773 50.7595 65.0147 50.9052 69.432V69.4388C50.9185 69.8673 50.9531 70.2824 51.0156 70.6691C51.0641 70.9871 51.1397 71.3119 51.2433 71.6374C51.845 73.621 53.303 75.7292 55.0939 77.6022C57.0357 79.6486 59.3726 81.4178 61.3837 82.4204C61.9026 82.6758 62.4899 82.9737 63.1262 83.2985C63.6995 83.5888 64.3146 83.9061 64.944 84.2316C69.1948 86.4227 74.2825 89.0977 74.2825 89.0977C74.2825 89.0977 76.8191 101.775 71.5173 122.277C70.2988 126.997 69.0686 131.038 67.9039 134.622C59.0089 138.24 49.288 140.249 39.0933 140.249C26.0713 140.249 13.8139 136.988 3.07855 131.253Z" fill="#393A3D"/>
<path d="M30.7419 70.3653C32.1588 69.5703 33.0502 68.7409 33.2442 67.9047C34.6536 61.6838 35.3449 47.1672 35.3449 47.1672L53.5458 57.3008C52.9165 58.773 50.7595 65.0147 50.9052 69.432V69.4388C50.9186 69.8673 50.9529 70.2824 51.0157 70.6691C51.0642 70.9871 51.1395 71.3119 51.2433 71.6374C51.845 73.621 53.303 75.7292 55.0939 77.6022C57.0359 79.6486 59.3724 81.4178 61.3837 82.4204C61.9025 82.6758 62.49 82.9737 63.1261 83.2985C63.6995 83.5888 64.3146 83.9061 64.944 84.2316L63.8241 89.0977L51.4717 99.4312L28.5574 94.7862L17.919 74.658C19.737 74.2219 21.4927 73.759 23.1315 73.282C26.2484 72.3697 28.924 71.388 30.7419 70.3653Z" fill="#EC9C7E"/>
<path d="M50.9293 69.864L37.6025 52.4214L52.1075 60.6391L50.9293 69.864Z" fill="#11202D"/>
<path d="M-17.0557 115.711C-16.5284 113.323 -15.9686 110.845 -15.3909 108.335C-15.2869 107.885 -15.1841 107.436 -15.0803 106.986C-14.7205 105.439 -14.3616 103.89 -13.9949 102.355C-13.8911 101.899 -13.7805 101.45 -13.6768 101.001C-10.9468 89.4985 -8.40253 79.4202 -8.40253 79.4202C-3.41187 86.0495 3.03687 130.973 3.03687 130.973L2.84863 131.136C-4.61975 127.113 -11.3364 121.882 -17.0557 115.711Z" fill="#385669"/>
<path d="M23.1314 73.2821C24.2302 76.8835 25.889 81.038 28.2048 83.6852C33.0433 89.2148 40.1839 95.7823 48.4786 92.6713C54.451 90.4316 55.1693 82.0883 55.0939 77.6024C57.0356 79.6487 59.3723 81.4179 61.3834 82.4205C61.9023 82.6758 62.4899 82.9737 63.126 83.2986L54.0972 138.77C49.244 139.735 44.2294 140.249 39.0933 140.249C31.6547 140.249 24.4721 139.168 17.6727 137.189L11.7676 76.0265C15.7145 75.2112 19.689 74.2914 23.1314 73.2821Z" fill="#F9F8F0"/>
<path d="M50.4417 129.058C51.9487 123.452 53.4696 118.129 54.1809 113.581C55.7778 103.399 52.3705 79.0886 51.2433 71.6373C51.8449 73.621 53.303 75.7292 55.0939 77.6023C57.0356 79.6486 59.3724 81.4178 61.3837 82.4205C61.7435 82.6003 62.1443 82.8005 62.566 83.0147C62.7453 83.1043 62.9319 83.2014 63.126 83.2985C63.4717 83.4775 63.8309 83.6576 64.2042 83.8441C68.5795 86.098 74.2823 89.0976 74.2823 89.0976C74.2823 89.0976 76.8192 101.775 71.5172 122.277C70.2988 126.997 69.0685 131.038 67.9037 134.623C61.5882 137.191 54.8559 138.94 47.8316 139.739C48.4423 136.757 49.1888 133.766 49.9644 130.834C50.1235 130.24 50.2825 129.645 50.4417 129.058Z" fill="#385669"/>
<path d="M-8.40253 79.42C-8.40253 79.42 1.57135 78.1136 11.7676 76.0262C14.3729 75.4872 17 74.8997 19.4674 74.2778C19.9864 74.1465 20.4977 74.015 21.0023 73.8769C21.7278 73.6828 22.4401 73.4828 23.1315 73.2819C26.2483 72.3696 28.9238 71.3879 30.7419 70.3652C31.2874 79.1162 32.511 103.088 31.0322 124.917C30.9971 125.477 30.956 126.03 30.9141 126.59C30.7971 128.201 30.6589 129.804 30.5067 131.38C30.2252 134.301 29.9249 137.045 29.5937 139.641C20.1086 138.466 11.16 135.571 3.07855 131.252C-0.724426 108.021 -8.40253 79.42 -8.40253 79.42Z" fill="#385669"/>
<path d="M21.0021 73.877C20.2557 76.6966 19.6472 79.7448 19.2119 82.911C21.8248 82.7033 24.4302 82.531 27.0499 82.3995C27.942 82.3509 27.9354 83.7336 27.0499 83.7822C24.3751 83.9135 21.7003 84.0926 19.0321 84.3077C17.2074 99.514 19.5577 116.996 31.0319 124.917C30.9968 125.477 30.9558 126.03 30.9141 126.59C15.8109 116.802 15.0433 91.8418 19.4672 74.2779C19.986 74.1465 20.4976 74.015 21.0021 73.877Z" fill="#11202D"/>
<path d="M21.5202 77.6948L29.5732 139.639C16.5267 138.019 4.50269 133.124 -5.65472 125.791L-11.5432 85.0677L21.5202 77.6948Z" fill="#AA554B"/>
<path d="M21.5204 77.6948L29.5734 139.639C27.6808 139.404 25.8048 139.117 23.9579 138.747L15.7637 78.9781L21.5204 77.6948Z" fill="#824239"/>
<path d="M16.0461 105.169C16.9099 104.996 22.7926 105.231 23.138 105.749C23.3315 106.04 23.5048 106.517 23.6222 106.876C23.7114 107.153 23.7667 107.36 23.7667 107.36C23.7667 107.36 24.1885 107.312 24.7552 107.284H24.7695C25.7922 107.236 27.2787 107.242 27.6861 107.65C28.129 108.093 28.5433 108.777 28.5574 109.351V109.358C28.5574 109.607 28.4879 109.834 28.3154 110.008C27.7415 110.588 27.2787 111.106 27.2787 111.106C27.2787 111.106 27.327 111.183 27.4168 111.307C27.6453 111.68 28.1147 112.502 28.205 113.236C28.2603 113.733 28.0803 114.293 27.8937 114.715V114.721C27.7071 115.136 27.5139 115.427 27.5139 115.427C27.5139 115.427 27.6175 115.544 27.7213 115.8C27.8176 116.042 27.9146 116.408 27.9146 116.92C27.9146 117.645 27.3204 118.855 26.9675 119.512V119.519C26.8154 119.795 26.7053 119.975 26.7053 119.975C26.7053 119.975 26.8845 120.127 27.1263 120.369C27.6377 120.874 28.4468 121.772 28.5574 122.512C28.7233 123.604 24.4029 127.634 23.138 128.152C21.866 128.671 13.5714 127.461 13.5714 127.461L7.69604 115.71C7.69604 115.71 9.25085 111.452 10.1708 109.897C11.0964 108.341 15.1824 105.342 16.0461 105.169Z" fill="#EC9C7E"/>
<path d="M29.5876 26.4305C30.9694 20.32 34.6538 15.2532 46.3981 14.3342C55.8196 13.5877 61.778 18.7165 64.7708 22.9747C65.5106 24.0184 66.0639 25.0136 66.4505 25.8498C67.0244 27.0942 67.4807 29.852 67.716 33.3018C67.7643 33.9997 67.7989 34.7186 67.8264 35.4652C68.1302 43.6697 67.2045 54.4603 63.8241 58.8014C57.81 66.522 45.3682 61.103 41.7943 57.6465C38.2273 54.1907 36.6104 50.6238 36.6104 50.6238C32.6976 52.352 31.5435 47.8586 30.0438 44.1676C28.6059 40.6149 29.5181 38.8865 29.5802 38.7619C29.5802 38.7552 29.5876 38.7552 29.5876 38.7552C29.5876 38.7552 28.2051 32.5342 29.5876 26.4305Z" fill="#EC9C7E"/>
<path d="M29.0276 30.4745V30.4678C29.1029 29.1615 29.2761 27.7923 29.5875 26.4305C29.6628 26.0781 29.7532 25.7324 29.8495 25.3936C29.9741 24.9373 30.1122 24.4955 30.2713 24.0528C31.0387 21.958 32.1996 20.0506 34.0525 18.4813C34.5363 18.0737 35.0618 17.6863 35.6494 17.3271C36.3607 16.8845 37.1492 16.4836 38.0271 16.1313C38.974 15.737 40.0249 15.3988 41.1932 15.1219C42.7206 14.7553 44.4488 14.4858 46.3982 14.3342C50.1025 14.0439 53.2685 14.6522 55.93 15.7647C57.5888 16.4559 59.0545 17.348 60.3264 18.3223C62.2129 19.7743 63.6858 21.4331 64.7707 22.9748C63.0842 22.594 62.068 22.5739 61.4738 22.6567H61.4665C60.7827 22.7464 60.6443 22.9748 60.6443 22.9748C60.6443 22.9748 59.6487 21.5922 56.6974 21.0942H56.6832C55.5703 20.9008 54.1674 20.8456 52.4324 21.0323C48.9757 21.4056 47.1923 22.1864 46.1279 23.2577C45.6517 23.7348 45.3192 24.267 45.0564 24.8545C44.8288 25.3459 44.6423 25.8773 44.4488 26.4305C44.0406 27.5922 43.9921 29.0157 44.0681 30.2528C44.089 30.7574 44.1374 31.2279 44.1928 31.6354C44.31 32.5134 44.4488 33.1076 44.4488 33.1076C44.4488 33.1076 40.9924 34.3797 39.1468 37.4906C37.3015 40.6007 36.8452 43.0202 36.8452 43.0202C36.8452 43.0202 34.2249 34.8358 29.5875 38.7552C29.5875 38.7552 28.9163 35.7414 28.9789 31.8564C28.9789 31.4077 29.0001 30.9516 29.0276 30.4745Z" fill="#424447"/>
<path d="M46.1277 23.2576C45.6514 23.7346 45.3191 24.267 45.0564 24.8544C40.0182 25.719 34.9305 25.8982 29.8494 25.3934C29.9741 24.9374 30.1124 24.4953 30.2714 24.0526C35.5798 24.5574 40.8752 24.2878 46.1277 23.2576Z" fill="#11202D"/>
<path d="M44.068 30.2528C44.089 30.7574 44.1374 31.2278 44.1928 31.6353C39.264 33.0388 34.1009 32.6933 28.9789 31.8563C28.9789 31.4076 28.9998 30.9514 29.0275 30.4745C34.0866 31.3248 39.202 31.7114 44.068 30.2528Z" fill="#11202D"/>
<path d="M52.2458 18.5508C55.0939 19.0622 59.3171 20.2096 61.4664 22.6568C60.7826 22.7464 60.6445 22.9748 60.6445 22.9748C60.6445 22.9748 59.6487 21.5923 56.6974 21.0943H56.6833C53.9875 20.0715 50.7738 19.6564 48.755 19.4145C43.9852 18.8413 39.1537 19.0898 34.3774 18.5918C34.2526 18.5784 34.1422 18.5366 34.0526 18.4814C34.5364 18.0737 35.0618 17.6863 35.6494 17.3271C41.1859 17.7901 46.7574 17.5548 52.2458 18.5508Z" fill="#11202D"/>
<path d="M55.9299 15.7646C57.5887 16.4559 59.0542 17.348 60.3263 18.3221C56.9669 17.1614 53.1169 16.7395 50.0059 16.5664C45.9761 16.3453 42.015 16.7531 38.0271 16.1312C38.9737 15.7369 40.0248 15.3987 41.1929 15.1218C45.962 15.495 51.1191 15.1151 55.9299 15.7646Z" fill="#11202D"/>
<path d="M49.9241 49.5045C51.1147 51.6046 53.1998 52.9595 55.6171 53.1306C56.5009 53.1932 56.507 54.5759 55.6171 54.5132C52.7152 54.3078 50.1695 52.7408 48.7302 50.2026C48.2906 49.4261 49.4851 48.7296 49.9241 49.5045Z" fill="#11202D"/>
<path d="M56.448 37.174C57.217 37.2876 57.6477 38.6805 57.411 40.2864C57.1743 41.8922 56.3591 43.1024 55.591 42.9888C54.822 42.8755 54.3913 41.4815 54.6278 39.8766C54.8646 38.2707 55.6797 37.0606 56.448 37.174Z" fill="#11202D"/>
<path d="M66.2815 37.9279C66.8683 38.0145 67.1655 39.2994 66.9444 40.7977C66.7236 42.296 66.0688 43.4404 65.4812 43.3538C64.8945 43.2673 64.5981 41.9825 64.8183 40.4841C65.0392 38.9866 65.6946 37.8421 66.2815 37.9279Z" fill="#11202D"/>
<path d="M58.7557 47.8756C60.5391 48.9217 63.244 47.7861 62.4659 45.4546C62.1823 44.6066 63.5179 44.246 63.7987 45.0873C64.2631 46.4774 63.7807 47.9639 62.6788 48.9066C61.3806 50.0175 59.456 49.8892 58.0576 49.0695C57.2895 48.6185 57.9846 47.4232 58.7557 47.8756Z" fill="#11202D"/>
<path d="M50.6752 31.7563C53.4828 30.6111 56.5771 30.8835 59.1849 32.408C60.3382 33.0821 59.2954 34.8746 58.1383 34.1982C56.0726 32.9911 53.7889 32.8364 51.5769 33.6338C51.4752 33.6921 51.3575 33.7315 51.2276 33.7555L51.226 33.7562C51.1946 33.7622 51.1656 33.7711 51.132 33.775L50.9503 33.7928C49.6852 33.9204 49.6898 32.1586 50.6752 31.7563Z" fill="#11202D"/>
<path d="M64.6742 33.5361C65.6837 33.1494 66.7274 33.0873 67.7157 33.3016C67.7642 33.9998 67.7986 34.7185 67.8263 35.4651C66.9967 35.1538 66.0702 35.2023 65.2201 35.5413C63.9762 36.0251 63.4441 34.0206 64.6742 33.5361Z" fill="#11202D"/>
<path d="M42.9134 115.1C43.5517 114.479 44.5304 115.455 43.8905 116.078L38.4027 121.421C37.7644 122.043 36.7857 121.066 37.4254 120.443C39.2545 118.662 41.0835 116.882 42.9134 115.1Z" fill="#11202D"/>
<path d="M73.4803 103.545C73.4109 102.659 75.1323 110.042 74.8696 113.242C76.556 111.673 78.2357 110.104 79.9155 108.528C80.0536 109.019 80.1917 109.524 80.3373 110.028C78.4918 111.749 76.6456 113.477 74.8004 115.198C74.7591 115.24 74.7173 115.254 74.6687 115.281C74.5305 116.484 74.3583 117.673 74.144 118.862C74.2545 118.855 74.3583 118.869 74.462 118.903C74.8278 118.62 75.9476 117.79 76.2312 117.583C77.1227 116.941 78.0005 116.284 78.8718 115.62C79.7148 114.984 80.5447 114.334 81.3669 113.677C81.498 114.155 81.6296 114.625 81.761 115.102C80.821 115.848 79.8737 116.581 78.9131 117.306C77.8206 118.136 75.1115 119.754 73.9984 120.549C73.4594 120.935 69.7133 129.597 69.3879 130.322C72.8509 121.772 74.2336 112.744 73.4803 103.545Z" fill="#11202D"/>
<path d="M23.4968 112.856C25.0595 112.116 27.4858 110.947 28.5571 109.358C28.5571 109.607 28.4877 109.834 28.3153 110.008C27.7412 110.588 27.2781 111.106 27.2781 111.106C27.2781 111.106 27.3267 111.182 27.4164 111.306C27.1126 111.528 26.8013 111.736 26.4898 111.943C25.4814 112.627 24.3959 113.194 23.2901 113.712C22.4676 114.099 20.7803 114.334 20.2899 115.109C20.0546 115.489 19.4538 115.136 19.6957 114.763C20.4079 113.636 22.3771 113.38 23.4968 112.856Z" fill="#11202D"/>
<path d="M14.9403 109.295C17.9259 108.832 20.7256 107.698 23.622 106.876C23.7116 107.153 23.7669 107.359 23.7669 107.359C23.7669 107.359 24.1887 107.312 24.7553 107.284C21.5272 108.106 18.438 109.448 15.1198 109.959C14.6845 110.028 14.4978 109.365 14.9403 109.295Z" fill="#11202D"/>
<path d="M64.1761 91.5029C64.1553 91.4895 64.1345 91.4895 64.1142 91.482C61.9575 90.266 59.7797 89.0909 57.5755 87.9645C56.7869 87.5561 57.485 86.3676 58.2732 86.7751C60.1876 87.7495 62.0747 88.7662 63.9479 89.8098C63.5953 87.4597 63.1259 85.1782 62.5658 83.0148C62.7452 83.1044 62.9316 83.2014 63.1259 83.2985C63.4716 83.4777 63.8306 83.6575 64.2037 83.8442C68.2203 100.523 66.5749 123.12 49.9643 130.834C50.1231 130.24 50.2823 129.646 50.4414 129.058C63.1945 122.373 65.9595 105.908 64.1761 91.5029Z" fill="#11202D"/>
</g>
<g filter="url(#filter0_d_1_5651)">
<path d="M46.0373 99.0187C46.0373 83.5577 58.571 71.024 74.032 71.024C89.493 71.024 102.027 83.5577 102.027 99.0187C102.027 114.48 89.493 127.013 74.032 127.013C58.571 127.013 46.0373 114.48 46.0373 99.0187Z" fill="white"/>
</g>
<path d="M87.0396 99.3015H84.4946V91.9693L74.4061 101.004L64.1349 91.9414V106.936H76.8597V109.481H62.8624C62.1596 109.481 61.5899 108.912 61.5899 108.209V87.8491C61.5899 87.1464 62.1596 86.5767 62.8624 86.5767H85.7671C86.4699 86.5767 87.0396 87.1464 87.0396 87.8491V99.3015ZM64.7857 89.1216L74.3935 97.5989L83.8596 89.1216H64.7857ZM85.7671 105.664H89.5845V108.209H85.7671V112.026H83.2221V108.209H79.4047V105.664H83.2221V101.846H85.7671V105.664Z" fill="#1C415B"/>
<defs>
<filter id="filter0_d_1_5651" x="33.5373" y="58.524" width="80.9894" height="80.9893" filterUnits="userSpaceOnUse" color-interpolation-filters="sRGB">
<feFlood flood-opacity="0" result="BackgroundImageFix"/>
<feColorMatrix in="SourceAlpha" type="matrix" values="0 0 0 0 0 0 0 0 0 0 0 0 0 0 0 0 0 0 127 0" result="hardAlpha"/>
<feOffset/>
<feGaussianBlur stdDeviation="6.25"/>
<feComposite in2="hardAlpha" operator="out"/>
<feColorMatrix type="matrix" values="0 0 0 0 0 0 0 0 0 0 0 0 0 0 0 0 0 0 0.101961 0"/>
<feBlend mode="normal" in2="BackgroundImageFix" result="effect1_dropShadow_1_5651"/>
<feBlend mode="normal" in="SourceGraphic" in2="effect1_dropShadow_1_5651" result="shape"/>
</filter>
</defs>
</svg>
