<svg width="115" height="140" viewBox="0 0 115 140" fill="none" xmlns="http://www.w3.org/2000/svg">
<path d="M42.8022 31.1862C65.7441 31.1862 84.3421 49.7841 84.3421 72.7259C84.3421 95.6677 65.7441 114.266 42.8022 114.266C19.8603 114.266 1.26227 95.6677 1.26227 72.7259C1.26227 49.7841 19.8603 31.1862 42.8022 31.1862Z" fill="#DBE7ED"/>
<mask id="mask0_1_5582" style="mask-type:alpha" maskUnits="userSpaceOnUse" x="0" y="0" width="85" height="115">
<path d="M42.8022 0.546509C85.1974 1.50235 84.3422 48.4408 84.3422 71.8605C84.3422 95.2802 65.7441 114.266 42.8022 114.266C19.8603 114.266 1.26228 95.2802 1.26228 71.8605C1.26228 48.4408 -8.28095 0.928926 42.8022 0.546509Z" fill="white"/>
</mask>
<g mask="url(#mask0_1_5582)">
<path d="M31.2099 31.0176C31.2099 31.0176 12.6465 24.5628 10.3096 43.7072C7.97415 62.853 37.2026 70.775 41.5039 54.0796C45.8038 37.3855 31.2099 31.0176 31.2099 31.0176Z" fill="#ACA9C2"/>
<path d="M92.8465 93.6509C88.464 99.5036 83.1433 104.6 77.0806 108.717C69.0717 114.149 59.8026 117.832 49.7914 119.26L41.6705 101.856L34.5857 86.6642L31.1693 77.7872L27.3888 67.958L32.7234 67.342L35.8598 66.9779L43.9948 66.0258L53.3479 64.9337C53.3479 64.9337 76.9686 67.062 90.5222 89.3525C91.2923 90.6266 92.0624 92.0688 92.8465 93.6509Z" fill="#F1B66A"/>
<path d="M77.0806 108.717C69.0717 114.149 59.8026 117.832 49.7914 119.26C47.1731 119.638 44.5128 119.848 41.7965 119.89C41.3625 119.918 40.9284 119.918 40.4943 119.918C35.2297 119.918 30.0911 119.288 25.1906 118.112L31.1693 77.7871L32.7234 67.3419L33.2975 63.4354L34.0676 63.6175L43.9948 66.0257L53.7259 68.378C53.7259 68.378 73.6783 79.8453 77.0806 108.717Z" fill="#7672CD"/>
<path d="M61.0585 41.9291C61.0585 41.9291 66.4702 36.3424 65.2702 27.3618C64.4581 21.2725 61.83 19.2213 61.83 19.2213C61.83 19.2213 66.2153 11.0962 53.9821 11.1816C41.7488 11.267 34.356 17.0216 34.356 17.0216C34.356 17.0216 28.8659 14.0883 26.1398 20.5151C23.4137 26.9418 25.5923 36.6323 25.5923 36.6323L61.0585 41.9291Z" fill="#ACA9C2"/>
<path d="M33.8967 51.0833L33.7637 66.0089C33.7637 66.0089 36.417 70.3228 45.1429 71.1111C51.6424 71.6978 53.7315 68.3752 53.7315 68.3752L52.2725 55.3005L36.5375 51.6923L33.8967 51.0833Z" fill="#EFA79A"/>
<path d="M33.9276 50.1732C33.9625 50.5807 34.1123 51.0637 34.349 51.6168C37.6226 59.102 49.3476 62.3098 53.1014 62.6794L52.2725 55.3006L33.9276 50.1732Z" fill="black"/>
<path d="M55.9045 21.3089C55.9045 21.3089 63.5704 40.092 60.3906 50.4616C57.2095 60.8312 47.7374 58.9563 42.0947 56.7987C36.452 54.6411 33.8953 51.0861 33.8953 51.0861C33.8953 51.0861 28.5341 52.7592 25.0995 47.7285C21.6635 42.6977 23.992 37.0733 27.0598 35.8467C30.1261 34.6202 33.6839 36.8996 33.6839 36.8996L30.9858 31.4292C30.9858 31.4292 43.5607 4.27178 55.9045 21.3089Z" fill="#EFA79A"/>
<path d="M33.6839 36.8997C33.6839 36.8997 41.6187 38.7843 47.4713 30.081C53.3226 21.3789 52.9376 17.7105 52.9376 17.7105L58.156 27.0776C58.156 27.0776 59.608 20.7545 57.2011 16.6114C54.7928 12.467 52.1227 13.2188 52.1227 13.2188L34.356 17.0216L29.237 30.984L33.6839 36.8997Z" fill="#ACA9C2"/>
<path d="M54.4875 45.0108C54.4133 45.0108 54.3363 44.9982 54.2607 44.973C53.8953 44.847 53.7007 44.4493 53.8267 44.0825C54.9706 40.7557 52.5581 37.0131 52.5329 36.9767C52.3215 36.6533 52.4111 36.2192 52.7345 36.0078C53.0566 35.7963 53.4892 35.8832 53.7021 36.2066C53.8183 36.383 56.5206 40.5541 55.1499 44.5375C55.0504 44.8287 54.7788 45.0108 54.4875 45.0108Z" fill="black"/>
<path d="M32.6408 45.6983C32.4476 45.6983 32.2557 45.6185 32.1171 45.4617L27.2361 39.9562C26.9799 39.6678 27.0065 39.2253 27.2964 38.9677C27.5848 38.7115 28.0258 38.7367 28.2835 39.0279L33.1644 44.5333C33.4207 44.8232 33.3941 45.2656 33.1042 45.5219C32.9713 45.6394 32.806 45.6983 32.6408 45.6983Z" fill="black"/>
<path d="M27.3412 44.0993C26.9925 44.0993 26.6901 43.8375 26.6467 43.4818C26.6005 43.0982 26.8749 42.7496 27.2586 42.7034L30.7674 42.2833C31.1608 42.2357 31.4996 42.5115 31.5459 42.8952C31.5907 43.2788 31.3176 43.6275 30.934 43.6737L27.4251 44.0937C27.3972 44.0979 27.3692 44.0993 27.3412 44.0993Z" fill="black"/>
<path d="M58.583 29.9156C58.5368 29.9156 58.4878 29.9115 58.4388 29.9003L55.1582 29.2156C54.7802 29.1358 54.538 28.7647 54.6177 28.3867C54.6962 28.0086 55.0616 27.7622 55.4466 27.8448L58.7258 28.5309C59.1039 28.6093 59.3475 28.9804 59.2677 29.3598C59.1991 29.6889 58.9078 29.9156 58.583 29.9156Z" fill="#6C6B7B"/>
<path d="M44.7957 31.6169C44.531 31.6169 44.2776 31.4671 44.1586 31.2109C43.9962 30.8608 44.1488 30.4436 44.5002 30.2811L48.8996 28.2383C49.2496 28.0759 49.6668 28.2285 49.8292 28.5786C49.9917 28.93 49.8391 29.3459 49.489 29.5083L45.0897 31.5511C44.9945 31.5959 44.8937 31.6169 44.7957 31.6169Z" fill="#6C6B7B"/>
<path d="M46.8357 71.9471C41.4478 71.9471 35.955 68.9045 35.6119 68.7127C35.2745 68.5223 35.1555 68.0952 35.3459 67.7592C35.5349 67.4231 35.9592 67.3014 36.298 67.4931C36.4157 67.5575 48.03 73.9829 53.1994 67.9202C53.45 67.6248 53.8925 67.5912 54.1865 67.8418C54.4806 68.0924 54.5156 68.5348 54.2649 68.8289C52.2739 71.1644 49.5674 71.9471 46.8357 71.9471Z" fill="white"/>
<path d="M61.1047 44.4703C61.0221 44.4703 60.9395 44.469 60.8569 44.4647C57.7527 44.3149 55.3641 41.3396 55.5321 37.8322C55.7001 34.3248 58.3716 31.5973 61.4674 31.7401C62.9907 31.8129 64.3839 32.555 65.392 33.8319C66.3763 35.0781 66.8748 36.691 66.7936 38.3727C66.7124 40.0543 66.0627 41.6112 64.9622 42.758C63.8994 43.8683 62.5371 44.4703 61.1047 44.4703ZM61.2251 33.1347C58.9681 33.1347 57.0583 35.2307 56.9308 37.8994C56.7992 40.6353 58.5914 42.954 60.9241 43.066C62.033 43.1122 63.1111 42.6669 63.9527 41.789C64.818 40.8873 65.3304 39.6496 65.3949 38.3054C65.4592 36.9613 65.0686 35.6801 64.2929 34.7001C63.5396 33.7465 62.5133 33.1921 61.4001 33.1388C61.3413 33.1361 61.284 33.1347 61.2251 33.1347Z" fill="#46467B"/>
<path d="M47.0569 44.7434C46.9533 44.7434 46.8483 44.742 46.7447 44.7364C43.2359 44.5683 40.5182 41.5762 40.6876 38.0688C40.7688 36.3704 41.5067 34.8036 42.7668 33.6597C44.027 32.5158 45.6638 31.9375 47.3552 32.0117C49.055 32.0929 50.6203 32.8322 51.7643 34.091C52.9096 35.3497 53.4935 36.9809 53.4123 38.6793C53.3297 40.3791 52.5918 41.9444 51.3331 43.0884C50.1513 44.1623 48.6433 44.7434 47.0569 44.7434ZM47.0443 33.4049C45.8066 33.4049 44.6305 33.8585 43.7078 34.6958C42.7262 35.5877 42.1494 36.8101 42.0864 38.136C41.9548 40.8719 44.0746 43.206 46.8119 43.3376C48.1365 43.3978 49.4078 42.9442 50.3907 42.0523C51.3736 41.1603 51.9491 39.938 52.0135 38.6121C52.0765 37.2861 51.6215 36.0162 50.7282 35.0318C49.8363 34.0503 48.6139 33.4749 47.288 33.4105C47.2068 33.4063 47.1241 33.4049 47.0443 33.4049Z" fill="#46467B"/>
<path d="M55.8583 38.1402C55.7113 38.1402 55.5643 38.094 55.4383 37.9988C54.8726 37.5717 53.5229 37.7468 52.8074 37.9554C52.4378 38.0618 52.0471 37.8546 51.9379 37.4821C51.8273 37.1125 52.0373 36.7233 52.4083 36.614C52.6674 36.537 54.9706 35.8916 56.2812 36.8814C56.5892 37.1153 56.6508 37.5535 56.4184 37.8616C56.2812 38.045 56.0712 38.1402 55.8583 38.1402Z" fill="#46467B"/>
<path d="M41.3877 38.8025C41.1706 38.8025 40.9564 38.7017 40.8192 38.5127C39.3616 36.4951 32.9139 36.166 30.5364 36.2066C30.1681 36.2193 29.8307 35.9056 29.8237 35.5192C29.8167 35.1327 30.1248 34.8135 30.5112 34.8065C31.4535 34.7939 39.8097 34.7253 41.9548 37.6922C42.1802 38.0058 42.1102 38.4427 41.7965 38.6695C41.6733 38.7591 41.5305 38.8025 41.3877 38.8025Z" fill="#46467B"/>
<path d="M41.6705 101.856C41.9505 108.857 41.9085 115.297 41.7965 119.89C41.3624 119.918 40.9284 119.918 40.4943 119.918C35.2297 119.918 30.0911 119.288 25.1905 118.112C11.777 114.891 -0.026413 107.527 -8.77747 97.4454C-10.1076 95.9052 -11.3818 94.309 -12.5719 92.6568C10.9649 63.9676 33.7875 63.1835 33.7875 63.1835C33.8856 63.3235 33.9836 63.4635 34.0676 63.6175C34.7256 64.6257 35.3137 65.7458 35.8598 66.9779C39.7242 75.6729 41.1944 89.6045 41.6705 101.856Z" fill="#F1B66A"/>
<path d="M52.4532 49.9016C50.4467 49.9016 48.7945 48.3362 48.7077 48.2522C48.4305 47.9847 48.4221 47.5437 48.6895 47.2651C48.9556 46.9878 49.398 46.978 49.678 47.244C49.6977 47.2622 51.6607 49.1119 53.4347 48.2816C53.7875 48.1177 54.202 48.2703 54.3658 48.619C54.5296 48.969 54.3798 49.3849 54.0298 49.5501C53.4949 49.8007 52.9629 49.9016 52.4532 49.9016Z" fill="black"/>
<path d="M51.2857 37.5567C50.9815 36.3248 50.1056 35.4818 49.3294 35.6736C48.5533 35.8653 48.1703 37.0192 48.4748 38.251C48.7789 39.4823 49.6548 40.3253 50.431 40.1336C51.2072 39.9418 51.5902 38.788 51.2857 37.5567Z" fill="#11202D"/>
<path d="M60.0377 37.6154C59.7808 36.55 59.037 35.8162 58.3763 35.9753C57.7157 36.1345 57.388 37.1266 57.6444 38.192C57.9013 39.2569 58.6451 39.9912 59.3057 39.8321C59.9664 39.6724 60.2941 38.6803 60.0377 37.6154Z" fill="#11202D"/>
</g>
<g filter="url(#filter0_d_1_5582)">
<path d="M46.3188 97.9505C46.3188 82.6216 58.7454 70.1951 74.0743 70.1951C89.4032 70.1951 101.83 82.6216 101.83 97.9505V99.0831C101.83 114.412 89.4032 126.839 74.0743 126.839C58.7454 126.839 46.3188 114.412 46.3188 99.0831V97.9505Z" fill="white"/>
</g>
<path d="M85.1554 99.1722H82.6104V91.8401L72.5219 100.875L62.2507 91.8121V106.807H74.9755V109.352H60.9782C60.2755 109.352 59.7057 108.782 59.7057 108.08V87.7199C59.7057 87.0171 60.2755 86.4474 60.9782 86.4474H83.8829C84.5857 86.4474 85.1554 87.0171 85.1554 87.7199V99.1722ZM62.9015 88.9924L72.5093 97.4696L81.9755 88.9924H62.9015ZM83.8829 105.535H87.7004V108.08H83.8829V111.897H81.338V108.08H77.5205V105.535H81.338V101.717H83.8829V105.535Z" fill="#736FC8"/>
<defs>
<filter id="filter0_d_1_5582" x="33.8188" y="57.6951" width="80.5109" height="81.6435" filterUnits="userSpaceOnUse" color-interpolation-filters="sRGB">
<feFlood flood-opacity="0" result="BackgroundImageFix"/>
<feColorMatrix in="SourceAlpha" type="matrix" values="0 0 0 0 0 0 0 0 0 0 0 0 0 0 0 0 0 0 127 0" result="hardAlpha"/>
<feOffset/>
<feGaussianBlur stdDeviation="6.25"/>
<feComposite in2="hardAlpha" operator="out"/>
<feColorMatrix type="matrix" values="0 0 0 0 0 0 0 0 0 0 0 0 0 0 0 0 0 0 0.101961 0"/>
<feBlend mode="normal" in2="BackgroundImageFix" result="effect1_dropShadow_1_5582"/>
<feBlend mode="normal" in="SourceGraphic" in2="effect1_dropShadow_1_5582" result="shape"/>
</filter>
</defs>
</svg>
