<svg width="83" height="112" viewBox="0 0 83 112" fill="none" xmlns="http://www.w3.org/2000/svg">
<path d="M41.434 30.5973C63.9069 30.5973 82.1248 48.8152 82.1248 71.2881C82.1248 93.761 63.9069 111.979 41.434 111.979C18.9611 111.979 0.743164 93.761 0.743164 71.2881C0.743164 48.8152 18.9611 30.5973 41.434 30.5973Z" fill="#ACDCF5"/>
<mask id="mask0_1_5498" style="mask-type:alpha" maskUnits="userSpaceOnUse" x="0" y="0" width="83" height="112">
<path d="M41.434 0.58374C82.9626 1.52005 82.1248 47.4992 82.1248 70.4403C82.1248 93.3814 63.9069 111.979 41.434 111.979C18.9611 111.979 0.743151 93.3814 0.743151 70.4403C0.743151 47.4992 -8.60501 0.958342 41.434 0.58374Z" fill="white"/>
</mask>
<g mask="url(#mask0_1_5498)">
<path d="M-6.23621 100.554C-6.10309 100.714 -5.96985 100.86 -5.82318 101.008C-5.63684 101.207 -5.43689 101.408 -5.25049 101.593C6.01898 113.102 21.7378 120.256 39.1349 120.256C41.8257 120.256 44.5032 120.082 47.1009 119.763C47.1275 119.749 47.1407 119.749 47.1675 119.749C53.5615 118.91 59.6625 117.113 65.2972 114.488C64.7644 91.9886 64.9909 72.3003 64.9909 71.9286C64.7778 71.461 54.3607 68.7849 40.4937 68.332C18.6739 67.6379 0.237732 79.9465 -6.23621 100.554Z" fill="#59774E"/>
<path d="M47.0996 119.763C47.1263 119.749 47.1396 119.749 47.1662 119.749C53.5602 118.91 59.6612 117.113 65.296 114.488C65.7622 114.276 66.2285 114.048 66.6948 113.822C75.8729 109.28 83.7589 102.513 89.66 94.2411C77.6978 77.8416 67.9202 73.0594 64.9896 71.9285C64.3903 71.6874 64.0839 71.6088 64.0839 71.6088L47.0996 119.763Z" fill="#59774E"/>
<path d="M38.8939 31.8271C38.8939 31.8271 24.5552 32.5118 23.744 18.7606C22.8794 4.12091 36.4242 2.71821 42.1762 8.63671C47.9281 14.5552 46.8639 20.5763 46.8639 20.5763C46.8639 20.5763 50.8734 16.9623 55.2467 21.4008C58.4557 24.6578 56.8 29.9849 56.8 29.9849C56.8 29.9849 64.1957 29.6998 63.5057 36.1565C62.817 42.6144 58.1986 45.8927 58.1986 45.8927L38.8939 31.8271Z" fill="#D56C4E"/>
<path d="M52.0025 57.1462L50.5118 72.3814C50.5118 72.3814 47.3362 76.4922 38.3525 76.3444C31.6601 76.2351 29.4741 74.5061 29.4741 74.5061L31.1552 66.8798L32.803 59.4441L49.2436 57.4793L52.0025 57.1462Z" fill="#EFA79A"/>
<path d="M49.2424 57.4791C49.1639 57.8907 48.9575 58.3663 48.6564 58.9058C44.5029 66.1817 35.0223 66.9117 31.1539 66.8797L32.8018 59.444L49.2424 57.4791Z" fill="black"/>
<path d="M32.8028 24.3847C32.8028 24.3847 22.9387 42.7036 25.0526 53.6255C27.1667 64.5473 37.0308 63.6668 43.02 62.0816C49.009 60.4964 52.0049 57.1489 52.0049 57.1489C52.0049 57.1489 57.2893 59.4388 61.3403 54.6832C65.3924 49.9263 63.6301 43.9372 60.6356 42.352C57.6411 40.7668 53.7659 42.7036 53.7659 42.7036L57.1135 37.4192C57.1135 37.4192 47.248 8.35427 32.8028 24.3847Z" fill="#EFA79A"/>
<path d="M53.5833 51.044C53.3542 51.044 53.1304 50.9254 53.0064 50.7123C52.8226 50.3939 52.9306 49.9863 53.2489 49.8025L59.2913 46.2951C59.607 46.1099 60.0159 46.2178 60.2025 46.5375C60.3863 46.8546 60.2783 47.2635 59.96 47.4473L53.9176 50.9547C53.8125 51.016 53.6978 51.044 53.5833 51.044Z" fill="black"/>
<path d="M58.5171 51.5713C58.4132 51.5713 58.308 51.5473 58.2094 51.4954L55.1349 49.8902C54.8085 49.7197 54.682 49.3174 54.8525 48.991C55.0243 48.6647 55.428 48.5408 55.7517 48.7086L58.8248 50.3151C59.1526 50.4856 59.2777 50.8879 59.1072 51.213C58.9887 51.4407 58.7569 51.5713 58.5171 51.5713Z" fill="black"/>
<path d="M30.1294 31.5659C29.9162 31.5659 29.7059 31.4633 29.5766 31.2715C29.3714 30.9664 29.4529 30.5535 29.7579 30.347C32.2448 28.6712 34.5174 30.2911 34.6159 30.3617C34.9117 30.5788 34.9769 30.9957 34.7611 31.2928C34.544 31.5885 34.1297 31.6538 33.8326 31.4393C33.7528 31.3834 32.1928 30.315 30.5024 31.4527C30.3879 31.5286 30.2586 31.5659 30.1294 31.5659Z" fill="black"/>
<path d="M32.1747 48.9111C31.8615 48.9111 31.5831 48.6913 31.5205 48.373C30.2909 42.0375 33.9183 37.9693 34.0741 37.7988C34.3232 37.527 34.7402 37.5084 35.0132 37.7548C35.2864 38.0026 35.3049 38.4235 35.0599 38.6953C35.0266 38.7326 31.731 42.4624 32.83 48.1185C32.9006 48.4795 32.6635 48.8285 32.3024 48.8991C32.2598 48.9085 32.2172 48.9111 32.1747 48.9111Z" fill="black"/>
<path d="M30.7783 28.5316C30.7783 28.5316 32.7324 25.6316 36.5355 25.9767C40.3387 26.323 42.2969 29.2163 42.2969 29.2163C42.2969 29.2163 40.0031 35.4532 44.8386 39.3589C49.674 43.2646 53.7662 42.7038 53.7662 42.7038L57.6454 41.7353L60.9316 36.5269L51.2298 23.7787L37.9182 14.9962L30.1309 20.7908L30.7783 28.5316Z" fill="#D56C4E"/>
<path d="M35.3428 52.8157C34.7699 52.8157 34.3836 52.7437 34.3344 52.7344C33.9735 52.6638 33.7389 52.3161 33.8081 51.9565C33.8775 51.5941 34.2278 51.3597 34.5861 51.4263C34.7113 51.4503 37.6539 51.9725 39.1819 49.4028C39.3711 49.0871 39.7813 48.9819 40.0956 49.1711C40.4113 49.3589 40.5152 49.7678 40.3274 50.0835C38.9274 52.44 36.6508 52.8157 35.3428 52.8157Z" fill="black"/>
<path d="M26.1115 46.0473C22.5308 46.0473 19.6189 43.0474 19.6189 39.3588C19.6189 35.6703 22.5308 32.6704 26.1115 32.6704C29.6895 32.6704 32.6028 35.6703 32.6028 39.3588C32.6028 43.0474 29.6895 46.0473 26.1115 46.0473ZM26.1115 34.0025C23.2661 34.0025 20.951 36.4056 20.951 39.3588C20.951 42.3121 23.2661 44.7152 26.1115 44.7152C28.9569 44.7152 31.2707 42.3121 31.2707 39.3588C31.2707 36.4056 28.9569 34.0025 26.1115 34.0025Z" fill="white"/>
<path d="M41.5298 47.5379C37.8412 47.5379 34.8428 44.5367 34.8428 40.8481C34.8428 37.1609 37.8412 34.1597 41.5298 34.1597C45.2184 34.1597 48.2196 37.1609 48.2196 40.8481C48.2196 44.5367 45.2184 47.5379 41.5298 47.5379ZM41.5298 35.4918C38.5765 35.4918 36.1748 37.8949 36.1748 40.8481C36.1748 43.8014 38.5765 46.2058 41.5298 46.2058C44.4844 46.2058 46.8876 43.8014 46.8876 40.8481C46.8876 37.8949 44.4844 35.4918 41.5298 35.4918Z" fill="white"/>
<path d="M36.1571 40.8176C36.1012 40.8149 31.3923 40.4299 31.3923 40.4299C31.0246 40.3993 30.7528 40.0783 30.7835 39.7106C30.8128 39.3443 31.1471 39.0779 31.5014 39.1018L36.2104 39.4868C36.5767 39.5175 36.8484 39.8385 36.8192 40.2061C36.7899 40.5538 36.4995 40.8176 36.1571 40.8176Z" fill="white"/>
<path d="M57.6446 42.4014C57.4674 42.4014 57.2903 42.3308 57.1583 42.1922C54.265 39.1111 47.9202 42.2948 47.8562 42.3281C47.5233 42.4946 47.1277 42.3641 46.9599 42.0377C46.7934 41.7113 46.9225 41.3104 47.2502 41.1425C47.546 40.9907 54.5487 37.4699 58.1294 41.2784C58.3812 41.5461 58.3692 41.9684 58.1001 42.2202C57.9723 42.3414 57.8084 42.4014 57.6446 42.4014Z" fill="white"/>
<path d="M38.169 76.4775C31.4286 76.4775 26.4011 73.8 26.3186 73.756C25.9962 73.5802 25.8763 73.1753 26.0535 72.8529C26.2294 72.5305 26.6289 72.408 26.9567 72.5865C27.0819 72.6544 39.7727 79.3855 51.5392 70.7482C51.8323 70.5311 52.2505 70.5923 52.4703 70.8894C52.6874 71.1864 52.6235 71.6034 52.3278 71.8205C47.4722 75.3852 42.4716 76.4775 38.169 76.4775Z" fill="white"/>
<path d="M44.8378 33.728C44.6168 33.728 44.3996 33.6175 44.2743 33.415C42.6053 30.7534 40.1143 31.7312 40.0077 31.7752C39.6747 31.9164 39.2817 31.7552 39.1391 31.4142C39.0006 31.0758 39.1578 30.6882 39.4949 30.5456C40.7417 30.0221 43.5778 29.7983 45.4028 32.7076C45.5984 33.0193 45.5039 33.4296 45.1922 33.6254C45.0816 33.6947 44.9592 33.728 44.8378 33.728Z" fill="black"/>
<path d="M37.4731 41.0518C37.8224 42.4669 38.8286 43.4353 39.7203 43.215C40.612 42.9948 41.0519 41.6693 40.7021 40.2542C40.3527 38.8397 39.3465 37.8713 38.4549 38.0915C37.5633 38.3118 37.1233 39.6373 37.4731 41.0518Z" fill="#11202D"/>
<path d="M27.3324 40.6968C27.6351 41.9517 28.5112 42.8161 29.2893 42.6286C30.0675 42.4412 30.4535 41.2725 30.1515 40.0177C29.8489 38.7634 28.9728 37.8984 28.1946 38.0858C27.4164 38.2739 27.0304 39.4425 27.3324 40.6968Z" fill="#11202D"/>
</g>
</svg>
