<svg width="115" height="113" viewBox="0 0 115 113" fill="none" xmlns="http://www.w3.org/2000/svg">
<path d="M43.1637 31.332C66.1056 31.332 84.7037 49.93 84.7037 72.8718C84.7037 95.8135 66.1056 114.411 43.1637 114.411C20.2218 114.411 1.62378 95.8135 1.62378 72.8718C1.62378 49.93 20.2218 31.332 43.1637 31.332Z" fill="#DBE7ED"/>
<mask id="mask0_1_5639" style="mask-type:alpha" maskUnits="userSpaceOnUse" x="0" y="0" width="85" height="115">
<path d="M43.1637 0.692383C85.559 1.64822 84.7037 48.5867 84.7037 72.0064C84.7037 95.4261 66.1056 114.412 43.1637 114.412C20.2219 114.412 1.6238 95.4261 1.6238 72.0064C1.6238 48.5867 -7.91944 1.0748 43.1637 0.692383Z" fill="white"/>
</mask>
<g mask="url(#mask0_1_5639)">
<path d="M63.2302 40.7329C62.1734 36.0136 58.6122 32.794 55.2739 33.541L53.5368 33.8001C53.3254 33.8175 53.1155 33.8479 52.9056 33.8942C49.5673 34.6412 47.7187 39.0724 48.774 43.7917C49.8308 48.5096 53.392 51.7291 56.7303 50.982L58.4689 50.723C58.6788 50.707 58.8887 50.6752 59.0986 50.6289C62.4368 49.8819 64.2855 45.4507 63.2302 40.7329Z" fill="#46467B"/>
<path d="M102.191 88.7842C100.989 91.0425 99.6282 93.2284 98.1661 95.3275C93.9535 101.393 88.742 106.735 82.7922 111.092C82.7632 111.136 82.7198 111.15 82.6908 111.179C82.3 111.469 81.9091 111.758 81.5038 112.019C74.1787 117.172 65.7824 120.893 56.7202 122.789C52.2325 123.745 47.5711 124.237 42.7939 124.237C31.8352 124.237 21.4991 121.631 12.35 116.984C7.06615 114.321 2.1876 110.977 -2.18428 107.068C-4.52945 104.954 -6.74434 102.696 -8.78552 100.278C-9.712 99.1927 -10.5951 98.0781 -11.4347 96.9344C-0.70768 84.0215 8.73093 81.4158 8.73093 81.4158C8.42692 81.0828 5.11184 77.1742 8.73093 70.1387C13.4937 60.8449 28.2885 55.0978 28.2885 55.0978L54.4039 53.5488C54.4039 53.5488 65.3915 54.345 73.5273 63.6967C80.2588 71.3981 79.0572 76.2911 78.4203 77.7823C78.3045 78.1007 78.1887 78.2599 78.1887 78.2599C78.1887 78.2599 89.4658 81.9659 102.191 88.7842Z" fill="#7672CD"/>
<path d="M78.4232 77.7793C73.0047 81.2058 64.3261 85.4966 52.0805 88.1849C29.1803 93.2415 8.72948 81.4143 8.72948 81.4143C8.42403 81.0814 5.10893 77.18 8.72948 70.1314C13.4937 60.8405 28.2885 55.1006 28.2885 55.1006L54.4069 53.5546C54.4069 53.5546 65.3843 54.3479 73.5331 63.6953C80.2617 71.3996 79.063 76.2882 78.4232 77.7793Z" fill="#9393DF"/>
<path d="M32.0799 72.2581C32.0799 72.2581 21.7322 66.857 22.3504 63.6982C22.97 60.5395 33.0122 58.4216 39.4455 59.6348C45.8774 60.8493 61.0892 61.0389 61.0892 66.5732C61.0892 71.4663 54.1087 76.1739 54.1087 76.1739L39.4455 71.9439L32.0799 72.2581Z" fill="#7672CD"/>
<path d="M31.7209 56.0634L32.08 72.2581C32.08 72.2581 35.1041 76.8485 44.5948 77.4072C51.6651 77.8242 54.1087 76.1739 54.1087 76.1739L52.9419 67.9948L51.7954 60.0183L34.6046 56.6351L31.7209 56.0634Z" fill="#EFA79A"/>
<path d="M34.6046 56.6351C34.6553 57.0752 34.8348 57.595 35.1098 58.187C38.9128 66.1953 48.8581 67.7197 52.9419 67.9947L51.7953 60.0183L34.6046 56.6351Z" fill="black"/>
<path d="M54.5863 23.0255C54.5863 23.0255 63.5356 43.1403 60.4362 54.4956C57.3354 65.8507 46.9978 64.1368 40.8048 61.9871C34.6118 59.8373 31.7179 56.0677 31.7179 56.0677C31.7179 56.0677 25.9592 58.0625 22.0636 52.7222C18.168 47.3805 20.5031 41.202 23.7892 39.7674C27.0754 38.3327 31.01 40.6866 31.01 40.6866L27.8991 34.844C27.8991 34.844 40.6209 4.96192 54.5863 23.0255Z" fill="#EFA79A"/>
<path d="M30.1516 50.2034C29.9663 50.2034 29.7825 50.1295 29.6449 49.9833L24.1656 44.1754C23.9007 43.896 23.9137 43.4545 24.1931 43.1925C24.474 42.9276 24.9141 42.9406 25.179 43.22L30.6583 49.0279C30.9218 49.3073 30.9102 49.7488 30.6293 50.0123C30.4962 50.1397 30.3239 50.2034 30.1516 50.2034Z" fill="black"/>
<path d="M24.3495 48.6457C24.0121 48.6457 23.7154 48.3982 23.6618 48.0537C23.6039 47.6729 23.8659 47.3182 24.2467 47.2603L28.0366 46.6871C28.4231 46.632 28.7734 46.8897 28.8299 47.2704C28.8878 47.6512 28.6258 48.0059 28.2465 48.0638L24.4551 48.637C24.4204 48.6428 24.3842 48.6457 24.3495 48.6457Z" fill="black"/>
<path d="M31.01 40.6866C31.01 40.6866 33.0917 42.0531 34.6045 39.6849C36.1173 37.318 32.8066 30.3215 32.8066 30.3215C32.8066 30.3215 39.0531 31.7388 42.914 29.673C46.7748 27.6072 48.6698 21.9224 48.6698 21.9224C48.6698 21.9224 51.5129 27.8446 60.0395 25.2389C68.5647 22.6332 70.1904 11.0275 61.0891 8.65916C51.9863 6.29087 47.0122 10.3182 47.0122 10.3182C47.0122 10.3182 45.8585 1.89436 34.6045 6.05485C24.3509 9.8433 22.6166 22.6897 22.6166 22.6897C22.6166 22.6897 16.4598 22.9763 15.2742 29.673C14.0915 36.3698 21.9261 41.2165 21.9261 41.2165C21.9261 41.2165 26.3747 38.6078 31.01 40.6866Z" fill="black"/>
<path d="M41.1812 34.0159C41.0697 34.0159 40.9568 33.9899 40.8511 33.9349C40.4965 33.7525 40.356 33.3153 40.5384 32.9607C41.9354 30.2463 45.3634 30.9542 45.5067 30.9861C45.8976 31.07 46.1437 31.4522 46.0612 31.8431C45.9787 32.2339 45.5979 32.4815 45.2042 32.4018C45.1 32.3758 42.7113 31.9009 41.8268 33.6222C41.698 33.8727 41.4447 34.0159 41.1812 34.0159Z" fill="black"/>
<path d="M52.079 31.6925C51.9386 31.6925 51.7953 31.6519 51.6708 31.5665C51.3407 31.3407 51.2567 30.8905 51.4826 30.5604C52.0558 29.7222 52.7956 29.2402 53.6815 29.1316C55.4679 28.9014 57.1327 30.365 57.2022 30.4272C57.5019 30.6921 57.5294 31.1467 57.2659 31.4463C57.0024 31.7475 56.545 31.7736 56.2453 31.5115C55.8993 31.2089 54.7919 30.4547 53.8553 30.5691C53.3949 30.627 53.0098 30.8919 52.6769 31.3783C52.5365 31.5824 52.3092 31.6925 52.079 31.6925Z" fill="black"/>
<path d="M43.2687 90.7081C21.8017 89.508 13.4648 84.5861 13.1217 84.3762C12.78 84.1677 12.6714 83.7247 12.877 83.3817C13.084 83.04 13.5255 82.93 13.8715 83.1384C13.9526 83.1877 22.3098 88.085 43.3093 89.262C43.7088 89.2836 44.0143 89.6253 43.9911 90.0248C43.9694 90.4099 43.6509 90.7081 43.2687 90.7081Z" fill="#46467B"/>
<path d="M43.8564 115.127C43.4308 115.112 43.1181 114.778 43.1326 114.38L43.7218 96.9952C43.7362 96.5942 44.0721 96.3062 44.4702 96.2946C44.8698 96.309 45.1824 96.6449 45.168 97.043L44.5788 114.428C44.5657 114.818 44.2444 115.127 43.8564 115.127Z" fill="#46467B"/>
<path d="M72.1911 109.869C71.9436 109.869 71.7018 109.742 71.5672 109.514L62.9002 94.8571C62.6961 94.5124 62.8104 94.0681 63.155 93.8654C63.4981 93.6656 63.9425 93.7771 64.1451 94.1187L72.8122 108.776C73.0163 109.122 72.9019 109.565 72.5588 109.769C72.443 109.837 72.3156 109.869 72.1911 109.869Z" fill="#46467B"/>
<path d="M72.1911 82.1338C71.9306 82.1338 71.6787 81.9933 71.5498 81.7473C71.3631 81.3926 71.4992 80.9569 71.8524 80.7701L77.8485 77.6128C78.2032 77.4275 78.6418 77.5622 78.8271 77.9154C79.0139 78.27 78.8763 78.7072 78.5231 78.894L72.527 82.0513C72.4199 82.1077 72.3041 82.1338 72.1911 82.1338Z" fill="#46467B"/>
<path d="M35.4586 46.6379C36.0724 51.4339 33.8214 55.6754 30.4281 56.1098C27.0363 56.5441 23.7863 53.0089 23.1725 48.2129C22.5573 43.4169 24.8098 39.1767 28.2016 38.741C31.5949 38.3068 34.8434 41.8419 35.4586 46.6379Z" fill="#46467B"/>
<path d="M28.2022 38.7413L25.8547 39.2154L28.0806 56.5838L30.4281 56.1097L32.991 53.3532L33.7357 43.7235L28.2022 38.7413Z" fill="#46467B"/>
<path d="M33.1106 47.1127C33.7259 51.9087 31.4733 56.1488 28.0801 56.5832C24.6882 57.0189 21.4397 53.4823 20.8245 48.6863C20.2107 43.8903 22.4618 39.6501 25.855 39.2159C29.2469 38.7801 32.4953 42.3167 33.1106 47.1127Z" fill="white"/>
<path d="M24.1526 17.2234C24.1526 17.2234 21.5628 20.3242 20.8346 23.0587C20.1065 25.7919 24.351 43.0491 24.351 43.0491L29.7087 41.8345L24.1526 17.2234Z" fill="white"/>
<path d="M49.0275 54.4318C46.5303 54.4318 44.7338 52.5948 44.0621 51.4599C43.8594 51.1153 43.9723 50.6738 44.3154 50.4696C44.657 50.2641 45.1 50.3785 45.307 50.7201C45.378 50.8403 47.0862 53.6169 50.0148 52.8554C50.3969 52.7483 50.7979 52.9857 50.8978 53.3722C50.9992 53.7601 50.7675 54.1539 50.3796 54.2538C49.9105 54.3768 49.4589 54.4318 49.0275 54.4318Z" fill="black"/>
<path d="M46.6865 36.2562C46.3299 34.8116 45.3027 33.823 44.3924 34.0479C43.4821 34.2727 43.033 35.6259 43.3902 37.0705C43.7468 38.5145 44.774 39.5032 45.6842 39.2783C46.5945 39.0534 47.0436 37.7002 46.6865 36.2562Z" fill="#11202D"/>
<path d="M56.5718 35.4315C56.2628 34.1505 55.3685 33.2681 54.5741 33.4594C53.7797 33.6508 53.3856 34.8438 53.6939 36.1248C54.0029 37.4053 54.8972 38.2883 55.6916 38.097C56.486 37.905 56.8801 36.712 56.5718 35.4315Z" fill="#11202D"/>
<path d="M50.7824 45.8263C52.5659 46.8723 55.2707 45.7368 54.4927 43.4053C54.2091 42.5573 55.5447 42.1967 55.8255 43.038C56.29 44.428 55.8074 45.9145 54.7055 46.8573C53.4073 47.9682 51.4828 47.8399 50.0843 47.0202C49.3163 46.5692 50.0113 45.3739 50.7824 45.8263Z" fill="#11202D"/>
</g>
<g filter="url(#filter0_d_1_5639)">
<path d="M46.6804 98.0964C46.6804 82.7675 59.1069 70.3409 74.4358 70.3409C89.7647 70.3409 102.191 82.7675 102.191 98.0964V99.229C102.191 114.558 89.7647 126.984 74.4358 126.984C59.1069 126.984 46.6804 114.558 46.6804 99.229V98.0964Z" fill="white"/>
</g>
<path d="M87.2018 99.1014H84.6569V91.7693L74.5684 100.804L64.2972 91.7413V106.736H77.022V109.281H63.0247C62.3219 109.281 61.7522 108.712 61.7522 108.009V87.6491C61.7522 86.9463 62.3219 86.3766 63.0247 86.3766H85.9294C86.6322 86.3766 87.2018 86.9463 87.2018 87.6491V99.1014ZM64.948 88.9216L74.5558 97.3988L84.0219 88.9216H64.948ZM85.9294 105.464H89.7468V108.009H85.9294V111.826H83.3844V108.009H79.567V105.464H83.3844V101.646H85.9294V105.464Z" fill="#D67635"/>
<defs>
<filter id="filter0_d_1_5639" x="34.1804" y="57.8409" width="80.5109" height="81.6435" filterUnits="userSpaceOnUse" color-interpolation-filters="sRGB">
<feFlood flood-opacity="0" result="BackgroundImageFix"/>
<feColorMatrix in="SourceAlpha" type="matrix" values="0 0 0 0 0 0 0 0 0 0 0 0 0 0 0 0 0 0 127 0" result="hardAlpha"/>
<feOffset/>
<feGaussianBlur stdDeviation="6.25"/>
<feComposite in2="hardAlpha" operator="out"/>
<feColorMatrix type="matrix" values="0 0 0 0 0 0 0 0 0 0 0 0 0 0 0 0 0 0 0.101961 0"/>
<feBlend mode="normal" in2="BackgroundImageFix" result="effect1_dropShadow_1_5639"/>
<feBlend mode="normal" in="SourceGraphic" in2="effect1_dropShadow_1_5639" result="shape"/>
</filter>
</defs>
</svg>
