<svg width="112" height="114" viewBox="0 0 112 114" fill="none" xmlns="http://www.w3.org/2000/svg">
<path d="M41.4528 30.5952C63.9257 30.5952 82.1436 48.8131 82.1436 71.286C82.1436 93.7589 63.9257 111.977 41.4528 111.977C18.9799 111.977 0.761963 93.7589 0.761963 71.286C0.761963 48.8131 18.9799 30.5952 41.4528 30.5952Z" fill="#ACDCF5"/>
<mask id="mask0_1_5592" style="mask-type:alpha" maskUnits="userSpaceOnUse" x="0" y="0" width="83" height="112">
<path d="M41.4528 0.581665C82.9814 1.51797 82.1436 47.4971 82.1436 70.4382C82.1436 93.3793 63.9257 111.977 41.4528 111.977C18.9799 111.977 0.76195 93.3793 0.76195 70.4382C0.76195 47.4971 -8.58621 0.956266 41.4528 0.581665Z" fill="white"/>
</mask>
<g mask="url(#mask0_1_5592)">
<path d="M24.1142 34.8137C23.7805 37.7979 23.8845 40.3855 24.0864 42.2773C24.3022 44.3571 24.636 45.5952 24.636 45.5952L26.4238 45.6648H26.5072L48.7793 46.5275L56.2847 46.8123L57.7314 39.8777L57.8705 39.2102L58.232 37.4781L58.3783 36.7756L58.6286 35.5652L60.1866 28.1222L60.3329 27.4269L60.4581 26.8145C60.4581 26.8145 58.7121 24.1368 56.1595 21.8762C55.9576 21.7021 55.7557 21.5213 55.5471 21.3612C54.9558 20.8678 54.33 20.4222 53.6759 20.0329C52.1808 19.1496 50.6366 18.4815 49.3078 17.9948C48.9669 17.8624 48.6403 17.7512 48.3411 17.6538C46.7619 17.1321 45.6772 16.9029 45.6772 16.9029L49.6766 14.4683C49.6766 14.4683 47.0194 12.9937 42.9506 12.3952C42.7136 12.3607 42.4706 12.3329 42.2202 12.3051H42.213C40.8497 12.1449 39.354 12.0965 37.7475 12.2356C37.5039 12.2494 37.2536 12.2773 37.01 12.3117C36.4882 12.3674 35.9532 12.4514 35.4175 12.5554C33.0173 13.0215 30.8614 14.2385 29.0108 15.7131C28.8022 15.8806 28.6008 16.0474 28.4056 16.2143C27.6686 16.8473 26.9866 17.5081 26.3681 18.1756C26.1867 18.3636 26.0132 18.5583 25.8464 18.7463C25.8324 18.753 25.8252 18.7669 25.8185 18.7741C24.7261 20.005 23.8428 21.2082 23.2031 22.1477C23.0641 22.3563 22.9316 22.551 22.8131 22.7317C22.2986 23.5316 22.0272 24.0327 22.0272 24.0327L25.1577 26.1192C25.1577 26.1192 24.8095 28.5538 24.1142 34.8137Z" fill="#264457"/>
<path d="M42.1295 33.4019L48.7792 46.5274L56.2844 46.8126L57.7313 39.8776L57.8704 39.2099L58.232 37.478L58.3781 36.7755L58.6285 35.5651L49.4608 28.9711L42.1295 33.4019Z" fill="#11202D"/>
<path d="M24.1142 34.8136C23.7805 37.7978 23.8845 40.3854 24.0865 42.2772L26.4237 45.6647L26.4721 45.7342L26.5072 45.6647L34.8051 28.7624L24.8791 22.6409L25.8185 18.774C24.7261 20.005 23.8428 21.2081 23.2032 22.1476C23.0641 22.3562 22.9317 22.5509 22.8132 22.7316C22.2987 23.5315 22.0272 24.0326 22.0272 24.0326L25.1577 26.119C25.1577 26.119 24.8095 28.5537 24.1142 34.8136Z" fill="#11202D"/>
<path d="M25.8463 18.7463C26.7224 20.5128 28.0512 22.0642 29.4285 23.4759C31.7513 25.8477 34.3389 27.8857 37.1907 29.5834C37.5807 29.8126 37.9283 29.2145 37.5389 28.9848C34.9235 27.4196 32.4611 25.5762 30.3257 23.3924C28.7955 21.8205 27.293 20.144 26.3681 18.1755C26.1867 18.3636 26.0132 18.5582 25.8463 18.7463Z" fill="#11202D"/>
<path d="M28.4055 16.2143C29.8807 21.3823 34.5753 25.7922 38.4639 29.1101C38.8049 29.4021 39.2983 28.9154 38.9579 28.6234C35.0553 25.2915 30.3601 20.9095 29.0107 15.7131C28.8021 15.8805 28.6008 16.0474 28.4055 16.2143Z" fill="#11202D"/>
<path d="M36.6834 20.1931C37.0866 23.372 38.3109 26.3974 40.0981 29.0473C40.349 29.416 40.9541 29.0684 40.7033 28.6929C39.0619 26.2794 37.8932 23.5388 37.4482 20.6453C37.2046 19.045 37.0934 17.4036 37.2396 15.7833C37.3091 15.004 37.3509 13.2996 37.7475 12.2356C37.5039 12.2495 37.2535 12.2773 37.0099 12.3118C36.8013 13.1189 36.739 14.0511 36.6623 14.6841C36.4398 16.5269 36.4464 18.3497 36.6834 20.1931Z" fill="#11202D"/>
<path d="M41.5733 29.3259C41.7468 29.708 42.2825 29.416 42.1924 29.0405C42.3871 29.2146 42.7831 29.1312 42.7764 28.7969C42.7625 25.5001 42.9572 22.2795 45.8647 20.2136C46.9571 19.4349 48.1046 18.6556 49.3078 17.9948C48.9668 17.8624 48.6402 17.7511 48.341 17.6538C46.9638 18.4192 45.6699 19.3375 44.6265 20.3249C42.2269 22.5787 42.0667 25.6252 42.0806 28.7552C39.7783 23.4759 40.1471 17.3479 42.9505 12.3952C42.7136 12.3607 42.4705 12.3329 42.2202 12.3051H42.213C39.3817 17.5081 39.0897 23.8308 41.5733 29.3259Z" fill="#11202D"/>
<path d="M47.6386 28.7135C50.101 27.9553 53.266 28.2685 55.8391 28.1989C57.2859 28.1572 58.7332 28.1361 60.1867 28.1222L60.333 27.4269C58.6075 27.4408 56.8759 27.4753 55.1505 27.5242C52.7025 27.601 49.8156 27.3157 47.4505 28.046C47.0267 28.1778 47.2075 28.8459 47.6386 28.7135Z" fill="#11202D"/>
<path d="M45.7534 28.8319C46.9009 26.2932 49.5025 24.9922 51.8815 23.8097C53.2866 23.1071 54.7127 22.4602 56.1595 21.8761C55.9576 21.702 55.7557 21.5212 55.547 21.3611C53.989 22.0013 52.4655 22.7105 50.977 23.4898C48.6609 24.7068 46.2752 25.994 45.1483 28.477C44.9675 28.8875 45.5654 29.2424 45.7534 28.8319Z" fill="#11202D"/>
<path d="M47.7497 32.7829C51.3113 34.2019 54.81 35.7666 58.232 37.4782L58.3783 36.7756C54.963 35.0785 51.4782 33.5199 47.9305 32.1082C47.5133 31.9413 47.3392 32.6161 47.7497 32.7829Z" fill="#264457"/>
<path d="M47.3604 36.1286C49.9758 37.2204 52.619 38.2289 55.3107 39.1056C56.1178 39.3698 56.9243 39.6273 57.7314 39.8777L57.8704 39.2101C57.6897 39.1473 57.5228 39.0844 57.3626 39.036C56.3263 38.709 55.29 38.3753 54.2605 38.0203C51.9927 37.2344 49.76 36.3789 47.5412 35.4606C47.1307 35.287 46.9499 35.9617 47.3604 36.1286Z" fill="#264457"/>
<path d="M22.8131 22.7318C25.686 25.2637 28.712 27.6077 31.8909 29.757C32.2663 30.0145 32.614 29.4093 32.2451 29.1591C29.0735 27.0164 26.0615 24.6791 23.203 22.1477C23.0639 22.3563 22.9316 22.551 22.8131 22.7318Z" fill="#264457"/>
<path d="M71.1706 102.492C72.999 101.244 74.7578 99.8839 76.4215 98.4365C76.5861 98.298 76.7507 98.1507 76.9071 98.0033C77.2274 93.8182 77.4443 90.9151 77.4878 90.3517L77.4961 90.2565C77.4961 90.2565 75.3384 89.4856 72.3921 88.2897C72.0455 88.1513 71.6818 88.0038 71.318 87.8564C70.9536 87.7001 70.5726 87.5444 70.191 87.388C69.9313 87.2757 69.6626 87.1633 69.394 87.0504C67.5139 86.2361 65.512 85.3434 63.6492 84.3989C63.6058 84.3727 63.5535 84.3555 63.5017 84.3293C63.1814 84.1736 62.8777 84.0089 62.5746 83.8532C62.2191 83.6707 61.8725 83.4805 61.5349 83.2986C60.2261 82.5878 59.0563 81.8602 58.1118 81.1582C57.4277 80.6554 56.8642 80.1531 56.457 79.6764C55.2867 78.2725 54.6286 74.7632 54.2905 70.6471C53.9005 66.1065 53.9005 60.8378 53.9784 56.8435C53.9957 56.0893 54.0135 55.3789 54.0307 54.7287C54.0307 54.6508 54.0307 54.5818 54.0391 54.5123C54.0391 54.3304 54.0479 54.1485 54.0563 53.975C54.0563 53.8537 54.0652 53.7325 54.0652 53.6201C54.0741 53.4032 54.0824 53.2041 54.0914 53.0044C54.1431 51.5314 54.1954 50.6387 54.1954 50.6387L33.1647 52.4676H33.1557L31.0242 52.6495L28.1129 52.9003C28.1129 52.9003 28.0434 56.1588 27.9911 60.4307C27.9828 60.8378 27.9828 61.245 27.9828 61.67C27.9739 62.0944 27.9739 62.5193 27.9655 62.9526C27.9655 63.3854 27.9566 63.8276 27.9566 64.2692C27.9483 64.7115 27.9483 65.1531 27.9483 65.6042C27.9394 66.7306 27.9394 67.8653 27.9394 68.9833C27.9394 69.5641 27.9221 70.1186 27.896 70.6471C27.8009 72.5449 27.5322 74.1135 27.0727 75.4129C26.7785 76.2884 26.3969 77.0332 25.938 77.6918C25.097 78.9221 23.9706 79.8411 22.5667 80.6209C22.3414 80.7594 22.0989 80.8896 21.8475 81.0108C21.605 81.1321 21.3541 81.2533 21.0854 81.3663C21.0504 81.3919 21.0159 81.4007 20.9814 81.418C20.5136 81.626 19.8372 81.8947 19.0057 82.2067C17.2725 82.8392 14.8723 83.6707 12.2118 84.5546C11.8653 84.6764 11.5099 84.7799 11.155 84.9017C7.35922 86.1577 3.14796 87.501 -0.335175 88.5929C-0.595505 88.6796 -0.846375 88.7575 -1.08942 88.8354C-2.33707 89.2253 -3.48962 89.5807 -4.46024 89.8928C-4.6766 89.9618 -4.87576 90.0224 -5.07545 90.0836C-5.30903 90.1525 -5.52599 90.2221 -5.73399 90.2827C-5.83747 90.3173 -5.9242 90.3517 -6.0199 90.3867C-0.794624 97.1022 5.89521 102.613 13.5813 106.444C14.0752 106.694 14.5691 106.937 15.0714 107.163C18.7887 108.887 22.7141 110.222 26.813 111.105C30.7384 111.972 34.8284 112.423 39.0135 112.423C39.5163 112.423 40.0275 112.414 40.5303 112.405C42.8264 112.344 45.0965 112.145 47.3148 111.816C51.0065 111.278 54.5853 110.386 58.0167 109.173C61.8814 107.812 65.5643 106.036 68.9957 103.904C69.7321 103.454 70.4597 102.986 71.1706 102.492Z" fill="#F0EFE7"/>
<path d="M37.7397 87.7785L41.0932 93.7658L40.5303 112.405C42.8265 112.344 45.0965 112.145 47.3147 111.816L45.1571 93.2719L48.667 87.5877L49.3255 86.522L48.4761 85.5252C48.4328 85.4734 48.381 85.4212 48.3376 85.3694L42.8175 78.8965C42.792 78.9221 42.7397 78.9916 42.6618 79.0957L37.0377 86.522L37.7397 87.7785Z" fill="#EC9C7E"/>
<path d="M25.744 83.4321C28.5113 85.528 30.348 89.3933 33.2321 91.3251C36.6752 86.9681 43.0335 78.5562 42.8183 78.8926C45.7602 82.5193 49.5815 86.7823 52.692 90.266C55.1233 88.5472 56.0511 84.1992 57.9957 81.9987C58.5908 81.3251 59.5709 82.3129 58.9797 82.9826C56.8854 85.3517 52.5735 91.8479 52.4372 91.7856C52.4177 91.7784 45.7891 84.4717 42.821 80.8195C40.1539 84.9016 33.5592 93.223 33.2232 92.9993C30.1773 90.973 27.9584 86.8424 25.0415 84.6335C24.3362 84.099 25.0281 82.8903 25.744 83.4321Z" fill="#11202D"/>
<path d="M27.8983 70.6431L34.5475 74.3153L42.8182 78.8926L54.2884 70.6431C53.558 61.9764 54.1977 50.6381 54.1977 50.6381L28.1136 52.8986C28.1136 52.8986 28.0441 56.1609 27.9956 60.4317C27.9606 63.075 27.94 66.1009 27.94 68.9877C27.94 69.5646 27.9261 70.1213 27.8983 70.6431Z" fill="#EC9C7E"/>
<path d="M27.0773 75.4144C27.0773 75.4144 33.0117 75.4762 39.8223 72.6649C46.6334 69.8531 51.847 62.8107 51.847 62.8107L27.9956 60.4316C27.9605 63.0749 27.94 66.1008 27.94 68.9877C27.94 69.5644 27.9261 70.1213 27.8983 70.643C27.801 72.5487 27.5295 74.1139 27.0773 75.4144Z" fill="#11202D"/>
<path d="M54.7194 44.465C54.7194 44.465 55.3957 40.3956 59.0669 41.5959C63.588 43.0739 61.0666 50.8989 59.8495 52.551C58.632 54.203 53.1541 54.3771 53.1541 54.8115C53.1541 55.2465 53.0674 61.7673 51.8503 62.8107C50.6327 63.8542 40.6338 69.9406 39.4168 69.9406C38.1998 69.9406 32.5479 70.0274 31.244 69.158C29.9397 68.2886 25.1577 62.4631 24.8968 60.7243C24.6359 58.985 23.9835 41.1137 23.9835 41.1137C23.9835 41.1137 24.7517 38.5239 24.7517 35.5675C24.7517 32.611 25.5092 28.5828 27.5957 28.1478C28.9841 28.2758 29.5097 29.5395 33.3355 29.0027C36.2913 28.7419 43.0107 26.1888 45.967 27.0581C48.9228 27.9276 50.8069 29.7999 50.3718 31.9736C49.9374 34.1474 49.7634 38.031 49.7634 38.031L54.7194 44.465Z" fill="#EC9C7E"/>
<path d="M46.0655 66.9391C48.2304 65.8978 50.23 64.4266 51.5522 62.3897C52.8621 60.3727 52.7881 57.1588 52.7365 54.8554C52.7264 54.4066 53.4217 54.4076 53.4317 54.8554C53.4901 57.4408 53.3528 60.3938 52.153 62.7406C51.0516 64.896 48.5174 66.5292 46.4165 67.5398C46.0143 67.7334 45.6611 67.1338 46.0655 66.9391Z" fill="#11202D"/>
<path d="M15.0715 107.163C18.7888 108.887 22.7141 110.221 26.813 111.105C26.6573 104.372 26.4921 97.8907 26.3363 92.1192C26.3102 91.3744 26.3019 90.6553 26.2757 89.9444C26.2413 88.437 26.1978 86.9725 26.1545 85.5857C26.1373 84.9533 26.12 84.3291 26.1028 83.7229C26.0505 81.5047 25.9898 79.4855 25.9381 77.6917C25.0971 78.922 23.9707 79.8409 22.5668 80.6208C22.3415 80.7592 22.099 80.8894 21.8476 81.0106C21.605 81.132 21.3541 81.2532 21.0855 81.3661C21.0505 81.3917 21.0159 81.4005 20.9815 81.4178C20.5137 81.6259 19.8373 81.8945 19.0058 82.2066C17.2725 82.839 14.8724 83.6706 12.2119 84.5545C11.8653 84.6763 11.5099 84.7797 11.155 84.9016C7.35928 86.1575 3.14803 87.5008 -0.335144 88.5927C-0.595474 88.6795 -0.846344 88.7574 -1.08943 88.8352C-2.3371 89.2251 -3.48955 89.5806 -4.46016 89.8927C-4.67653 89.9617 -4.87572 90.0222 -5.07538 90.0835C-5.30902 90.1524 -5.52597 90.222 -5.73396 90.2825C-5.83746 90.317 -5.92422 90.3516 -6.0199 90.3866C-0.794601 97.1021 5.89523 102.613 13.5814 106.443C14.0753 106.694 14.5692 106.937 15.0715 107.163Z" fill="#7E6C63"/>
<path d="M71.1706 102.492C72.9989 101.244 74.7577 99.8839 76.4215 98.4366C76.5861 98.2981 76.7507 98.1507 76.907 98.0033C77.2274 93.8182 77.4444 90.9152 77.4878 90.3517L77.4961 90.2566C77.4961 90.2566 75.3385 89.4857 72.3921 88.2898C72.0455 88.1513 71.6818 88.0039 71.318 87.8565C70.9537 87.7001 70.5726 87.5444 70.1911 87.3881C68.0857 86.5048 65.7807 85.4818 63.6492 84.4078V84.3988C63.6058 84.3727 63.5535 84.3555 63.5017 84.3293C63.1814 84.1736 62.8777 84.009 62.5745 83.8532C62.2191 83.6708 61.8725 83.4806 61.5349 83.2986C60.2261 82.5878 59.0563 81.8602 58.1118 81.1582V81.8947C58.1029 82.5705 58.1029 83.2897 58.1029 84.0434V84.0523C58.0773 86.3485 58.0684 89.009 58.0601 91.9638C58.0512 92.5878 58.0512 93.2375 58.0512 93.8872C58.034 98.4889 58.0167 103.687 58.0167 109.173C61.8815 107.812 65.5643 106.036 68.9957 103.904C69.7322 103.454 70.4597 102.986 71.1706 102.492Z" fill="#7E6C63"/>
<path d="M76.9071 98.0033C77.8166 97.2062 78.7093 96.3657 79.5587 95.4902C78.3105 92.2757 77.4961 90.2566 77.4961 90.2566L77.4878 90.3517L76.4215 98.4366C76.5862 98.2981 76.7508 98.1507 76.9071 98.0033Z" fill="#7E6C63"/>
<path d="M38.7804 44.6241C39.1298 46.0392 40.136 47.0076 41.0277 46.7873C41.9193 46.5671 42.3593 45.2415 42.0094 43.8265C41.6601 42.412 40.6539 41.4435 39.7622 41.6638C38.8706 41.8841 38.4306 43.2096 38.7804 44.6241Z" fill="#11202D"/>
<path d="M26.4736 45.7343C26.7763 46.9892 27.6524 47.8535 28.4305 47.6661C29.2087 47.4786 29.5947 46.31 29.2927 45.0552C28.9901 43.8008 28.114 42.9359 27.3358 43.1233C26.5577 43.3113 26.1716 44.48 26.4736 45.7343Z" fill="#11202D"/>
<path d="M38.1336 35.8805L38.2727 35.8878C38.4067 35.8944 38.5235 35.9262 38.6304 35.9695C39.4246 36.1709 40.2696 36.1909 41.0683 36.4206C42.0489 36.7032 42.9729 37.1993 43.7983 37.7901C44.8818 38.5661 43.8417 40.3771 42.7448 39.5917C42.0473 39.0923 41.3286 38.7057 40.5137 38.4331C39.6449 38.1428 38.7227 38.195 37.856 37.9297C36.7608 37.5943 36.9227 35.8177 38.1336 35.8805Z" fill="#11202D"/>
<path d="M26.224 38.8537C26.5544 38.6523 26.9026 38.4805 27.2652 38.3442C27.9249 38.0972 28.603 37.976 29.306 37.9415C30.6516 37.8758 30.6455 39.9628 29.306 40.0285C28.7304 40.0568 28.178 40.1881 27.6574 40.4384C27.0417 40.7343 26.6951 41.3507 25.9219 41.2494C25.3584 41.1754 24.879 40.8306 24.879 40.2059C24.879 39.7192 26.0827 38.9399 26.224 38.8537Z" fill="#11202D"/>
<path d="M30.2056 49.3564C30.3702 48.4753 31.7107 48.8497 31.5472 49.7263C31.3431 50.816 31.8793 51.7872 32.8221 52.3217C33.8762 52.9203 35.5621 52.3779 36.6918 52.29C37.5874 52.2205 37.5807 53.6122 36.6918 53.6812C34.9364 53.8174 33.1469 54.3086 31.6023 53.19C30.388 52.3117 29.9391 50.7809 30.2056 49.3564Z" fill="#11202D"/>
<path d="M43.0685 57.2028C43.0685 57.2028 34.1532 57.1072 31.9972 57.2028C29.8412 57.2985 28.3589 57.8547 28.3589 57.8547C28.3589 57.8547 29.3312 61.9414 34.8084 61.1115C38.1514 60.6054 43.0685 57.2028 43.0685 57.2028Z" fill="white"/>
<path d="M60.1971 44.8561C60.1971 44.8561 59.8929 43.2001 58.2843 43.4193C56.6756 43.639 56.1105 47.5593 56.1105 47.5593L60.1971 44.8561Z" fill="#11202D"/>
<path d="M56.6434 47.2067C56.6434 47.2067 57.9655 47.3924 57.9366 48.2907C57.9077 49.189 56.4871 50.0295 56.4871 50.0295L56.6434 47.2067Z" fill="#11202D"/>
<path d="M58.0513 93.887C61.5867 97.2323 65.4253 100.187 69.5759 102.769C69.3857 103.133 69.1949 103.505 68.9958 103.904C69.7322 103.454 70.4598 102.986 71.1707 102.492C71.1618 102.267 71.0494 102.05 70.8414 101.929C68.5364 100.525 66.3353 98.9911 64.2299 97.3535C66.1618 96.4957 68.0858 95.6375 70.0182 94.7798C70.3563 94.6324 70.4687 94.1212 70.2696 93.8353C68.2243 90.8111 65.5121 87.7 63.6493 84.4077V84.3988C63.6059 84.3727 63.5536 84.3553 63.5018 84.3293C63.1814 84.1735 62.8778 84.0088 62.5746 83.8531C62.2191 83.6706 61.8726 83.4804 61.535 83.2986C63.2849 87.042 66.2486 90.499 68.6231 93.887L63.3027 96.2444C63.1987 96.2961 63.1119 96.3567 63.0596 96.4346C61.3269 95.0312 59.6544 93.5321 58.0602 91.9636C58.0513 92.5877 58.0513 93.2374 58.0513 93.887Z" fill="#11202D"/>
<path d="M16.709 102.25C15.635 103.627 14.4129 104.927 13.5813 106.444C14.0753 106.694 14.5692 106.937 15.0715 107.163C15.245 106.573 15.5481 105.975 16.0076 105.386L20.2016 100.005L26.3363 92.1194C26.3102 91.3746 26.3018 90.6554 26.2757 89.9445C24.4474 92.293 22.619 94.6497 20.7906 96.9982C19.5169 95.4212 18.2342 93.8437 16.9604 92.2585C15.1671 90.0396 15.1493 89.9445 16.8654 87.7435C18.4422 85.7249 19.8462 83.619 21.0855 81.3662C21.0504 81.3919 21.0159 81.4007 20.9815 81.418C20.5137 81.626 19.8373 81.8947 19.0057 82.2067C17.4544 84.7543 15.6783 87.1283 13.6247 89.3466C13.3471 89.6503 13.3822 90.0224 13.6247 90.3261L19.8979 98.1072C19.9068 98.1072 19.9157 98.1072 19.9157 98.1162C18.8494 99.494 17.7753 100.871 16.709 102.25Z" fill="#11202D"/>
</g>
<g filter="url(#filter0_d_1_5592)">
<path d="M44.4265 96.7027C44.4265 81.5576 56.704 69.2802 71.849 69.2802C86.994 69.2802 99.2715 81.5576 99.2715 96.7027C99.2715 111.848 86.994 124.125 71.849 124.125C56.704 124.125 44.4265 111.848 44.4265 96.7027Z" fill="white"/>
<path d="M44.9265 96.7027C44.9265 81.8338 56.9801 69.7802 71.849 69.7802C86.7179 69.7802 98.7715 81.8338 98.7715 96.7027C98.7715 111.572 86.7179 123.625 71.849 123.625C56.9801 123.625 44.9265 111.572 44.9265 96.7027Z" stroke="#53AAE8"/>
</g>
<path d="M68.8504 95.1635C70.0789 97.3237 71.8751 99.12 74.0354 100.348L75.1957 98.7239C75.5816 98.1839 76.3098 98.0171 76.8923 98.3352C78.7378 99.3434 80.7774 99.956 82.905 100.124C83.5873 100.179 84.1134 100.748 84.1134 101.432V107.287C84.1134 107.96 83.6046 108.523 82.9356 108.592C82.2404 108.663 81.5391 108.699 80.8337 108.699C69.6034 108.699 60.4995 99.5954 60.4995 88.3652C60.4995 87.6597 60.5355 86.9584 60.6069 86.2632C60.6757 85.5941 61.2393 85.0854 61.9119 85.0854H67.7666C68.451 85.0854 69.0204 85.6116 69.0744 86.2938C69.2428 88.4214 69.8555 90.4611 70.8636 92.3066C71.1818 92.889 71.0149 93.6173 70.4749 94.0031L68.8504 95.1635ZM65.5427 94.3017L68.0352 92.5213C67.3285 90.9957 66.8441 89.3777 66.5962 87.7092H63.1352C63.1272 87.9274 63.1233 88.1461 63.1233 88.3652C63.1233 98.1463 71.0526 106.076 80.8337 106.076C81.0528 106.076 81.2715 106.072 81.4896 106.064V102.603C79.8212 102.355 78.2032 101.87 76.6775 101.164L74.8972 103.656C74.1769 103.376 73.4814 103.047 72.8147 102.673L72.7384 102.629C70.1677 101.167 68.0315 99.0311 66.5696 96.4604L66.5262 96.3842C66.1517 95.7175 65.8225 95.0219 65.5427 94.3017Z" fill="#666666"/>
<defs>
<filter id="filter0_d_1_5592" x="31.9265" y="56.7802" width="79.845" height="79.845" filterUnits="userSpaceOnUse" color-interpolation-filters="sRGB">
<feFlood flood-opacity="0" result="BackgroundImageFix"/>
<feColorMatrix in="SourceAlpha" type="matrix" values="0 0 0 0 0 0 0 0 0 0 0 0 0 0 0 0 0 0 127 0" result="hardAlpha"/>
<feOffset/>
<feGaussianBlur stdDeviation="6.25"/>
<feComposite in2="hardAlpha" operator="out"/>
<feColorMatrix type="matrix" values="0 0 0 0 0 0 0 0 0 0 0 0 0 0 0 0 0 0 0.101961 0"/>
<feBlend mode="normal" in2="BackgroundImageFix" result="effect1_dropShadow_1_5592"/>
<feBlend mode="normal" in="SourceGraphic" in2="effect1_dropShadow_1_5592" result="shape"/>
</filter>
</defs>
</svg>
