<svg width="81" height="92" viewBox="0 0 81 92" fill="none" xmlns="http://www.w3.org/2000/svg">
<path d="M41.1172 29.6373C62.991 29.6373 80.7233 47.3696 80.7233 69.2434C80.7233 91.1172 62.991 108.849 41.1172 108.849C19.2434 108.849 1.51111 91.1172 1.51111 69.2434C1.51111 47.3696 19.2434 29.6373 41.1172 29.6373Z" fill="#DBE7ED"/>
<mask id="mask0_1_6032" style="mask-type:alpha" maskUnits="userSpaceOnUse" x="0" y="0" width="81" height="109">
<path d="M41.1172 0.42395C81.5387 1.3353 80.7233 46.0888 80.7233 68.4183C80.7233 90.7478 62.991 108.849 41.1172 108.849C19.2433 108.849 1.51109 90.7478 1.51109 68.4183C1.51109 46.0888 -7.58787 0.788567 41.1172 0.42395Z" fill="white"/>
</mask>
<g mask="url(#mask0_1_6032)">
<path d="M24.2408 33.7434C23.916 36.6481 24.0172 39.1667 24.2138 41.008C24.4239 43.0324 24.7487 44.2376 24.7487 44.2376L26.4888 44.3053H26.57L48.2485 45.145L55.5537 45.4222L56.9619 38.6724L57.0973 38.0228L57.4492 36.3368L57.5915 35.653L57.8351 34.4749L59.3517 27.2303L59.4941 26.5536L59.6159 25.9575C59.6159 25.9575 57.9164 23.3512 55.4319 21.1509C55.2354 20.9814 55.0388 20.8054 54.8358 20.6495C54.2603 20.1693 53.6512 19.7356 53.0145 19.3566C51.5592 18.4969 50.0562 17.8466 48.7628 17.3729C48.431 17.2441 48.1131 17.1358 47.8219 17.041C46.2848 16.5332 45.2291 16.3101 45.2291 16.3101L49.1218 13.9404C49.1218 13.9404 46.5354 12.5051 42.5751 11.9226C42.3444 11.889 42.1078 11.8619 41.8642 11.8348H41.8571C40.5302 11.6789 39.0743 11.6318 37.5107 11.7672C37.2736 11.7807 37.03 11.8078 36.7928 11.8413C36.285 11.8955 35.7642 11.9772 35.2428 12.0785C32.9066 12.5322 30.8081 13.7168 29.0069 15.152C28.8039 15.315 28.6078 15.4774 28.4178 15.6399C27.7005 16.256 27.0367 16.8992 26.4346 17.5489C26.2581 17.7319 26.0892 17.9214 25.9268 18.1043C25.9133 18.1108 25.9062 18.1244 25.8997 18.1314C24.8364 19.3296 23.9767 20.5006 23.354 21.4151C23.2187 21.6181 23.0898 21.8076 22.9744 21.9835C22.4736 22.7621 22.2095 23.2499 22.2095 23.2499L25.2565 25.2807C25.2565 25.2807 24.9176 27.6505 24.2408 33.7434Z" fill="#264457"/>
<path d="M41.7759 32.3692L48.2483 45.1448L55.5535 45.4224L56.9617 38.6723L57.0971 38.0225L57.4492 36.3367L57.5913 35.6529L57.8351 34.4748L48.9118 28.0565L41.7759 32.3692Z" fill="#11202D"/>
<path d="M24.2408 33.7435C23.916 36.6481 24.0173 39.1667 24.2138 41.0081L26.4888 44.3053L26.5359 44.3729L26.57 44.3053L34.6467 27.8535L24.9853 21.8953L25.8997 18.1315C24.8364 19.3296 23.9767 20.5007 23.354 21.4151C23.2187 21.6181 23.0898 21.8076 22.9745 21.9835C22.4737 22.7621 22.2095 23.2499 22.2095 23.2499L25.2565 25.2807C25.2565 25.2807 24.9176 27.6505 24.2408 33.7435Z" fill="#11202D"/>
<path d="M25.9268 18.1043C26.7794 19.8238 28.0729 21.3338 29.4135 22.7079C31.6743 25.0164 34.193 27.0002 36.9688 28.6526C37.3483 28.8756 37.6867 28.2936 37.3077 28.07C34.762 26.5465 32.3652 24.7523 30.2867 22.6267C28.7973 21.0967 27.3349 19.4649 26.4346 17.5488C26.2581 17.7318 26.0891 17.9213 25.9268 18.1043Z" fill="#11202D"/>
<path d="M28.4177 15.6399C29.8536 20.6701 34.423 24.9624 38.208 28.1919C38.5399 28.4762 39.0201 28.0024 38.6888 27.7182C34.8903 24.4751 30.3202 20.2099 29.0068 15.1521C28.8038 15.315 28.6078 15.4775 28.4177 15.6399Z" fill="#11202D"/>
<path d="M36.475 19.5126C36.8675 22.6067 38.0591 25.5515 39.7987 28.1307C40.0429 28.4897 40.6319 28.1513 40.3878 27.7858C38.7901 25.4366 37.6526 22.7691 37.2195 19.9528C36.9823 18.3951 36.8741 16.7974 37.0164 15.2203C37.0841 14.4618 37.1247 12.8029 37.5108 11.7672C37.2736 11.7807 37.03 11.8078 36.7928 11.8414C36.5898 12.627 36.5292 13.5344 36.4545 14.1505C36.2379 15.9441 36.2444 17.7183 36.475 19.5126Z" fill="#11202D"/>
<path d="M41.2346 28.4019C41.4035 28.7738 41.9249 28.4896 41.8372 28.1242C42.0267 28.2937 42.4121 28.2124 42.4056 27.8871C42.3921 24.6781 42.5816 21.5434 45.4115 19.5326C46.4749 18.7746 47.5918 18.0161 48.7629 17.3729C48.431 17.244 48.1132 17.1357 47.8219 17.041C46.4814 17.786 45.222 18.6799 44.2064 19.6409C41.8707 21.8347 41.7148 24.8 41.7283 27.8464C39.4875 22.7079 39.8464 16.7432 42.5751 11.9226C42.3445 11.889 42.1079 11.8619 41.8642 11.8348H41.8572C39.1014 16.8992 38.8172 23.0534 41.2346 28.4019Z" fill="#11202D"/>
<path d="M47.138 27.8059C49.5348 27.0679 52.6154 27.3728 55.12 27.3051C56.5282 27.2645 57.9369 27.2439 59.3516 27.2304L59.494 26.5536C57.8145 26.5671 56.1291 26.6007 54.4497 26.6484C52.0669 26.7231 49.257 26.4453 46.955 27.1562C46.5425 27.2845 46.7184 27.9348 47.138 27.8059Z" fill="#11202D"/>
<path d="M45.3032 27.9212C46.4201 25.4502 48.9523 24.1838 51.2679 23.0328C52.6355 22.349 54.0236 21.7193 55.4318 21.1509C55.2353 20.9814 55.0388 20.8054 54.8357 20.6495C53.3192 21.2727 51.8363 21.963 50.3875 22.7215C48.1331 23.9061 45.811 25.1589 44.7141 27.5757C44.5382 27.9753 45.1202 28.3207 45.3032 27.9212Z" fill="#11202D"/>
<path d="M47.2463 31.7668C50.7129 33.148 54.1184 34.6709 57.4491 36.3369L57.5915 35.653C54.2673 34.0012 50.8754 32.4842 47.4223 31.1101C47.0162 30.9476 46.8467 31.6044 47.2463 31.7668Z" fill="#264457"/>
<path d="M46.8673 35.0234C49.4131 36.0861 51.9859 37.0677 54.6057 37.921C55.3913 38.1782 56.1764 38.4288 56.962 38.6725L57.0973 38.0228C56.9213 37.9615 56.7589 37.9004 56.603 37.8533C55.5943 37.535 54.5857 37.2101 53.5835 36.8646C51.3762 36.0997 49.203 35.267 47.0433 34.3731C46.6438 34.2042 46.4678 34.8609 46.8673 35.0234Z" fill="#264457"/>
<path d="M22.9745 21.9835C25.7708 24.448 28.7161 26.7295 31.8103 28.8215C32.1757 29.0722 32.5141 28.4831 32.1551 28.2395C29.068 26.154 26.1363 23.879 23.354 21.415C23.2186 21.6181 23.0898 21.8076 22.9745 21.9835Z" fill="#264457"/>
<path d="M70.0428 99.6176C71.8225 98.4027 73.5344 97.0789 75.1537 95.6702C75.3139 95.5354 75.4742 95.3919 75.6264 95.2485C75.9382 91.1749 76.1493 88.3493 76.1916 87.8008L76.1997 87.7083C76.1997 87.7083 74.0995 86.9579 71.2317 85.7938C70.8945 85.6591 70.5404 85.5155 70.1863 85.3721C69.8316 85.22 69.4608 85.0684 69.0894 84.9162C68.8365 84.8068 68.5751 84.6975 68.3136 84.5876C66.4836 83.795 64.535 82.926 62.7219 82.0067C62.6797 81.9813 62.6288 81.9645 62.5784 81.939C62.2666 81.7874 61.971 81.6272 61.6759 81.4756C61.3299 81.298 60.9926 81.1128 60.664 80.9358C59.3901 80.2439 58.2515 79.5357 57.3322 78.8525C56.6662 78.363 56.1178 77.8741 55.7215 77.4101C54.5823 76.0436 53.9418 72.6279 53.6127 68.6215C53.2332 64.202 53.2332 59.0737 53.3089 55.1859C53.3258 54.4518 53.3431 53.7604 53.3598 53.1275C53.3598 53.0517 53.3598 52.9845 53.368 52.9169C53.368 52.7398 53.3766 52.5628 53.3848 52.3938C53.3848 52.2758 53.3934 52.1578 53.3934 52.0484C53.4021 51.8373 53.4102 51.6435 53.4189 51.4491C53.4693 50.0155 53.5201 49.1465 53.5201 49.1465L33.0501 50.9267H33.0414L30.9667 51.1037L28.1329 51.3479C28.1329 51.3479 28.0652 54.5194 28.0144 58.6775C28.0063 59.0737 28.0063 59.4701 28.0063 59.8837C27.9976 60.2968 27.9976 60.7104 27.9895 61.1322C27.9895 61.5534 27.9808 61.9838 27.9808 62.4137C27.9727 62.8441 27.9727 63.274 27.9727 63.7131C27.964 64.8094 27.964 65.9139 27.964 67.0021C27.964 67.5674 27.9472 68.1071 27.9218 68.6215C27.8292 70.4688 27.5677 71.9955 27.1205 73.2603C26.8341 74.1124 26.4627 74.8374 26.016 75.4784C25.1975 76.676 24.1011 77.5704 22.7346 78.3295C22.5153 78.4643 22.2792 78.591 22.0345 78.709C21.7985 78.827 21.5543 78.9451 21.2928 79.055C21.2587 79.0799 21.2251 79.0885 21.1916 79.1053C20.7362 79.3078 20.0779 79.5693 19.2685 79.873C17.5815 80.4886 15.2453 81.298 12.6557 82.1583C12.3185 82.2768 11.9725 82.3776 11.6271 82.4961C7.9325 83.7186 3.8335 85.0261 0.443222 86.0889C0.189835 86.1734 -0.0543518 86.2492 -0.290924 86.325C-1.50531 86.7045 -2.62713 87.0504 -3.57188 87.3542C-3.78247 87.4213 -3.97633 87.4803 -4.17069 87.5399C-4.39804 87.607 -4.60922 87.6747 -4.81168 87.7337C-4.9124 87.7673 -4.99682 87.8008 -5.08997 87.835C-0.00398254 94.3714 6.50752 99.7357 13.9887 103.464C14.4695 103.708 14.9502 103.944 15.4391 104.164C19.0573 105.842 22.8781 107.141 26.8677 108.001C30.6884 108.845 34.6694 109.283 38.743 109.283C39.2324 109.283 39.7299 109.275 40.2194 109.267C42.4543 109.207 44.6638 109.013 46.8229 108.693C50.4162 108.17 53.8996 107.301 57.2396 106.121C61.0013 104.796 64.586 103.067 67.9259 100.992C68.6427 100.554 69.3509 100.098 70.0428 99.6176Z" fill="#F0EFE7"/>
<path d="M37.5031 85.2963L40.7673 91.1241L40.2193 109.267C42.4543 109.207 44.6638 109.013 46.8229 108.693L44.7228 90.6433L48.1391 85.1106L48.7801 84.0733L47.9533 83.1031C47.9111 83.0527 47.8608 83.0019 47.8185 82.9515L42.4456 76.6511C42.4207 76.6761 42.3698 76.7437 42.294 76.845L36.8198 84.0733L37.5031 85.2963Z" fill="#EC9C7E"/>
<path d="M25.8272 81.0658C28.5207 83.1059 30.3084 86.8681 33.1156 88.7484C36.467 84.5076 42.6557 76.3199 42.4463 76.6474C45.3097 80.1774 49.0292 84.3267 52.0568 87.7176C54.4233 86.0446 55.3263 81.8124 57.2191 79.6706C57.7984 79.015 58.7524 79.9765 58.1769 80.6283C56.1384 82.9342 51.9414 89.2573 51.8088 89.1967C51.7898 89.1897 45.3379 82.0777 42.449 78.5228C39.8529 82.4962 33.434 90.5957 33.1069 90.378C30.1422 88.4057 27.9825 84.3852 25.1434 82.2352C24.4569 81.715 25.1304 80.5385 25.8272 81.0658Z" fill="#11202D"/>
<path d="M27.9241 68.6177L34.396 72.1921L42.4463 76.6474L53.6106 68.6177C52.8998 60.1821 53.5224 49.146 53.5224 49.146L28.1336 51.3463C28.1336 51.3463 28.0659 54.5216 28.0188 58.6786C27.9847 61.2514 27.9647 64.1966 27.9647 67.0065C27.9647 67.568 27.9511 68.1099 27.9241 68.6177Z" fill="#EC9C7E"/>
<path d="M27.1249 73.2619C27.1249 73.2619 32.9012 73.322 39.5302 70.5857C46.1597 67.8489 51.2343 60.9942 51.2343 60.9942L28.0188 58.6786C27.9846 61.2514 27.9646 64.1966 27.9646 67.0065C27.9646 67.5679 27.9511 68.1099 27.924 68.6177C27.8293 70.4726 27.5651 71.9961 27.1249 73.2619Z" fill="#11202D"/>
<path d="M54.0302 43.1374C54.0302 43.1374 54.6885 39.1765 58.2618 40.3448C62.6624 41.7834 60.2081 49.3998 59.0235 51.0078C57.8385 52.6158 52.5067 52.7853 52.5067 53.2081C52.5067 53.6315 52.4222 59.9784 51.2376 60.9941C50.0524 62.0098 40.3201 67.9339 39.1355 67.9339C37.9509 67.9339 32.4497 68.0183 31.1806 67.1721C29.911 66.3259 25.2566 60.6557 25.0026 58.9633C24.7487 57.2703 24.1136 39.8754 24.1136 39.8754C24.1136 39.8754 24.8613 37.3547 24.8613 34.4771C24.8613 31.5994 25.5987 27.6786 27.6295 27.2552C28.9809 27.3797 29.4925 28.6098 33.2163 28.0873C36.0934 27.8335 42.6336 25.3484 45.5111 26.1946C48.3881 27.0409 50.2219 28.8632 49.7985 30.979C49.3757 33.0949 49.2063 36.8749 49.2063 36.8749L54.0302 43.1374Z" fill="#EC9C7E"/>
<path d="M45.607 65.0124C47.7142 63.9989 49.6605 62.5669 50.9474 60.5843C52.2224 58.6211 52.1504 55.4929 52.1001 53.2509C52.0903 52.814 52.7671 52.815 52.7769 53.2509C52.8337 55.7674 52.7 58.6416 51.5322 60.9259C50.4602 63.0238 47.9935 64.6134 45.9486 65.5971C45.5572 65.7856 45.2134 65.2019 45.607 65.0124Z" fill="#11202D"/>
<path d="M15.4392 104.164C19.0574 105.842 22.8781 107.141 26.8677 108.001C26.7161 101.447 26.5553 95.1391 26.4037 89.5213C26.3783 88.7964 26.3702 88.0964 26.3447 87.4045C26.3112 85.9373 26.2689 84.5118 26.2267 83.162C26.21 82.5464 26.1931 81.9389 26.1764 81.3489C26.1255 79.1897 26.0664 77.2244 26.0161 75.4784C25.1975 76.676 24.1012 77.5704 22.7346 78.3294C22.5154 78.4642 22.2793 78.5909 22.0346 78.7089C21.7985 78.827 21.5544 78.945 21.2928 79.0549C21.2588 79.0798 21.2252 79.0884 21.1916 79.1052C20.7363 79.3078 20.0779 79.5692 19.2686 79.873C17.5815 80.4885 15.2453 81.298 12.6558 82.1582C12.3185 82.2768 11.9725 82.3775 11.6271 82.4961C7.93256 83.7186 3.83356 85.0261 0.443237 86.0889C0.18985 86.1733 -0.0543365 86.2491 -0.290939 86.3249C-1.50534 86.7044 -2.62708 87.0504 -3.57182 87.3541C-3.78242 87.4213 -3.97629 87.4803 -4.17064 87.5399C-4.39804 87.607 -4.60921 87.6747 -4.81166 87.7336C-4.9124 87.7672 -4.99686 87.8009 -5.08997 87.8349C-0.00396729 94.3714 6.50752 99.7356 13.9888 103.464C14.4695 103.708 14.9503 103.944 15.4392 104.164Z" fill="#7E6C63"/>
<path d="M70.0428 99.6178C71.8224 98.4029 73.5344 97.0791 75.1537 95.6703C75.314 95.5356 75.4742 95.3921 75.6264 95.2486C75.9382 91.1751 76.1494 88.3494 76.1916 87.801L76.1997 87.7084C76.1997 87.7084 74.0996 86.958 71.2318 85.794C70.8945 85.6592 70.5404 85.5157 70.1863 85.3723C69.8317 85.2201 69.4608 85.0685 69.0894 84.9164C67.0402 84.0566 64.7966 83.0609 62.7219 82.0155V82.0068C62.6797 81.9814 62.6288 81.9646 62.5784 81.9391C62.2666 81.7875 61.971 81.6273 61.6759 81.4757C61.3299 81.2982 60.9926 81.113 60.664 80.9359C59.3901 80.244 58.2515 79.5358 57.3322 78.8525V79.5694C57.3235 80.2272 57.3235 80.9272 57.3235 81.6609V81.6695C57.2986 83.9045 57.29 86.494 57.2818 89.3701C57.2732 89.9774 57.2732 90.6099 57.2732 91.2422C57.2564 95.7213 57.2396 100.781 57.2396 106.121C61.0013 104.796 64.586 103.067 67.9259 100.992C68.6428 100.554 69.3509 100.099 70.0428 99.6178Z" fill="#7E6C63"/>
<path d="M75.6263 95.2486C76.5116 94.4727 77.3805 93.6546 78.2072 92.8024C76.9923 89.6736 76.1997 87.7084 76.1997 87.7084L76.1916 87.8009L75.1537 95.6703C75.3139 95.5355 75.4742 95.392 75.6263 95.2486Z" fill="#7E6C63"/>
<path d="M38.5161 43.2923C38.8562 44.6697 39.8356 45.6122 40.7035 45.3978C41.5713 45.1834 41.9996 43.8932 41.6591 42.5159C41.319 41.1391 40.3396 40.1965 39.4718 40.4109C38.6039 40.6253 38.1757 41.9155 38.5161 43.2923Z" fill="#11202D"/>
<path d="M26.5374 44.373C26.832 45.5944 27.6848 46.4357 28.4422 46.2533C29.1996 46.0708 29.5753 44.9334 29.2813 43.7119C28.9868 42.4911 28.1341 41.6492 27.3767 41.8316C26.6192 42.0146 26.2435 43.1521 26.5374 44.373Z" fill="#11202D"/>
<path d="M37.8865 34.7819L38.0219 34.7889C38.1523 34.7954 38.2661 34.8263 38.3701 34.8685C39.1432 35.0645 39.9656 35.084 40.743 35.3076C41.6975 35.5826 42.5968 36.0655 43.4003 36.6405C44.4549 37.3958 43.4425 39.1586 42.3748 38.3941C41.6959 37.908 40.9964 37.5317 40.2032 37.2664C39.3575 36.9838 38.4599 37.0347 37.6164 36.7764C36.5504 36.4499 36.7079 34.7207 37.8865 34.7819Z" fill="#11202D"/>
<path d="M26.2944 37.6758C26.616 37.4798 26.9549 37.3125 27.3079 37.1799C27.9501 36.9394 28.6101 36.8215 29.2944 36.7879C30.604 36.724 30.5981 38.7554 29.2944 38.8192C28.734 38.8468 28.1964 38.9746 27.6897 39.2182C27.0903 39.5063 26.753 40.1062 26.0005 40.0076C25.452 39.9356 24.9854 39.6 24.9854 38.9919C24.9854 38.5182 26.1569 37.7597 26.2944 37.6758Z" fill="#11202D"/>
<path d="M30.1698 47.8986C30.3301 47.0409 31.6348 47.4053 31.4757 48.2586C31.277 49.3192 31.7989 50.2645 32.7166 50.7848C33.7426 51.3674 35.3835 50.8395 36.4831 50.754C37.3548 50.6863 37.3483 52.0409 36.4831 52.108C34.7745 52.2406 33.0327 52.7187 31.5292 51.6299C30.3474 50.775 29.9105 49.2851 30.1698 47.8986Z" fill="#11202D"/>
<path d="M42.6898 55.5356C42.6898 55.5356 34.0121 55.4426 31.9136 55.5356C29.8152 55.6288 28.3723 56.1702 28.3723 56.1702C28.3723 56.1702 29.3187 60.1479 34.6499 59.3401C37.9038 58.8475 42.6898 55.5356 42.6898 55.5356Z" fill="white"/>
<path d="M59.362 43.518C59.362 43.518 59.0659 41.9062 57.5001 42.1195C55.9343 42.3334 55.3843 46.1492 55.3843 46.1492L59.362 43.518Z" fill="#11202D"/>
<path d="M55.9029 45.806C55.9029 45.806 57.1898 45.9869 57.1617 46.8612C57.1335 47.7355 55.7507 48.5536 55.7507 48.5536L55.9029 45.806Z" fill="#11202D"/>
<path d="M57.2732 91.242C60.7144 94.498 64.4507 97.374 68.4906 99.8872C68.3055 100.242 68.1198 100.604 67.9259 100.992C68.6428 100.554 69.3509 100.098 70.0429 99.6176C70.0342 99.3983 69.9249 99.1871 69.7224 99.0692C67.4788 97.7032 65.3364 96.21 63.2872 94.616C65.1675 93.7812 67.0402 92.9458 68.9211 92.1109C69.2502 91.9675 69.3596 91.4699 69.1658 91.1916C67.175 88.248 64.5351 85.2199 62.722 82.0153V82.0067C62.6797 81.9812 62.6288 81.9644 62.5785 81.939C62.2666 81.7874 61.971 81.6271 61.6759 81.4755C61.33 81.2979 60.9927 81.1128 60.664 80.9358C62.3673 84.5795 65.252 87.9443 67.5632 91.242L62.3846 93.5365C62.2834 93.5868 62.199 93.6458 62.148 93.7216C60.4615 92.3557 58.8336 90.8965 57.2819 89.3698C57.2732 89.9773 57.2732 90.6096 57.2732 91.242Z" fill="#11202D"/>
<path d="M17.033 99.3816C15.9876 100.723 14.798 101.987 13.9886 103.464C14.4694 103.708 14.9502 103.944 15.4391 104.164C15.608 103.59 15.903 103.008 16.3503 102.435L20.4325 97.1971L26.4036 89.5215C26.3782 88.7965 26.3701 88.0965 26.3447 87.4046C24.565 89.6904 22.7854 91.9843 21.0058 94.2702C19.766 92.7353 18.5175 91.1998 17.2777 89.6568C15.5322 87.4971 15.5149 87.4046 17.1851 85.2623C18.72 83.2974 20.0865 81.2477 21.2928 79.0549C21.2586 79.0799 21.2251 79.0885 21.1915 79.1053C20.7362 79.3078 20.0778 79.5693 19.2684 79.873C17.7585 82.3527 16.0297 84.6634 14.0309 86.8226C13.7607 87.1182 13.7948 87.4803 14.0309 87.776L20.1368 95.3497C20.1455 95.3497 20.1541 95.3497 20.1541 95.3584C19.1163 96.6995 18.0709 98.04 17.033 99.3816Z" fill="#11202D"/>
</g>
</svg>
