<svg width="133" height="163" viewBox="0 0 133 163" fill="none" xmlns="http://www.w3.org/2000/svg">
<path d="M67.0068 44.3396C102.818 44.3396 131.848 70.7702 131.848 103.374C131.848 135.978 102.818 162.409 67.0068 162.409C31.1962 162.409 2.16589 135.978 2.16589 103.374C2.16589 70.7702 31.1962 44.3396 67.0068 44.3396Z" fill="#AADCF3"/>
<mask id="mask0_1_5902" style="mask-type:alpha" maskUnits="userSpaceOnUse" x="0" y="0" width="133" height="163">
<path d="M67.011 0.204834C133.671 1.57317 132.326 68.7681 132.326 102.295C132.326 135.821 103.084 163 67.011 163C30.9383 163 1.69564 135.821 1.69564 102.295C1.69564 68.7681 -13.3097 0.752284 67.011 0.204834Z" fill="white"/>
</mask>
<g mask="url(#mask0_1_5902)">
<path d="M140.23 125.627C112.314 166.323 55.8956 177.216 14.2166 149.958C5.36808 144.171 -2.36944 136.911 -8.64099 128.507C-8.1049 127.623 -7.56861 126.74 -6.96557 125.873C-3.61434 120.457 16.8942 111.885 45.8977 108.809C52.4423 108.106 59.019 107.724 65.6019 107.664C72.7315 107.598 79.8576 108.002 86.9316 108.875C112.132 111.95 133.093 120.098 140.23 125.627Z" fill="black"/>
<path d="M89.0427 110.745C84.4317 118.174 75.7273 122.709 66.3558 122.567C52.9517 122.567 43.2505 112.011 43.2505 112.011C47.9419 108.182 48.2771 101.073 47.5397 95.4745C47.2348 92.7317 46.6752 90.0163 45.8641 87.3589H85.8424C83.4128 94.6355 83.4967 99.8527 84.435 103.483C85.7587 108.838 89.0427 110.745 89.0427 110.745Z" fill="black"/>
<path d="M84.3512 103.483C55.465 110.379 49.7346 95.3525 49.7346 95.3525L47.5397 95.4745C47.2346 92.7317 46.675 90.0163 45.8641 87.3589H85.8425C83.3291 94.6355 83.4128 99.8527 84.3512 103.483Z" fill="black"/>
<path d="M94.4546 61.8071C94.4546 61.8071 97.6717 58.6188 99.2633 59.6714C101.438 61.2915 102.435 63.8832 101.844 66.3836C100.989 69.0989 97.2527 73.8127 96.9512 76.5586C96.6495 79.3045 94.7395 82.4165 92.6117 80.6012C90.4836 78.7858 94.4546 61.8071 94.4546 61.8071Z" fill="black"/>
<path d="M37.0844 61.8071C37.0844 61.8071 33.8675 58.6188 32.2756 59.6714C30.1007 61.2915 29.1038 63.8832 29.6952 66.3836C30.5498 69.0989 34.2863 73.8127 34.5878 76.5586C34.8895 79.3045 36.7995 82.4165 38.9276 80.6012C41.0555 78.7858 37.0844 61.8071 37.0844 61.8071Z" fill="black"/>
<path d="M65.0826 25.0273C105.581 25.0273 95.946 74.1177 88.5401 89.8761C85.9263 95.4136 72.3544 102.675 65.803 102.675C59.7041 102.675 45.6967 93.9949 43.2838 88.793C35.7105 72.9278 26.5453 25.0273 65.0826 25.0273Z" fill="black"/>
<path d="M71.9524 55.3084C71.9524 55.3084 82.4916 52.3338 85.7588 58.2679Z" fill="black"/>
<path d="M79.7605 63.3783C79.7605 64.5072 79.1236 65.4225 78.3529 65.4225C77.5821 65.4225 76.9286 64.5072 76.9286 63.3783C76.9286 62.2495 77.5654 61.3342 78.3529 61.3342C79.1403 61.3342 79.7605 62.2495 79.7605 63.3783Z" fill="black"/>
<path d="M59.5869 55.3084C59.5869 55.3084 49.0478 52.3338 45.7805 58.2679Z" fill="black"/>
<path d="M51.7788 63.3783C51.7788 64.5072 52.4154 65.4225 53.1862 65.4225C53.9569 65.4225 54.6103 64.5072 54.6103 63.3783C54.6103 62.2495 53.9737 61.3342 53.1862 61.3342C52.3987 61.3342 51.7788 62.2495 51.7788 63.3783Z" fill="black"/>
<path d="M81.8381 37.5517C71.6909 40.5021 60.7865 40.5021 50.6395 37.5517C50.6395 37.5517 45.1604 37.262 43.0157 39.7637C40.871 42.2655 43.0157 49.9846 43.5855 53.127C44.1552 56.2696 38.8436 58.451 39.5641 66.3836L37.5032 69.1295C37.5032 69.1295 31.7898 56.3458 33.2307 45.3622C34.6716 34.3787 42.2951 30.1073 42.2951 30.1073C42.2951 30.1073 45.7636 20.6035 66.1382 20.6797C88.1044 20.7561 90.3162 31.5718 90.3162 31.5718C90.3162 31.5718 105.195 40.618 94.1866 70.06L91.8074 66.3988C92.3753 62.4936 91.3888 58.5318 89.026 55.2323C87.0992 52.6847 90.1653 45.0267 89.445 41.091C88.7243 37.1551 81.8381 37.5517 81.8381 37.5517Z" fill="black"/>
<path d="M68.1823 61.3342C68.1823 61.3342 68.2999 70.3041 70.8801 73.2177C72.2037 74.7433 69.6233 77.9468 65.6355 78.5265" fill="black"/>
<path d="M56.9059 83.7283C57.4704 85.5955 58.826 87.1821 60.6758 88.137C63.4403 89.2201 71.8517 88.7624 73.4434 87.8624C75.0352 86.9623 75.8225 84.0181 75.8225 84.0181" fill="black"/>
<path d="M56.0179 83.5453C62.9095 84.8891 70.0371 84.8891 76.9286 83.5453Z" fill="black"/>
<path d="M85.7589 37.933C85.7589 37.933 81.235 44.035 66.3563 45.3622C67.4906 44.4011 68.3885 43.2311 68.9867 41.9298C64.4411 44.9609 58.746 46.1982 53.1865 45.3622C47.4243 44.6513 41.6807 46.7839 38.1065 50.9608L35.5932 61.3341C35.5932 61.3341 26.6962 52.1812 33.0298 37.4754L30.7511 39.1992C30.7511 39.1992 33.2811 19.5356 59.2351 18.8186L56.0852 17.0948C56.0852 17.0948 81.9387 12.0759 92.059 27.575C92.059 27.575 101.057 29.1004 103.268 43.2723L100.738 41.7467C100.738 41.7467 104.743 53.5083 96.4321 63.3477C96.365 63.3783 85.7589 47.803 85.7589 37.933Z" fill="black"/>
</g>
</svg>
