<svg width="599" height="1153" viewBox="0 0 599 1153" fill="none" xmlns="http://www.w3.org/2000/svg">
<path opacity="0.15" d="M-730.645 330.328C-701.601 374.842 -726.242 385.061 -783.868 508.151C-844.567 637.824 -736.843 772.623 -529.542 759.859C-458.826 755.498 -405.447 739.717 -325.699 727.146C-200.209 707.355 -147.482 755.934 -93.1285 794.997C-33.8755 837.592 92.5141 959.311 328.764 854.035C465.117 793.272 550.616 682.841 503.892 573.18C478.391 513.315 426.143 468.189 377.464 418.489C207.982 245.446 231.924 248.116 199.062 20.7353C190.823 22.8144 196.687 12.1358 183.201 -18.0212C120.516 -158.208 -42.1501 -125.508 -225.085 -94.4277C-498.689 -47.9482 -556.269 -170.097 -714.94 -152.271C-764.791 -146.678 -824.861 -114.099 -859.159 -56.1917C-956.438 108.053 -782.344 251.11 -730.645 330.328Z" fill="url(#paint0_linear_6_13606)"/>
<path opacity="0.3" d="M-701.645 267.328C-672.601 311.842 -697.242 322.061 -754.868 445.151C-815.567 574.824 -707.843 709.623 -500.542 696.859C-429.826 692.498 -376.447 676.717 -296.699 664.146C-171.209 644.355 -118.482 692.934 -64.1285 731.997C-4.87554 774.592 121.514 896.311 357.764 791.035C494.117 730.272 579.616 619.841 532.892 510.18C507.391 450.315 455.143 405.189 406.464 355.489C236.982 182.446 225.687 -50.8642 212.201 -81.0212C149.516 -221.208 -13.1501 -188.508 -196.085 -157.428C-469.689 -110.948 -527.269 -233.097 -685.94 -215.271C-735.791 -209.678 -795.861 -177.099 -830.159 -119.192C-927.438 45.0531 -753.344 188.11 -701.645 267.328Z" stroke="#53AAE8" stroke-width="2"/>
<defs>
<linearGradient id="paint0_linear_6_13606" x1="-25.7289" y1="242.654" x2="36.7906" y2="447.146" gradientUnits="userSpaceOnUse">
<stop stop-color="#53AAE8"/>
<stop offset="1" stop-color="#53AAE8"/>
</linearGradient>
</defs>
</svg>
